<svg width="315" height="278" viewBox="0 0 315 278" fill="none" xmlns="http://www.w3.org/2000/svg">
<path d="M170.257 40.1293C157.122 40.5463 138.978 41.7834 127.024 43.1039C107.62 45.2306 89.3182 48.6639 68.9849 54.0154C58.8892 56.6703 40.9657 61.855 37.3747 63.1477C29.7674 65.8999 26.4284 69.2359 25.4204 75.06C25.1684 76.5473 25.1369 79.8694 25.3574 81.454C25.4362 82.0239 25.5779 83.4278 25.6724 84.5815C25.8614 86.9167 26.8379 92.157 28.0349 97.3695C30.0509 106.057 31.9882 112.701 37.3432 129.381C38.8867 134.232 40.1624 138.222 40.1624 138.249C40.1624 138.277 39.8474 138.305 39.4537 138.305C39.0599 138.305 38.4614 138.43 38.1464 138.569C37.3589 138.931 36.2879 139.959 35.8784 140.779C35.4374 141.641 35.4059 143.351 35.7997 144.365C36.1304 145.199 36.9652 146.117 37.6109 146.353C38.0677 146.52 38.0677 146.534 37.9889 147.521C37.9259 148.41 37.9889 148.702 38.5402 150.19C39.0599 151.566 39.1859 152.136 39.2804 153.456C39.5324 156.945 40.2412 158.53 41.7374 158.877C42.1942 158.988 42.5722 158.947 43.4857 158.724C44.1314 158.571 44.7929 158.404 44.9662 158.377C45.2497 158.307 45.3127 158.432 45.5804 159.739C46.2262 162.936 47.8957 168.051 48.2894 168.051C48.4942 168.051 48.9824 167.676 48.9824 167.509C48.9824 167.453 48.7304 166.758 48.4312 165.952C48.1162 165.16 47.6279 163.659 47.3287 162.63C46.7617 160.67 46.7144 160.448 45.5962 154.707C44.0212 146.603 43.3282 144.185 37.8787 127.394C32.3189 110.324 29.6729 100.678 27.5467 89.9469C26.9167 86.7221 26.9009 86.5414 27.1529 86.18C27.2947 85.9576 27.4049 85.5684 27.4049 85.3043C27.4049 84.3313 27.9089 82.3575 28.3657 81.5096C28.9169 80.481 30.1297 79.3551 32.0984 78.0485C33.8152 76.9087 35.6264 76.0886 38.0362 75.338C41.3279 74.2955 42.8399 73.531 42.8399 72.8638C42.8399 72.5719 42.9502 72.4468 43.3124 72.3217C43.7692 72.1688 43.9739 71.724 43.5959 71.724C43.3439 71.724 39.8947 72.8638 37.5479 73.7117C35.4689 74.4623 33.1694 75.4631 31.9724 76.1442C30.0194 77.2423 27.4837 79.23 26.5229 80.4115L26.1922 80.8146L26.0977 79.1883C26.0504 78.2987 26.0662 76.867 26.1607 76.0052C26.7592 69.9587 29.9249 66.5115 37.2487 63.9678C39.2962 63.2589 55.5502 58.5051 61.8187 56.7815C88.0582 49.5813 109.966 45.4808 133.717 43.3124C143.12 42.4506 157.027 41.561 167.501 41.144C172.368 40.9494 183.519 40.9494 187.267 41.144C201.001 41.8529 221.035 44.3827 239.699 47.7465C240.77 47.9411 241.841 48.094 242.093 48.094C243.416 48.094 243.873 49.5118 243.448 52.3335C243.274 53.515 243.085 54.2517 242.881 54.5714C242.629 54.9328 242.597 55.1274 242.707 55.3915C242.786 55.5722 242.802 55.7529 242.739 55.7946C242.518 55.9058 241.384 55.6278 239.526 54.9884C236.738 54.0154 233.336 53.3482 229.32 52.959C228.406 52.8756 226.107 52.6115 224.201 52.3891C218.862 51.7636 215.586 51.4995 204.435 50.7767C197.568 50.3458 194.071 50.0678 193.961 49.9566C193.851 49.8454 192.008 49.7481 187.819 49.6369C184.527 49.5535 179.739 49.4145 177.187 49.3172C165.107 48.928 151.751 49.6091 137.497 51.3605C135.371 51.6246 132.757 51.9304 131.67 52.0555C130.583 52.1806 128.992 52.3891 128.126 52.542C127.26 52.6949 125.449 52.9729 124.11 53.1675C121.196 53.5984 112.282 55.0718 100.485 57.0734C81.1597 60.3538 72.9067 62.2025 62.6849 65.4968C57.6607 67.1092 56.1329 67.5818 54.4162 68.0405C52.9042 68.4436 50.4472 69.2915 50.1322 69.5278C50.0219 69.6112 49.9274 69.7919 49.9274 69.9448C49.9274 70.1672 50.0062 70.2089 50.3054 70.1672C50.5889 70.1116 50.6519 70.1533 50.6047 70.3479C50.5574 70.473 50.5889 70.612 50.6677 70.6537C50.8252 70.7371 52.8254 70.2089 59.4562 68.3324C61.5352 67.7486 64.6852 66.9563 66.4649 66.5671C68.6699 66.0806 70.3552 65.6219 71.7884 65.1076C74.4974 64.1068 77.4584 63.2589 80.5769 62.5639C83.9632 61.7994 90.7042 60.5623 93.7912 60.1314C97.7444 59.5754 99.0989 59.3252 99.7762 59.0611C100.123 58.9221 100.721 58.797 101.115 58.797C101.839 58.797 105.052 58.1576 106.297 57.7684C106.675 57.6433 107.383 57.546 107.887 57.546C108.454 57.546 110.029 57.268 112.156 56.7954C114.03 56.3784 116.455 55.9058 117.589 55.7529C131.733 53.7513 131.575 53.7791 138.994 53.0285C140.206 52.9034 141.766 52.681 142.459 52.5281C144.27 52.1389 150.145 51.7358 156.24 51.569C159.138 51.4995 162.792 51.3327 164.351 51.2215C172.998 50.5821 183.519 50.735 188.433 51.5829C188.874 51.6524 189.835 51.7497 190.575 51.7775C193.111 51.8887 194.591 52.0138 196.166 52.2223C197.032 52.3335 198.544 52.4308 199.521 52.4169C201.049 52.403 201.616 52.4586 203.647 52.8895C205.616 53.3065 206.167 53.376 207.002 53.2926C207.695 53.237 208.262 53.2648 208.861 53.4177C209.333 53.5289 210.31 53.6679 211.05 53.7235C211.79 53.7652 213.507 53.932 214.861 54.071C216.216 54.2239 219.334 54.4741 221.791 54.627C230.076 55.1552 233.352 55.6417 236.596 56.8649C238.754 57.6711 239.825 57.963 240.691 57.963C241.479 57.963 242.077 57.7406 242.077 57.4626C242.077 57.3236 242.125 57.2541 242.172 57.3097C242.235 57.3514 242.235 57.6016 242.172 57.8518L242.077 58.3105H240.471C239.085 58.3105 238.738 58.3661 238.093 58.6441C236.423 59.3669 235.132 60.7569 234.439 62.55C233.872 64.0373 233.62 65.4551 233.1 70.4869C231.43 86.319 230.596 92.2543 228.69 101.679C228.265 103.819 227.808 106.349 227.666 107.308C227.398 109.296 227.351 111.061 227.587 111.061C227.666 111.061 227.729 111.2 227.698 111.367C227.666 111.645 227.761 111.686 228.454 111.77C234.943 112.548 239.211 113.438 245.936 115.37C253.465 117.552 267.34 121.695 269.876 122.529C276.034 124.544 280.271 126.726 281.767 128.645L282.193 129.201L281.389 129.228C280.051 129.27 278.822 129.757 277.798 130.66L276.901 131.466L276.649 130.674C276.318 129.645 275.436 128.464 274.9 128.353C274.365 128.228 274.066 128.492 274.333 128.825C275.499 130.271 276.034 131.883 276.239 134.552C276.491 137.652 276.066 140.932 274.759 146.159C274.381 147.688 273.609 150.996 273.026 153.512C271.813 158.905 271.766 159.086 270.648 162.116C270.191 163.395 269.75 164.785 269.703 165.215C269.64 165.632 269.545 165.994 269.498 166.022C269.451 166.049 268.915 166.022 268.333 165.952C267.529 165.869 267.088 165.883 266.616 166.036L265.986 166.216L266.08 165.688C266.128 165.396 266.427 164.423 266.726 163.52C267.671 160.754 270.223 151.691 270.616 149.773C270.916 148.244 270.979 147.479 270.979 144.908C270.979 141.377 270.79 140.459 269.561 138.236C268.427 136.164 267.199 135.177 264.49 134.135C257.796 131.591 240.109 128.228 228.611 127.31C224.012 126.949 221.413 127.519 219.303 129.34C218.752 129.826 218.295 130.174 218.295 130.118C218.295 130.076 218.468 129.062 218.689 127.88C218.909 126.699 219.082 125.684 219.082 125.642C219.082 125.6 219.413 125.614 219.838 125.67C220.248 125.726 222.264 125.781 224.311 125.781C228.375 125.795 229.777 125.92 234.911 126.698C236.644 126.963 239.227 127.31 240.66 127.463C245.731 128.019 250.126 128.825 254.236 129.965C255.685 130.368 256.489 130.521 257.229 130.521C258.048 130.521 258.442 130.604 259.198 130.938C260.379 131.452 262.111 131.855 263.765 131.98C265.151 132.092 265.608 131.967 266.317 131.299C266.569 131.063 266.805 130.966 266.994 131.021C267.183 131.077 267.356 130.966 267.577 130.646C268.852 128.811 267.545 127.852 262.946 127.255C262.001 127.129 258.52 126.504 255.229 125.865C240.518 122.987 231.241 121.681 221.65 121.125C220.185 121.041 220.027 121 220.027 120.763C220.027 120.416 221.256 113.897 222.169 109.463C223.099 104.862 223.855 101.498 225.54 94.381C227.162 87.5144 227.398 86.319 228.06 81.732C228.643 77.7149 229.068 75.5048 229.934 71.9881C230.753 68.6521 230.989 66.9007 230.769 65.747C230.17 62.7863 227.461 61.2434 222.311 60.9376C220.846 60.8542 220.72 60.8681 220.453 61.1322C220.279 61.2851 220.201 61.4797 220.248 61.5492C220.295 61.6187 221.098 61.716 222.028 61.7577C226.957 61.994 229.698 63.6898 229.918 66.6366C230.013 67.9988 229.761 69.5556 228.847 73.1835C228.091 76.1442 227.761 77.979 226.879 83.956C226.642 85.5267 226.044 88.5847 225.54 90.767C225.036 92.9493 224.122 96.8552 223.508 99.4545C222.185 105.167 221.413 108.795 220.122 115.62C219.571 118.47 219.082 120.833 219.035 120.874C218.988 120.916 217.586 120.888 215.901 120.805C206.467 120.332 189.283 120.04 175.864 120.11L166.178 120.165L166.288 119.54C166.351 119.193 166.399 108.462 166.399 95.7015C166.399 74.9071 166.367 72.1549 166.131 69.2776C165.674 64.0651 165.769 62.4666 166.572 60.8681C167.344 59.3391 169.139 58.3105 171.99 57.7545C173.565 57.4487 178.384 57.3236 181.125 57.5321C182.29 57.6155 185.094 57.8101 187.346 57.963C193.142 58.3661 195.016 58.5468 203.805 59.631C208.089 60.1592 212.656 60.6874 213.948 60.8264C216.232 61.0627 216.295 61.0627 216.499 60.8125C216.625 60.6596 216.704 60.4789 216.673 60.3955C216.641 60.326 215.633 60.1453 214.42 60.0063C213.223 59.8812 209.002 59.3669 205.065 58.8665C196.166 57.7545 195.253 57.6572 187.063 57.0456C179.44 56.4757 175.66 56.3923 173.25 56.7676C169.029 57.407 166.367 58.9638 165.328 61.3824C164.997 62.1469 164.981 62.4249 164.997 65.608C164.997 67.4845 165.091 70.0143 165.202 71.2375C165.595 75.5048 165.595 119.832 165.217 120.138C165.17 120.179 162.697 120.277 159.705 120.36C135.655 121.069 115.668 123.112 99.0044 126.573C89.2552 128.589 73.8359 132.592 60.9524 136.429C59.5192 136.859 57.1724 137.513 55.7392 137.888C54.3059 138.263 52.5104 138.819 51.7544 139.125L50.3999 139.681V140.293C50.3999 141.029 50.8882 141.752 51.5969 142.058C51.9749 142.239 52.0537 142.336 51.9749 142.545C51.7702 143.045 52.0537 143.156 53.0459 142.962C54.7312 142.642 55.2352 142.475 56.2432 141.905C57.6292 141.113 58.1804 140.918 60.7949 140.334C62.0392 140.056 63.6614 139.598 64.4017 139.32C66.3389 138.611 67.3312 138.319 68.6699 138.083C69.3157 137.958 71.0167 137.457 72.4499 136.957C75.6157 135.845 75.5684 135.859 77.8049 135.525C78.7972 135.386 80.0887 135.108 80.6557 134.913C81.2227 134.733 82.9237 134.344 84.4357 134.066C86.2469 133.732 87.6014 133.398 88.4362 133.065C90.2474 132.37 90.8459 132.217 92.6099 132.05C93.4604 131.967 95.0512 131.702 96.1064 131.466C97.1774 131.23 98.4059 131.049 98.8312 131.063C99.6502 131.077 102.406 130.604 106.375 129.77C107.667 129.506 109.651 129.145 110.785 128.992C111.919 128.825 115.148 128.353 117.967 127.922C122.503 127.241 123.448 127.129 126.315 127.032C128.551 126.963 130.52 126.796 132.709 126.504C134.458 126.282 137.261 125.99 138.931 125.878C140.616 125.753 142.49 125.6 143.089 125.517C145.735 125.197 150.727 125.031 157.705 125.031H165.076L164.981 127.116C164.918 128.255 164.871 131.313 164.855 133.885L164.824 138.555L163.406 138.639C162.634 138.68 160.603 138.75 158.917 138.792C149.782 139.042 140.317 139.612 132.615 140.404C128.788 140.793 127.591 141.029 127.071 141.474C126.567 141.877 126.504 142.294 126.898 142.433C127.181 142.531 130.536 142.322 134.032 141.989C139.34 141.488 149.152 140.932 157.185 140.668C159.658 140.599 162.398 140.501 163.296 140.46L164.902 140.376V146.256C164.902 152.622 164.619 162.241 164.335 165.438C164.178 167.273 164.635 168.134 166.084 168.69C166.635 168.899 167.359 168.941 171.596 168.968C174.289 168.982 176.794 169.024 177.187 169.066C177.581 169.107 180.7 169.177 184.117 169.233C190.087 169.316 191.74 169.344 195.536 169.511C198.418 169.636 200.686 169.816 203.474 170.136C207.79 170.623 209.176 170.247 210.546 168.232C210.908 167.717 211.349 166.925 211.538 166.48C211.727 166.049 211.9 165.702 211.916 165.716C211.979 165.785 210.042 174.07 209.758 174.904C209.664 175.223 209.569 175.501 209.554 175.529C209.538 175.543 209.302 175.46 209.018 175.335C208.64 175.168 207.727 175.071 205.711 174.973C204.183 174.904 202.907 174.793 202.86 174.751C202.813 174.695 201.962 174.64 200.97 174.626C198.56 174.598 182.306 173.403 178.573 172.986C175.99 172.708 167.06 172.61 160.571 172.819C158.665 172.874 155.767 172.958 154.114 172.986C150.302 173.083 148.696 173.138 144.034 173.403C139.23 173.681 138.505 173.764 135.922 174.389C134.757 174.667 133.702 174.904 133.576 174.918C133.229 174.945 133.119 174.598 132.93 172.847C132.599 169.816 131.654 166.008 130.489 163.061C129.008 159.322 126.409 155.763 122.992 152.817C119.621 149.912 116.03 148.049 112.03 147.104C110.612 146.77 110.218 146.742 107.257 146.728C104.69 146.715 103.745 146.77 102.69 146.965C98.6422 147.729 95.1772 149.258 91.3342 151.941C86.4202 155.388 83.7899 159.238 83.0024 164.09C82.8922 164.701 82.5772 166.23 82.2779 167.495C81.9787 168.76 81.4747 170.97 81.1754 172.43C80.8762 173.875 80.5612 175.126 80.4824 175.196C80.3879 175.279 80.3249 175.474 80.3249 175.627C80.3249 175.793 80.1674 176.057 79.9627 176.224C79.3012 176.78 78.2144 177.058 75.3637 177.42C73.8044 177.628 72.1664 177.878 71.7097 177.99C71.2687 178.101 70.8592 178.198 70.8119 178.198C70.7647 178.198 70.8434 177.934 70.9852 177.6C71.3159 176.85 71.3002 174.084 70.9694 172.694C70.7174 171.596 70.5442 171.248 69.0164 168.829C67.3154 166.175 66.2602 165.341 64.1339 164.993C62.4644 164.729 60.7792 165.049 57.8182 166.202C55.0304 167.273 52.5577 168.009 51.2977 168.121C50.7149 168.176 50.1952 168.273 50.1479 168.343C49.9274 168.663 48.3524 169.413 48.0532 169.344C47.8799 169.302 47.3602 169.344 46.9034 169.441C44.7614 169.886 42.8714 171.123 42.0839 172.596C41.7059 173.305 41.6587 173.569 41.6587 174.793C41.6587 176.419 41.7689 176.752 43.3124 179.797C43.8794 180.936 44.4937 182.16 44.6512 182.507C45.1394 183.55 45.9427 184.509 46.6987 184.995C47.0924 185.245 47.4074 185.496 47.4074 185.565C47.4074 185.621 48.1319 185.662 49.0297 185.648C50.4629 185.621 50.7779 185.565 52.0537 185.12C57.5504 183.188 59.3459 182.66 62.3542 182.09C66.6697 181.284 67.7564 180.881 69.4259 179.56C69.8827 179.185 70.3394 178.893 70.4497 178.893C70.5442 178.893 71.2372 178.796 71.9774 178.685C72.7177 178.559 74.2454 178.337 75.3952 178.184C78.7184 177.739 80.1202 177.197 80.8919 176.03C81.1124 175.696 81.4274 175.39 81.5849 175.349C81.7582 175.307 81.9314 175.14 81.9787 175.001C82.0732 174.723 83.0024 174.403 84.2939 174.181L85.0342 174.07L85.1129 174.779C85.1602 175.168 85.2704 176.141 85.3649 176.947C85.9162 181.729 87.8219 186.51 90.7357 190.361C92.1217 192.195 95.2402 195.045 97.0199 196.087C99.5399 197.575 102.454 198.589 105.367 198.992C107.777 199.326 111.652 199.201 113.794 198.714C116.282 198.158 118.093 197.463 119.92 196.365C121.102 195.656 123.07 194.002 123.874 193.043L124.488 192.307L125.764 192.279C126.457 192.265 127.323 192.195 127.701 192.126C128.268 192.001 128.378 192.015 128.299 192.181C128.189 192.432 128.425 192.432 128.677 192.168C128.772 192.056 129.433 191.723 130.142 191.417C131.528 190.833 132.552 190.124 133.812 188.887C135.009 187.733 135.513 187.011 137.025 184.397C138.694 181.506 139.844 178.935 140.6 176.474L141.167 174.612L142.285 174.528C145.498 174.278 148.57 174.153 154.271 174.028C157.736 173.959 162.209 173.82 164.194 173.736C167.454 173.597 174.368 173.639 176.164 173.82C176.51 173.861 177.928 173.986 179.314 174.098C180.7 174.209 183.897 174.487 186.401 174.709C188.921 174.932 192.985 175.251 195.457 175.404C197.93 175.571 200.23 175.738 200.592 175.779L201.238 175.849L201.364 177.197C201.427 177.934 201.49 178.726 201.505 178.963C201.521 179.185 201.6 179.477 201.679 179.588C201.757 179.699 202.057 180.394 202.34 181.145C202.97 182.841 203.411 183.605 204.75 185.357C205.774 186.705 205.805 186.774 205.6 187.136C205.348 187.553 205.522 187.65 205.805 187.247C205.978 187.011 206.057 187.052 206.876 187.733C208.498 189.082 211.444 190.597 213.932 191.334C215.287 191.723 217.334 192.015 218.043 191.903C218.5 191.834 218.578 191.89 219.319 192.835C221.13 195.128 223.54 196.796 226.658 197.922C229.462 198.937 230.596 199.118 233.809 199.104C236.171 199.104 236.848 199.048 237.825 198.812C243.652 197.394 247.669 194.475 251.433 188.915C252.504 187.33 253.685 185.023 253.984 183.98C254.079 183.605 254.063 183.577 253.685 183.647L253.291 183.716L253.575 183.077C253.732 182.729 253.953 182.451 254.047 182.479C254.158 182.507 254.378 182.41 254.536 182.285C254.977 181.923 255.37 180.922 255.874 178.768C255.953 178.462 256.016 178.518 256.504 179.282C256.804 179.755 257.04 180.241 257.04 180.353C257.04 180.603 257.119 180.603 257.56 180.408C258.032 180.186 258.142 180.019 258.142 179.505C258.142 179.268 258.268 178.615 258.442 178.045C259.072 175.863 259.009 173.75 258.221 170.067C258.016 169.066 257.733 167.537 257.591 166.661C257.229 164.381 256.473 161.713 255.528 159.364C255.292 158.752 253.953 156.709 252.913 155.36C251.527 153.567 249.196 151.705 246.96 150.634C241.951 148.202 235.1 148.132 228.91 150.454C225.067 151.885 222.61 153.414 218.72 156.792C215.082 159.947 213.806 161.407 212.782 163.631C212.578 164.076 212.389 164.423 212.373 164.395C212.357 164.381 212.436 163.909 212.562 163.353C212.845 162.032 213.633 156.639 214.042 153.178C214.216 151.691 214.436 149.995 214.515 149.425C214.735 147.979 216.106 141.724 216.232 141.627C216.326 141.53 216.484 141.544 222.547 142.114C224.579 142.308 226.863 142.503 227.619 142.545L229.005 142.642L229.556 142.155C230.155 141.627 230.265 141.141 229.84 141.029C228.973 140.821 222.311 140.168 218.169 139.89C217.366 139.834 216.673 139.751 216.641 139.695C216.547 139.57 217.397 134.844 217.759 133.37C218.248 131.383 219.649 129.59 221.256 128.867C222.784 128.172 225.162 128.005 229.005 128.297C238.817 129.048 255.512 132.259 263.104 134.844L264.836 135.428L264.127 135.636C262.71 136.053 261.292 137.721 260.741 139.612C259.891 142.545 260.143 147.396 261.261 149.467C261.891 150.648 263.718 152.58 264.663 153.095C265.702 153.665 267.309 153.776 268.144 153.331C268.459 153.178 268.742 153.039 268.758 153.039C268.884 153.039 266.458 161.379 265.45 164.368C265.151 165.285 264.868 166.314 264.82 166.661C264.679 167.704 264.285 169.094 263.245 172.332C262.127 175.779 261.844 177.058 261.97 178.212C262.048 179.074 262.552 180.186 263.056 180.658C263.356 180.95 263.371 180.978 263.119 181.061C262.395 181.312 259.213 180.742 258.505 180.241C258.268 180.088 257.827 180.353 257.827 180.644C257.827 180.895 258.694 181.437 259.528 181.729C260.962 182.215 262.978 182.132 263.686 181.576C263.923 181.395 264.033 181.409 264.82 181.729C265.97 182.201 267.277 182.493 268.632 182.563C269.23 182.59 270.396 182.688 271.215 182.785C273.672 183.035 274.995 182.757 276.302 181.687C277.452 180.756 278.271 178.907 279.263 175.071C280.035 172.068 279.988 170.859 279.043 169.622C278.145 168.454 276.806 167.829 273.514 167.078C272.585 166.856 271.766 166.647 271.735 166.605C271.687 166.564 271.829 166.119 272.065 165.591C272.286 165.076 272.853 163.575 273.325 162.283C273.782 160.976 274.349 159.558 274.585 159.113C274.806 158.669 275.105 157.779 275.231 157.112C275.515 155.652 277.72 149.717 278.806 147.507C279.232 146.617 279.799 145.172 280.066 144.282C280.334 143.406 281.248 140.807 282.098 138.514C282.949 136.22 283.752 133.885 283.894 133.329C284.524 130.674 283.831 128.728 281.626 126.865C278.602 124.322 273.514 122.473 252.63 116.371C247.653 114.911 242.723 113.493 241.684 113.229C239.51 112.66 234.943 111.673 233.872 111.548C232.706 111.395 232.722 111.409 233.084 109.866C233.431 108.378 233.667 106.808 234.281 102.234C234.486 100.622 234.943 98.0367 235.289 96.466C236.077 92.8798 237.478 85.8464 239.715 74.2955C242.062 62.1747 242.613 59.4642 243.18 57.3375L243.668 55.5166L244.456 55.2803C245.385 54.9745 246.298 54.3073 246.582 53.6957C246.865 53.1119 246.865 51.8331 246.582 51.2493C246.33 50.6933 245.558 50.0956 244.944 49.9705C244.534 49.901 244.471 49.7898 244.282 49.1087C244.062 48.2469 243.432 47.538 242.881 47.538C242.692 47.538 242.55 47.4824 242.55 47.4129C242.55 47.121 232.249 45.3001 222.91 43.9379C209.617 41.9919 196.024 40.6158 185.866 40.171C183.046 40.0459 173.565 40.0181 170.257 40.1293ZM163.8 50.179C162.886 50.2346 161.437 50.2763 160.571 50.2763L158.996 50.2624L160.571 50.179C161.437 50.1373 162.886 50.0956 163.8 50.0956L165.454 50.0817L163.8 50.179ZM245.306 51.8748C245.149 52.4864 244.676 52.7644 244.503 52.3613C244.361 52.0277 244.723 51.43 245.086 51.43C245.369 51.43 245.401 51.4856 245.306 51.8748ZM241.463 59.4086C241.668 59.492 241.636 59.8117 241.164 62.1747C240.88 63.6481 240.55 64.9408 240.455 65.0659C240.345 65.191 239.463 66.1501 238.486 67.2065C237.494 68.249 236.722 69.1386 236.77 69.1664C236.848 69.2498 237.951 68.1934 239.353 66.6505C239.935 66.0111 240.439 65.4968 240.455 65.5246C240.471 65.5385 240.282 66.6088 240.03 67.9015L239.557 70.2645L238.108 71.5433C237.305 72.2522 236.707 72.8777 236.77 72.9333C236.833 72.9889 237.447 72.5302 238.14 71.9325C238.833 71.3209 239.4 70.89 239.4 70.9734C239.4 71.1958 236.864 84.3313 235.667 90.211L234.628 95.4235L233.352 96.4799C232.643 97.0637 232.139 97.5919 232.202 97.6614C232.265 97.717 232.816 97.3417 233.431 96.7996C234.328 96.0351 234.533 95.91 234.47 96.188C234.171 97.3417 233.683 100.288 233.336 102.999C232.848 106.822 232.706 107.795 232.281 109.727L231.95 111.242L231.005 111.144C230.485 111.103 229.572 111.061 228.973 111.061C228.28 111.061 227.918 111.005 227.981 110.922C228.044 110.839 228.249 109.574 228.469 108.1C228.674 106.641 229.304 102.957 229.871 99.941C231.383 91.7539 231.856 88.3623 233.494 73.7395C234.391 65.6636 234.47 65.0798 234.848 63.7315C235.447 61.5909 236.565 60.0202 237.904 59.4642C238.408 59.2557 238.786 59.214 239.872 59.2557C240.613 59.2974 241.321 59.3669 241.463 59.4086ZM82.0102 61.3824C81.9629 61.4241 81.8212 61.438 81.7109 61.3963C81.5849 61.3546 81.6322 61.3129 81.8054 61.3129C81.9787 61.299 82.0732 61.3407 82.0102 61.3824ZM81.1124 61.5909C80.4352 61.8411 75.2377 62.9809 75.0014 62.9392C74.8754 62.9114 76.1827 62.5778 77.8994 62.1747C80.9392 61.4797 81.9314 61.299 81.1124 61.5909ZM170.651 124.766C172.147 124.933 173.218 124.947 175.77 124.864C177.55 124.808 179.707 124.78 180.574 124.808C184.149 124.905 189.425 125.086 192.386 125.225C197.741 125.475 213.16 125.587 215.838 125.392C217.114 125.295 218.2 125.253 218.232 125.281C218.295 125.322 215.791 139.556 215.712 139.653C215.696 139.667 214.436 139.598 212.924 139.486C201.411 138.639 193.063 138.388 177.991 138.472L165.643 138.527L165.753 133.245C165.8 130.326 165.895 127.255 165.958 126.393L166.052 124.836L166.698 124.697C167.659 124.516 168.556 124.53 170.651 124.766ZM282.208 131.8C282.271 132.675 281.752 133.621 281.248 133.551C280.933 133.509 280.901 133.44 280.948 132.842C281.011 132.078 280.948 132.05 279.31 132.411C278.743 132.536 278.255 132.606 278.208 132.564C277.987 132.37 278.381 131.883 278.98 131.605C279.862 131.216 280.429 131.091 281.374 131.119L282.161 131.146L282.208 131.8ZM265.466 136.776C265.655 137.04 265.12 137.554 264.458 137.749C263.686 137.971 263.529 137.874 263.812 137.388C264.175 136.818 265.214 136.429 265.466 136.776ZM267.986 138.249C268.301 138.361 268.852 139.334 269.293 140.529C269.986 142.406 270.207 144.657 269.971 146.979C269.782 148.716 269.687 148.994 269.041 149.592C268.726 149.898 268.49 149.981 267.986 149.981C266.773 149.981 265.498 148.855 264.773 147.132C263.686 144.574 264.08 140.084 265.482 138.917C266.143 138.361 267.356 138.041 267.986 138.249ZM39.2174 139.82C39.2174 139.89 39.0442 140.14 38.8237 140.362C38.3512 140.863 38.0677 141.474 38.1937 141.752C38.3039 142.016 37.8629 142.614 37.5637 142.614C37.4219 142.614 37.2487 142.461 37.1384 142.267C36.9022 141.808 37.3432 140.807 38.0519 140.168C38.5559 139.723 39.2174 139.528 39.2174 139.82ZM191.284 140.251C200.088 140.473 214.94 141.28 215.255 141.544C215.287 141.585 215.003 143.045 214.609 144.782C213.822 148.299 213.57 149.828 213.097 153.943C212.672 157.445 211.916 162.588 211.601 163.867C211.113 165.897 210.058 168.065 209.16 168.857C208.262 169.65 207.286 169.733 203.758 169.316C200.513 168.913 200.387 168.913 197.19 168.76C194.434 168.621 192.418 168.579 182.07 168.399C179.692 168.357 177.061 168.287 176.242 168.246C175.423 168.204 173.234 168.162 171.391 168.176C167.564 168.176 166.54 168.023 165.769 167.342L165.296 166.925L165.328 164.951C165.343 163.867 165.438 161.198 165.532 159.016C165.627 156.834 165.753 151.76 165.8 147.715L165.895 140.39L166.855 140.376C167.375 140.362 169.769 140.307 172.147 140.265C179.03 140.112 185.677 140.112 191.284 140.251ZM40.7137 147.479C41.0602 148.077 41.6114 150.537 41.5012 151.037C41.4539 151.288 41.3122 151.566 41.1704 151.663C40.9814 151.802 40.8712 151.788 40.6192 151.552C40.3829 151.357 40.2412 150.926 40.0994 149.967C39.9734 149.244 39.8002 148.396 39.6899 148.077C39.5167 147.604 39.5167 147.451 39.6899 147.271C40.0049 146.937 40.4459 147.02 40.7137 147.479ZM237.274 164.215C241.148 165.202 243.306 166.842 244.786 169.9C246.456 173.375 246.157 178.393 244.03 182.146C243.243 183.508 242.629 184.258 241.447 185.287C236.596 189.499 229.525 188.484 225.965 183.063C224.847 181.339 224.17 178.434 224.343 176.002C224.768 169.733 228.202 164.979 232.816 164.27C233.368 164.187 233.919 164.02 234.045 163.923C234.36 163.659 235.431 163.756 237.274 164.215ZM107.698 164.798C114.14 165.938 118.188 172.026 117.495 179.505C116.991 184.94 115.038 188.192 111.683 189.249C109.21 190.013 105.021 189.666 102.359 188.47C98.9729 186.969 96.4214 183.258 95.6654 178.726C95.3504 176.78 95.4292 172.888 95.8387 171.192C96.3112 169.219 97.2562 167.426 98.3587 166.466C100.091 164.937 104.281 164.187 107.698 164.798ZM62.5274 167.676C62.5274 168.496 60.4642 169.441 56.8259 170.275C53.9909 170.942 52.9672 171.248 49.2974 172.513C47.7854 173.027 46.1947 173.528 45.7537 173.611C44.8244 173.778 44.0527 173.625 43.9739 173.277C43.8952 172.93 44.8244 172.11 45.4229 171.999C45.6907 171.957 47.8957 171.331 50.3212 170.623C52.7467 169.9 55.8967 169.066 57.3299 168.746C58.7632 168.412 60.3224 167.982 60.7949 167.759C61.8974 167.259 62.5274 167.231 62.5274 167.676ZM271.215 168.829C272.79 169.399 272.995 169.469 274.444 169.844C275.719 170.164 276.255 170.539 276.255 171.081C276.255 171.582 275.987 171.804 275.42 171.804C274.633 171.804 267.687 170.539 267.325 170.331C266.773 170.025 266.852 169.413 267.514 168.816C268.033 168.371 268.159 168.329 268.978 168.329C269.64 168.329 270.223 168.454 271.215 168.829ZM223.445 179.407C223.398 179.546 223.366 179.435 223.366 179.171C223.366 178.907 223.398 178.796 223.445 178.921C223.477 179.06 223.477 179.282 223.445 179.407ZM223.603 180.311C223.555 180.422 223.508 180.38 223.508 180.227C223.492 180.075 223.54 179.991 223.587 180.047C223.634 180.088 223.65 180.214 223.603 180.311ZM252.787 185.106C250.976 189.11 247.133 193.697 244.03 195.531C242.833 196.24 242.487 196.393 243.18 195.907C244.314 195.128 246.472 193.099 247.543 191.82C248.929 190.166 251.842 186.191 252.504 185.051C252.787 184.578 253.039 184.217 253.087 184.245C253.118 184.272 252.976 184.662 252.787 185.106Z" fill="#3F3D56"/>
<path d="M266.553 144.226C265.561 145.311 265.498 145.394 265.671 145.394C265.923 145.394 267.309 143.893 267.246 143.712C267.215 143.629 266.9 143.851 266.553 144.226Z" fill="black"/>
<path d="M266.443 145.436C265.844 146.075 265.765 146.228 265.986 146.228C266.191 146.228 267.151 145.13 267.088 144.963C267.057 144.88 266.773 145.088 266.443 145.436Z" fill="black"/>
<path d="M232.942 169.9C231.21 170.247 229.855 171.248 228.989 172.833C228.375 173.959 228.17 174.973 228.249 176.391C228.296 177.406 228.391 177.698 228.847 178.448C229.414 179.407 230.092 179.977 231.21 180.45C232.171 180.853 233.793 180.853 234.958 180.45C235.431 180.297 235.903 180.2 236.029 180.241C236.171 180.283 236.344 180.144 236.502 179.852C236.628 179.588 236.99 179.032 237.289 178.615C238.14 177.42 238.376 176.572 238.345 174.751L238.329 173.166L237.652 172.318C236.77 171.179 236.329 170.762 235.462 170.275C234.549 169.761 234.045 169.691 232.942 169.9Z" fill="#FC9C09"/>
<path d="M102.595 172.902C101.209 173.611 100.359 174.681 99.9336 176.28C99.3351 178.504 99.9179 180.575 101.556 182.132C104.485 184.912 109.147 183.132 109.966 178.921C110.439 176.488 108.943 173.806 106.596 172.846C105.336 172.332 103.682 172.36 102.595 172.902Z" fill="#FC9C09"/>
<path d="M224.123 47.1071C223.036 47.4407 222.233 47.8299 222.059 48.1218C221.949 48.2886 221.87 48.7056 221.886 49.0392C221.902 50.7489 224.485 52.0555 226.375 51.3188C228.359 50.5404 228.58 48.1079 226.721 47.3295C226.044 47.0515 224.69 46.9403 224.123 47.1071ZM225.855 48.2747C226.469 48.4554 226.706 48.9975 226.265 49.1504C226.028 49.2338 223.713 48.7473 223.54 48.5944C223.493 48.5527 223.493 48.4276 223.54 48.3025C223.666 48.0384 225.02 48.0245 225.855 48.2747Z" fill="black"/>
<path d="M90.5625 52.3474C89.4127 52.542 88.3102 52.8339 87.5227 53.1536C87.0502 53.3482 86.5305 53.515 86.4045 53.515C85.9477 53.515 84.735 54.0988 84.3412 54.5158C83.7427 55.1413 83.538 55.878 83.853 56.3923C84.1995 57.0039 85.2547 57.4209 86.499 57.4487C87.8535 57.4765 92.2635 56.9066 93.2872 56.573C94.8307 56.0587 95.9175 54.9606 95.9175 53.9042C95.9175 52.8339 95.0355 52.403 92.6415 52.3335C91.7122 52.3057 90.783 52.3196 90.5625 52.3474ZM91.9012 53.8069C92.1375 54.1266 91.4917 54.4602 90.4365 54.5436C89.8537 54.5992 88.8615 54.766 88.2315 54.9189C86.9715 55.2108 86.0737 55.2664 85.9162 55.044C85.7587 54.8077 86.1525 54.488 86.5935 54.488C86.814 54.488 87.4755 54.3629 88.0582 54.21C89.8065 53.7513 91.728 53.5428 91.9012 53.8069Z" fill="black"/>
<path d="M144.112 60.3399C142.947 60.4094 140.395 60.5901 138.458 60.743C136.521 60.8959 134.836 61.021 134.725 61.021C134.442 61.021 133.954 61.7021 134.127 61.8411C134.206 61.9106 135.198 61.8828 136.316 61.7855C146.38 60.8959 151.342 60.8542 153.169 61.6465C154.964 62.411 155.563 63.662 155.846 67.2065C155.893 67.8876 156.051 69.361 156.177 70.473C156.303 71.585 156.618 76.1442 156.87 80.62C157.122 85.0958 157.437 90.5585 157.579 92.7825C157.894 98.2035 158.146 105.404 158.114 107.794C158.035 112.465 156.901 114.397 153.94 114.814C153.484 114.883 151.94 115.009 150.538 115.092C149.121 115.175 145.924 115.398 143.404 115.578C140.899 115.759 138.301 115.954 137.655 115.995C128.347 116.593 121.558 117.205 116.865 117.9C114.203 118.289 111.069 118.289 109.588 117.914C107.635 117.399 106.171 116.357 105.32 114.883C104.974 114.286 104.643 113.049 104.265 111.047C104.076 110.102 103.43 107.489 102.832 105.237C101.603 100.664 100.926 97.5502 100.091 92.6435C99.0201 86.2217 98.2641 81.9266 97.8861 79.9945C97.6814 78.9242 97.2876 76.7002 97.0199 75.06C96.7521 73.4198 96.3426 71.3487 96.1221 70.473C95.4134 67.5957 95.6181 66.4976 97.0041 65.7192C98.2799 65.0103 99.4769 64.774 103.084 64.5655C104.895 64.4543 107.525 64.2319 108.911 64.079C110.297 63.9261 113.416 63.6759 115.841 63.523C120.818 63.2033 122.047 63.0782 124.409 62.689C126.378 62.3693 128.142 62.1886 130.41 62.0496C132.253 61.9523 132.772 61.8272 132.772 61.5075C132.772 61.3407 132.568 61.299 131.875 61.299C130.221 61.299 126.583 61.5909 124.74 61.855C121.889 62.272 119.29 62.5222 115.369 62.7585C113.384 62.8697 110.155 63.1199 108.202 63.3006C106.249 63.4952 103.635 63.7037 102.375 63.7732C99.0359 63.9817 97.2561 64.4821 95.9961 65.5663C94.7046 66.6783 94.4369 68.249 95.1141 70.8761C95.3819 71.9603 96.9411 80.6895 99.2406 94.0335C99.8391 97.5085 100.91 102.346 101.902 106.057C102.328 107.628 102.958 110.185 103.32 111.756C104.281 115.982 105.147 117.344 107.494 118.317C109.714 119.234 112.439 119.318 117.574 118.636C122.551 117.983 127.134 117.594 139.466 116.76C148.617 116.134 153.216 115.787 154.019 115.648C156.287 115.259 157.909 113.758 158.697 111.269C159.201 109.699 159.154 100.817 158.602 92.713C158.524 91.5315 158.35 88.4596 158.209 85.902C157.72 76.1164 157.405 70.89 157.264 69.8058C157.185 69.1386 157.075 68.249 156.87 66.303C156.492 62.8419 155.72 61.4519 153.72 60.6179C152.885 60.2704 152.759 60.2565 149.546 60.2426C147.735 60.2287 145.278 60.2704 144.112 60.3399Z" fill="#FC9C09"/>
<path d="M174.904 61.8133C173.218 62.1469 172.1 62.8141 171.47 63.8566C171.187 64.3292 171.124 64.7184 171.092 66.0945C171.061 67.0119 170.966 69.0691 170.887 70.6815C170.336 80.8146 170.368 85.1097 171.029 92.9215C171.218 95.1316 171.328 98.0367 171.344 101.54C171.36 104.445 171.439 107.294 171.533 107.864C172.116 111.673 173.47 113.216 176.951 114.05C177.991 114.314 182.353 114.494 183.535 114.341C184.243 114.244 184.637 113.897 184.259 113.702C184.165 113.646 182.7 113.563 180.999 113.521C177.644 113.438 176.62 113.285 175.266 112.632C173.864 111.965 173.029 110.825 172.431 108.809C172.116 107.725 172.084 107.294 172.053 101.679C172.021 98.0923 171.911 94.4505 171.754 92.574C171.25 86.0688 171.171 84.3452 171.25 80.481C171.376 74.7681 171.832 64.9269 172.006 64.3292C172.51 62.5778 174.762 62.1191 180.101 62.6751C182.542 62.9392 183.409 62.967 186.401 62.8836C188.921 62.8141 190.118 62.8419 190.811 62.967C193.347 63.4257 194.528 64.5933 194.875 66.9841C195.001 67.971 194.985 68.8884 194.686 72.141C194.497 74.3233 194.166 78.9798 193.961 82.4965C193.567 88.821 193.378 91.1284 192.78 97.0915C192.607 98.7734 192.37 101.748 192.229 103.694C191.819 109.754 191.551 111.214 190.654 112.27C190.055 112.938 188.764 113.452 187.409 113.535C186.622 113.577 186.259 113.674 186.07 113.869C185.629 114.286 185.96 114.397 187.252 114.258C189.819 113.966 191.394 112.854 192.244 110.727C192.402 110.366 192.622 108.337 192.859 105.154C193.079 102.401 193.457 98.0228 193.725 95.4235C194.26 90.0303 194.386 88.404 194.827 81.2455C195.001 78.4099 195.3 74.4067 195.473 72.3495C195.946 67.0397 195.772 65.3022 194.67 63.9539C194.024 63.1616 192.969 62.6056 191.646 62.3415C190.764 62.1747 189.693 62.133 186.354 62.1469C183.22 62.1747 181.629 62.1191 180.101 61.9523C178.195 61.7299 175.644 61.6604 174.904 61.8133Z" fill="#FC9C09"/>
<path d="M202.403 64.1485C201.458 64.3848 200.875 64.7184 200.261 65.3439C198.812 66.8868 198.277 69.3471 197.741 77.284C197.615 79.23 197.473 81.1343 197.426 81.5235C196.78 87.0557 196.576 89.0573 196.481 90.6975C196.339 93.6721 196.119 95.8683 195.694 98.69C195.473 100.094 195.221 102.512 195.127 104.041C195.048 105.57 194.859 107.419 194.733 108.142C194.15 111.52 194.134 111.728 194.323 112.618C194.528 113.605 195.111 114.439 195.914 114.911C197.064 115.592 197.741 115.676 203.096 115.801C205.868 115.87 208.388 115.954 208.703 116.009C210.215 116.232 212.909 115.481 214.169 114.48C216.011 113.007 216.374 111.881 218.059 102.234C218.957 97.0915 219.319 95.4652 221.114 88.6125C223.241 80.4115 225.225 71.2097 225.225 69.5695C225.209 68.1378 224.327 67.1787 222.154 66.2891C220.39 65.5663 218.705 65.2327 215.066 64.913C213.334 64.7601 210.861 64.5099 209.554 64.3431C206.293 63.9539 203.49 63.8844 202.403 64.1485ZM209.475 65.191C211.428 65.4134 214.09 65.6914 215.381 65.8165C220.106 66.2335 223.193 67.3316 223.981 68.8606C224.138 69.1803 224.28 69.6529 224.28 69.9309C224.28 70.2089 223.965 71.9881 223.571 73.8924C222.122 81.0509 221.083 85.5267 219.539 91.184C218.295 95.8127 217.807 98.0089 216.956 103.068C216.169 107.739 215.318 111.52 214.83 112.52C214.373 113.466 213.365 114.341 212.342 114.689C211.333 115.036 211.097 115.036 202.939 114.939C198.686 114.883 198.308 114.856 197.489 114.564C195.284 113.785 194.717 112.242 195.457 109.059C195.835 107.419 196.087 105.195 196.087 103.346C196.103 101.984 196.213 100.956 196.859 96.605C197.032 95.4235 197.253 92.9771 197.347 91.184C197.442 89.3909 197.694 86.5136 197.914 84.79C198.292 81.6903 198.513 79.2856 199.001 72.697C199.253 69.1942 199.505 67.8598 200.104 66.6505C200.545 65.7609 201.537 64.9547 202.34 64.8435C202.671 64.7879 203.049 64.7323 203.175 64.7045C203.647 64.6211 206.01 64.8018 209.475 65.191Z" fill="#FC9C09"/>
<path d="M216.468 70.2228C215.287 71.6267 212.373 75.4492 211.712 76.4778C211.302 77.1311 211.523 77.1728 212.042 76.5473C213.082 75.3241 217.933 68.805 217.807 68.805C217.728 68.805 217.13 69.4444 216.468 70.2228Z" fill="black"/>
<path d="M216.657 73.0445C216.232 73.6283 215.932 74.1287 215.995 74.1843C216.106 74.2955 216.043 74.3511 216.862 73.2947C217.586 72.3356 217.759 72.002 217.57 72.002C217.492 72.002 217.082 72.4746 216.657 73.0445Z" fill="black"/>
<path d="M211.192 105.042C211.066 105.251 210.168 106.418 209.207 107.628C208.231 108.851 207.427 109.907 207.427 109.963C207.427 110.297 207.774 109.977 208.624 108.879C209.128 108.212 210.026 107.072 210.609 106.349C211.617 105.112 211.853 104.667 211.554 104.667C211.475 104.667 211.318 104.834 211.192 105.042Z" fill="black"/>
<path d="M189.709 67.832C189.646 67.9988 189.047 68.8745 188.354 69.778C187.015 71.5711 186.921 72.0437 188.212 70.5008C188.905 69.6807 190.102 67.8598 190.102 67.6374C190.102 67.4289 189.803 67.5818 189.709 67.832Z" fill="black"/>
<path d="M82.3723 69.0691C81.632 69.2081 79.1278 69.917 76.781 70.6398C72.434 71.9881 70.3393 72.5858 68.1185 73.114C67.4255 73.2669 66.7168 73.4615 66.5435 73.531C66.3703 73.6005 65.0945 73.9202 63.7085 74.226C60.0545 75.06 55.9438 76.2693 51.1085 77.979C46.2575 79.6748 45.3913 79.9389 41.5798 80.8285C37.4533 81.7876 35.6105 82.7328 34.571 84.3869C33.815 85.6101 33.8938 86.6387 35.1853 91.5315C36.9808 98.3703 38.0518 102.36 40.3355 110.505C41.5483 114.828 42.824 119.665 43.1548 121.277C44.21 126.142 44.8873 127.991 46.3363 129.909C47.234 131.091 48.0688 131.744 49.3918 132.286C50.2108 132.634 50.4943 132.675 51.896 132.675C53.8805 132.662 55.0145 132.384 58.448 131.063C62.291 129.59 65.882 128.589 73.3948 126.907C77.1118 126.073 82.6558 124.766 85.7113 124.002C88.7668 123.237 92.5783 122.32 94.1848 121.972C98.1853 121.083 99.3508 120.596 100.091 119.484C101.351 117.566 100.737 113.215 97.6498 102.026C96.1378 96.5633 95.9173 95.6042 94.5943 89.0295C93.5548 83.8448 91.9325 76.311 91.6018 75.0461C91.019 72.8221 89.9008 70.8066 88.7825 69.9726C87.3178 68.8884 85.0025 68.5548 82.3723 69.0691ZM86.4673 70.0004C88.2313 70.4591 89.8535 72.6692 90.6253 75.6438C91.0821 77.3813 93.0193 86.6109 94.0273 91.8095C94.8778 96.188 95.2243 97.6197 96.7205 102.929C98.8153 110.38 99.6973 114.633 99.6973 117.385C99.6973 119.707 99.1776 120.04 93.854 121.208C92.09 121.597 88.1683 122.542 85.1443 123.307C82.1203 124.071 77.1275 125.253 74.0405 125.934C65.9135 127.741 63.8503 128.325 57.7078 130.577C55.1563 131.508 53.66 131.814 51.9118 131.744C50.699 131.702 50.3525 131.633 49.6438 131.285C47.486 130.243 45.8165 127.602 44.84 123.71C44.6195 122.834 44.2573 121.208 44.0368 120.096C43.8163 118.984 42.698 114.758 41.5798 110.713C37.3745 95.6737 35.264 87.6117 35.1538 86.1522C35.0593 84.8317 35.2325 84.4425 36.1775 83.6641C37.1698 82.8579 38.4613 82.3853 41.8475 81.6069C45.5645 80.7451 46.4465 80.4671 51.9748 78.5072C56.495 76.8948 60.653 75.616 64.244 74.7125C65.315 74.4484 66.2443 74.2677 66.3073 74.2955C66.5278 74.4067 69.7723 73.5449 75.4423 71.863C78.5135 70.9595 81.5375 70.1116 82.136 70.0004C83.6165 69.7363 85.4278 69.7224 86.4673 70.0004Z" fill="#FC9C09"/>
<path d="M42.21 88.5013C41.4067 89.8635 40.5877 91.2396 40.383 91.5732C40.1782 91.9068 40.0995 92.157 40.194 92.1292C40.3672 92.0736 43.9267 86.3885 43.9425 86.1383C43.9582 85.6935 43.4542 86.3885 42.21 88.5013Z" fill="black"/>
<path d="M67.6777 94.2559C66.2287 96.4799 65.1262 98.273 65.2207 98.2452C65.394 98.1896 70.5442 90.5307 70.56 90.3083C70.5757 89.8913 69.9772 90.7114 67.6777 94.2559Z" fill="black"/>
<path d="M66.2445 107.405C65.2995 109.379 63.9292 112.201 63.189 113.674C62.4645 115.148 61.8975 116.385 61.929 116.426C61.9762 116.454 62.4487 115.648 62.9842 114.605C63.9292 112.785 68.1975 104 68.1975 103.889C68.1975 103.861 68.1345 103.833 68.0715 103.833C68.0085 103.833 67.1737 105.445 66.2445 107.405Z" fill="black"/>
<path d="M92.9406 107.753C92.8619 107.933 92.0271 109.518 91.0664 111.283C89.2551 114.647 89.0504 115.092 89.2551 115.092C89.3969 115.092 93.3974 107.85 93.3974 107.6C93.3974 107.322 93.0824 107.447 92.9406 107.753Z" fill="black"/>
<path d="M91.0349 115.592C89.2709 118.817 89.3969 118.567 89.6017 118.567C89.7749 118.567 92.7674 113.299 92.7674 113.007C92.7674 112.562 92.3579 113.16 91.0349 115.592Z" fill="black"/>
<path d="M135.765 71.6684C134.001 74.8793 134.127 74.643 134.332 74.643C134.41 74.643 135.119 73.5032 135.891 72.0993C137.371 69.4583 137.608 68.944 137.387 68.944C137.308 68.944 136.584 70.1672 135.765 71.6684Z" fill="black"/>
<path d="M118.519 78.396C118.456 78.5628 117.857 79.4385 117.164 80.342C115.825 82.1351 115.731 82.6077 117.022 81.0648C117.715 80.2447 118.912 78.4238 118.912 78.2014C118.912 77.9929 118.613 78.1458 118.519 78.396Z" fill="black"/>
<path d="M115.211 79.2022C114.959 79.5636 114.061 80.7312 113.211 81.7876C111.793 83.539 111.51 84.0116 111.967 83.7614C112.061 83.7058 112.675 82.9691 113.353 82.1073C114.014 81.2455 114.88 80.1891 115.243 79.7304C115.873 78.9798 116.077 78.535 115.81 78.535C115.731 78.535 115.479 78.8269 115.211 79.2022Z" fill="black"/>
<path d="M135.261 92.0597C132.253 96.0907 131.497 97.161 131.654 97.161C131.733 97.161 132.111 96.7718 132.489 96.2853C133.371 95.1733 137.497 89.5299 137.497 89.4465C137.497 89.1546 136.993 89.7384 135.261 92.0597Z" fill="black"/>
<path d="M179.975 99.524C178.526 101.428 177.345 103.041 177.345 103.082C177.345 103.347 177.817 102.818 179.392 100.775C181.771 97.6892 182.857 96.2297 182.857 96.1324C182.857 95.7849 182.259 96.4799 179.975 99.524Z" fill="black"/>
<path d="M134.584 101.373C133.119 103.291 131.15 105.835 130.205 107.016C129.276 108.198 128.536 109.184 128.583 109.212C128.614 109.254 128.929 108.948 129.26 108.531C131.04 106.404 137.497 98.0923 137.497 97.9394C137.497 97.6336 136.946 98.273 134.584 101.373Z" fill="black"/>
<path d="M181.534 101.22C181.361 101.47 180.589 102.485 179.802 103.486C177.928 105.835 177.739 106.099 177.991 106.029C178.117 105.988 178.621 105.432 179.14 104.792C179.644 104.153 180.526 103.069 181.078 102.387C182.007 101.234 182.243 100.775 181.944 100.775C181.881 100.775 181.692 100.984 181.534 101.22Z" fill="black"/>
<path d="M103.918 143.462C102.265 143.643 99.9966 144.171 98.2483 144.769C96.3583 145.436 92.9878 146.965 91.2868 147.952C89.8536 148.772 87.5698 150.579 87.7588 150.746C87.8218 150.801 88.3888 150.44 89.0031 149.925C90.5781 148.633 92.1058 147.771 95.1456 146.437C100.422 144.129 104.344 143.434 109.62 143.851C114.424 144.24 116.833 144.796 119.794 146.172C121.747 147.076 122.11 147.187 122.314 146.909C122.472 146.673 121.905 146.325 120.094 145.547C117.542 144.421 115.936 144.032 112.329 143.657C109.777 143.392 105.478 143.281 103.918 143.462Z" fill="black"/>
<path d="M236.88 145.547C233.793 145.783 228.832 146.603 228.722 146.895C228.643 147.118 228.911 147.104 230.218 146.867C233.951 146.172 237.463 145.894 241.054 146.006C245.196 146.131 246.519 146.409 250.205 147.965C252.614 148.98 253.638 149.564 255.764 151.162C257.009 152.108 257.355 152.302 257.497 152.149C257.639 152.01 257.418 151.746 256.473 150.968C254.993 149.717 252.961 148.521 250.504 147.465C248.204 146.478 246.692 146.019 244.771 145.755C242.881 145.477 238.991 145.38 236.88 145.547Z" fill="black"/>
<path d="M82.3724 146.311C79.7894 146.798 75.0171 147.896 71.8986 148.73C68.0871 149.745 57.2039 152.997 56.7629 153.247C56.4006 153.456 56.2589 153.929 56.5109 154.068C56.5896 154.109 57.3456 153.956 58.2119 153.72C59.0624 153.498 61.4406 152.9 63.4881 152.413C65.5356 151.913 68.6226 151.135 70.3394 150.676C72.0719 150.203 75.7416 149.328 78.5136 148.716C81.2856 148.118 83.7741 147.535 84.0419 147.423C84.6404 147.187 85.0341 146.478 84.7349 146.158C84.4986 145.908 84.5774 145.894 82.3724 146.311Z" fill="black"/>
<path d="M168.131 202.537C155.468 202.968 141.671 204.261 129.623 206.123C127.418 206.471 126.063 206.624 126.016 206.54C125.984 206.457 125.858 206.485 125.701 206.596C125.449 206.79 118.141 208.041 108.911 209.473C84.861 213.198 73.647 215.617 62.2913 219.551C57.8813 221.08 56.385 221.705 56.385 222.011C56.385 222.164 56.4323 222.261 56.511 222.233C56.574 222.205 58.1175 221.663 59.9288 221.024C66.528 218.703 75.537 216.27 83.9003 214.56C88.893 213.546 94.1535 212.601 94.2795 212.712C94.4213 212.837 93.6968 213.907 93.4133 213.977C93.0195 214.074 89.4758 214.727 88.3575 214.908C87.7905 214.991 87.0188 215.186 86.625 215.325C86.2313 215.464 84.672 215.895 83.16 216.27C76.7655 217.869 69.2685 220.134 68.3235 220.774C67.5518 221.302 66.6225 222.525 66.3863 223.331C66.024 224.596 66.6698 225.597 67.851 225.597C68.1818 225.597 69.741 225.25 71.3475 224.819C72.954 224.402 75.222 223.832 76.3875 223.568C77.553 223.29 78.6398 223.039 78.7973 223.012C79.0178 222.942 79.065 223.026 79.065 223.512C79.065 224.402 79.4115 224.846 80.2778 225.097C81.7268 225.5 83.097 225.653 85.5225 225.653C88.326 225.653 90.0113 225.458 95.13 224.541C97.0673 224.193 98.847 223.943 99.0675 223.971C99.288 224.012 99.9338 224.207 100.517 224.402C103.462 225.389 107.573 225.694 115.243 225.458L120.488 225.305L121.228 225.861C122.661 226.918 125.354 227.821 128.284 228.238C128.898 228.321 131.198 228.544 133.403 228.725C135.608 228.919 138.679 229.169 140.222 229.294C141.75 229.433 143.01 229.572 143.01 229.614C143.01 229.656 142.79 229.823 142.522 229.976C141.892 230.351 141.057 231.254 140.569 232.102C139.892 233.284 140.081 234.632 140.947 235.049C141.356 235.23 145.325 235.814 147.971 236.078C150.854 236.37 154.476 236.578 156.602 236.578C157.532 236.578 158.288 236.62 158.288 236.661C158.288 236.703 158.067 236.981 157.815 237.273C156.76 238.441 156.35 239.928 156.823 240.748C156.98 241.012 157.201 241.221 157.311 241.193C157.421 241.179 157.5 241.221 157.5 241.304C157.5 241.374 157.799 241.443 158.177 241.443C158.555 241.443 158.949 241.526 159.059 241.61C159.185 241.707 159.233 241.721 159.185 241.638C159.107 241.526 159.469 241.471 160.351 241.471C161.296 241.457 161.579 241.485 161.501 241.624C161.422 241.749 161.438 241.749 161.611 241.61C161.721 241.526 161.942 241.443 162.115 241.443C162.304 241.443 162.367 241.499 162.288 241.61C162.194 241.749 162.209 241.749 162.398 241.624C162.524 241.526 163.202 241.443 163.958 241.443C166.194 241.401 166.509 241.429 166.383 241.61C166.289 241.749 166.32 241.749 166.493 241.61C166.714 241.429 167.958 241.374 167.832 241.554C167.785 241.624 167.848 241.679 167.974 241.679C168.1 241.679 168.163 241.624 168.116 241.554C168.037 241.443 168.289 241.387 168.604 241.443C168.793 241.471 168.116 241.471 178.416 241.457C185.094 241.443 186.795 241.401 186.701 241.262C186.606 241.137 186.638 241.137 186.827 241.276C187.362 241.665 187.378 240.679 186.827 240.15C186.512 239.845 186.606 239.775 188.055 239.289C188.701 239.08 189.646 238.719 190.134 238.496C190.811 238.204 191.268 238.107 191.945 238.107C196.277 238.107 203.978 237.065 205.853 236.231C207.743 235.383 209.318 233.395 209.318 231.852C209.318 231.366 209.223 230.962 209.066 230.768C208.924 230.587 208.845 230.42 208.877 230.379C208.924 230.351 211.46 230.281 214.531 230.226L220.106 230.115L221.051 229.711C222.201 229.211 223.556 228.03 224.201 226.987C224.564 226.389 224.674 226.014 224.705 225.263C224.721 224.749 224.753 224.304 224.784 224.277C224.816 224.249 225.335 224.318 225.934 224.429C230.186 225.152 234.218 225.43 236.943 225.194C239.29 224.972 240.408 224.721 241.227 224.221L241.873 223.818L244.141 224.304C246.834 224.86 247.527 224.819 249.086 223.971L250.016 223.456L255.544 223.971C258.568 224.263 261.198 224.485 261.371 224.485C261.986 224.471 263.356 223.79 264.128 223.109C265.088 222.261 265.86 220.913 265.86 220.065C265.86 219.564 265.766 219.384 265.199 218.842C264.852 218.508 264.033 217.91 263.387 217.535C261.277 216.298 259.292 215.575 254.441 214.324C249.874 213.143 245.07 211.794 245.07 211.697C245.07 211.641 245.243 211.53 245.464 211.447C245.684 211.363 245.858 211.224 245.858 211.141C245.858 210.933 245.747 210.96 245.133 211.336L244.582 211.669L243.369 211.322C241.542 210.821 241.637 210.877 242.125 210.613C242.361 210.488 242.55 210.293 242.55 210.196C242.55 210.085 242.361 210.14 242.03 210.363C241.385 210.794 241.385 210.794 239.999 210.432L238.912 210.14L239.432 209.737C240.077 209.251 239.825 209.209 239.038 209.682L238.455 210.043L236.455 209.556C232.313 208.583 229.021 208 224.91 207.541C223.477 207.374 222.075 207.207 221.776 207.166L221.24 207.096L222.075 206.568L222.91 206.04L225.367 206.373C238.345 208.097 250.772 210.752 261.214 214.018C264.899 215.172 272.018 217.646 276.334 219.259C278.696 220.148 279.232 220.301 279.515 220.19C279.736 220.093 279.878 219.926 279.878 219.731C279.878 219.453 279.563 219.286 277.625 218.522C265.844 213.838 253.496 210.265 240.55 207.819C225.54 204.983 207.837 203.135 189.788 202.523C185.015 202.37 173.045 202.37 168.131 202.537ZM188.055 203.357C195.599 203.579 201.317 203.913 208.892 204.566C211.286 204.761 213.255 204.969 213.255 205.025C213.255 205.081 212.767 205.414 212.168 205.776L211.066 206.429L207.711 206.276C202.514 206.026 182.621 205.942 172.998 206.123C156.366 206.443 153.799 206.554 141.199 207.458C130.961 208.208 131.04 208.194 131.198 207.93C131.276 207.819 131.45 207.638 131.576 207.527C131.717 207.43 131.828 207.249 131.828 207.138C131.828 206.999 131.576 207.152 131.166 207.555L130.489 208.194L128.945 208.278C127.229 208.375 127.244 208.375 128.079 207.485C128.41 207.138 128.662 207.068 130.662 206.763C148.617 204.01 169.155 202.787 188.055 203.357ZM216.011 205.234C219.098 205.553 218.988 205.498 217.886 206.151L216.956 206.707L214.594 206.624C211.444 206.512 211.444 206.512 212.531 205.831C213.019 205.525 213.413 205.22 213.413 205.15C213.413 204.983 213.602 204.983 216.011 205.234ZM220.815 205.79C221.209 205.831 221.729 205.901 221.965 205.942L222.406 206.026L221.603 206.554C220.721 207.138 220.658 207.138 218.216 206.846L217.429 206.763L218.374 206.179C219.035 205.762 219.445 205.609 219.713 205.651C219.933 205.678 220.421 205.748 220.815 205.79ZM127.465 207.791C127.024 208.333 127.008 208.347 125.717 208.431C124.992 208.486 124.378 208.514 124.346 208.486C124.315 208.458 124.457 208.25 124.677 208.041C124.961 207.749 125.307 207.61 126.11 207.471C126.709 207.36 127.339 207.277 127.544 207.263L127.906 207.249L127.465 207.791ZM124.268 208.083C124.031 208.472 123.606 208.639 122.834 208.639H122.173L122.519 208.305C122.724 208.111 123.118 207.93 123.386 207.902C124.457 207.791 124.457 207.777 124.268 208.083ZM122.031 208.389C121.826 208.653 121.543 208.736 120.393 208.875C112.833 209.737 111.494 209.946 107.903 210.849C106.643 211.169 105.604 211.391 105.572 211.363C105.446 211.252 106.202 210.585 106.486 210.585C106.88 210.585 121.59 208.264 122.204 208.097C122.236 208.083 122.157 208.222 122.031 208.389ZM105.383 211.127C105.116 211.461 104.832 211.572 103.604 211.822C102.47 212.058 102.139 212.086 102.044 211.947C101.95 211.808 101.871 211.822 101.714 212.017C101.603 212.156 101.131 212.35 100.674 212.462L99.8393 212.656L100.091 212.309C100.422 211.85 100.154 211.892 99.666 212.378C99.3825 212.642 98.9888 212.823 98.4218 212.948C97.9493 213.031 97.4295 213.143 97.272 213.184C97.0358 213.24 97.0043 213.198 97.0673 213.031C97.1303 212.906 97.2248 212.712 97.272 212.601C97.461 212.184 97.083 212.406 96.7995 212.865C96.5475 213.268 96.3743 213.365 95.508 213.56C93.996 213.893 93.9803 213.893 94.374 213.157C94.6418 212.684 94.8308 212.517 95.193 212.448C95.6813 212.35 105.336 210.766 105.572 210.738C105.651 210.724 105.557 210.905 105.383 211.127Z" fill="#2F2E41"/>
<path d="M156.854 258.22C156.649 258.443 156.665 258.457 156.917 258.276C157.169 258.095 157.248 257.984 157.122 257.984C157.09 257.984 156.964 258.095 156.854 258.22Z" fill="black"/>
<path d="M159.059 258.151C159.012 258.234 158.965 258.818 158.996 258.818C159.012 258.818 159.138 258.707 159.248 258.582C159.437 258.387 159.437 258.359 159.248 258.471C159.075 258.554 159.043 258.526 159.122 258.359C159.201 258.179 159.138 258.012 159.059 258.151Z" fill="black"/>
<path d="M165.091 258.248C164.918 258.345 164.918 258.373 165.091 258.443C165.233 258.484 165.328 258.429 165.328 258.318C165.328 258.206 165.312 258.123 165.312 258.123C165.296 258.123 165.202 258.179 165.091 258.248Z" fill="black"/>
<path d="M159.642 258.429C159.689 258.498 159.799 258.512 159.878 258.471C160.083 258.345 160.051 258.304 159.784 258.304C159.658 258.304 159.595 258.359 159.642 258.429Z" fill="black"/>
<path d="M141.167 258.582C141.167 258.679 141.309 258.762 141.466 258.762C141.624 258.762 141.75 258.749 141.75 258.721C141.75 258.707 141.624 258.623 141.466 258.554C141.262 258.457 141.167 258.471 141.167 258.582Z" fill="black"/>
<path d="M165.627 258.513C165.58 258.582 165.643 258.637 165.768 258.637C165.894 258.637 165.956 258.582 165.909 258.513C165.862 258.457 165.8 258.402 165.768 258.402C165.737 258.402 165.674 258.457 165.627 258.513Z" fill="black"/>
<path d="M182.747 258.498C182.81 258.54 182.731 258.665 182.574 258.776C182.338 258.957 182.338 258.957 182.668 258.818C182.968 258.693 183.031 258.401 182.747 258.401C182.684 258.401 182.7 258.443 182.747 258.498Z" fill="black"/>
<path d="M144.16 258.749C144.16 258.86 144.223 258.915 144.301 258.874C144.38 258.832 144.396 258.735 144.349 258.665C144.207 258.484 144.16 258.512 144.16 258.749Z" fill="black"/>
<path d="M113.967 258.791C113.92 258.86 113.982 258.915 114.108 258.915C114.234 258.915 114.296 258.86 114.249 258.791C114.202 258.735 114.139 258.68 114.108 258.68C114.077 258.68 114.014 258.735 113.967 258.791Z" fill="black"/>
<path d="M161.374 258.93C161.327 258.999 161.39 259.054 161.515 259.054C161.641 259.054 161.704 258.999 161.657 258.93C161.61 258.874 161.547 258.819 161.515 258.819C161.484 258.819 161.421 258.874 161.374 258.93Z" fill="black"/>
<path d="M113.857 259.61C113.652 259.833 113.668 259.847 113.92 259.666C114.172 259.485 114.25 259.374 114.124 259.374C114.093 259.374 113.967 259.485 113.857 259.61Z" fill="black"/>
<path d="M117.495 259.569C117.495 259.596 117.621 259.708 117.778 259.805C118.015 259.986 118.03 259.972 117.826 259.749C117.621 259.527 117.495 259.457 117.495 259.569Z" fill="black"/>
<path d="M126.409 259.625C126.362 259.694 126.425 259.749 126.551 259.749C126.676 259.749 126.739 259.694 126.692 259.625C126.645 259.569 126.582 259.514 126.551 259.514C126.519 259.514 126.456 259.569 126.409 259.625Z" fill="black"/>
<path d="M135.387 259.638C135.324 259.708 135.356 259.805 135.434 259.847C135.513 259.902 135.623 259.874 135.671 259.805C135.734 259.735 135.702 259.638 135.623 259.596C135.545 259.541 135.434 259.569 135.387 259.638Z" fill="black"/>
<path d="M160.965 259.569C160.965 259.596 161.091 259.708 161.248 259.805C161.485 259.986 161.5 259.972 161.296 259.749C161.091 259.527 160.965 259.457 160.965 259.569Z" fill="black"/>
<path d="M166.887 259.749C166.792 259.944 166.808 259.958 166.966 259.833C167.076 259.735 167.123 259.624 167.076 259.583C167.029 259.541 166.934 259.61 166.887 259.749Z" fill="black"/>
<path d="M170.651 259.666C170.604 259.722 170.683 259.749 170.809 259.735C171.139 259.694 171.25 259.555 170.966 259.555C170.824 259.555 170.683 259.61 170.651 259.666Z" fill="black"/>
<path d="M175.234 259.68C175.282 259.749 175.392 259.763 175.471 259.722C175.675 259.596 175.644 259.555 175.376 259.555C175.25 259.555 175.187 259.61 175.234 259.68Z" fill="black"/>
<path d="M192.197 259.61C192.26 259.694 192.229 259.791 192.119 259.819C191.993 259.861 192.024 259.902 192.182 259.958C192.449 260.055 192.481 259.749 192.229 259.555C192.166 259.499 192.15 259.513 192.197 259.61Z" fill="black"/>
<path d="M199.3 259.708C199.316 259.819 199.379 259.958 199.426 260.013C199.489 260.055 199.505 260 199.489 259.874C199.474 259.763 199.411 259.624 199.363 259.569C199.3 259.527 199.285 259.583 199.3 259.708Z" fill="black"/>
<path d="M203.537 259.763C203.553 259.93 203.632 260.013 203.773 259.972C203.884 259.93 203.931 259.847 203.852 259.805C203.789 259.763 203.679 259.666 203.616 259.596C203.553 259.541 203.521 259.61 203.537 259.763Z" fill="black"/>
<path d="M112.297 259.708C112.297 259.735 112.423 259.847 112.581 259.944C112.817 260.125 112.833 260.111 112.628 259.888C112.423 259.666 112.297 259.596 112.297 259.708Z" fill="black"/>
<path d="M121.637 259.888C121.637 260.013 121.7 260.027 121.858 259.916C121.968 259.833 122.062 259.749 122.062 259.722C122.062 259.708 121.968 259.694 121.858 259.694C121.732 259.694 121.637 259.777 121.637 259.888Z" fill="black"/>
<path d="M123.889 259.777C123.826 259.847 123.858 259.944 123.937 259.986C124.015 260.041 124.126 260.013 124.173 259.944C124.236 259.874 124.204 259.777 124.126 259.735C124.047 259.68 123.937 259.708 123.889 259.777Z" fill="black"/>
<path d="M125.354 259.888C125.149 260.111 125.165 260.125 125.417 259.944C125.669 259.763 125.748 259.652 125.622 259.652C125.59 259.652 125.464 259.763 125.354 259.888Z" fill="black"/>
<path d="M128.095 259.861C128.095 259.972 128.158 260.027 128.236 259.986C128.315 259.944 128.331 259.847 128.284 259.777C128.142 259.596 128.095 259.624 128.095 259.861Z" fill="black"/>
<path d="M131.087 259.861C131.087 259.972 131.15 260.027 131.229 259.986C131.308 259.944 131.323 259.847 131.276 259.777C131.134 259.596 131.087 259.624 131.087 259.861Z" fill="black"/>
<path d="M131.969 259.888C131.764 260.111 131.78 260.125 132.032 259.944C132.284 259.763 132.363 259.652 132.237 259.652C132.205 259.652 132.079 259.763 131.969 259.888Z" fill="black"/>
<path d="M171.25 259.888C170.982 260.069 170.982 260.083 171.281 259.958C171.455 259.888 171.722 259.847 171.88 259.874C172.053 259.888 172.132 259.874 172.085 259.819C171.896 259.652 171.533 259.68 171.25 259.888Z" fill="black"/>
<path d="M178.054 259.791C177.928 259.972 178.195 260.069 178.432 259.944C178.589 259.861 178.573 259.805 178.384 259.749C178.258 259.708 178.101 259.722 178.054 259.791Z" fill="black"/>
<path d="M197.064 259.819C197.095 259.916 197.017 259.986 196.891 259.958C196.717 259.93 196.702 259.958 196.843 260.111C196.954 260.222 197.001 260.347 196.954 260.389C196.906 260.444 196.922 260.444 197.001 260.403C197.064 260.361 197.111 260.278 197.111 260.236C197.111 260.18 197.174 260.069 197.237 259.972C197.3 259.888 197.284 259.763 197.19 259.722C197.095 259.666 197.048 259.708 197.064 259.819Z" fill="black"/>
<path d="M126.882 259.903C126.835 259.972 126.898 260.027 127.023 260.027C127.149 260.027 127.211 259.972 127.164 259.903C127.117 259.847 127.054 259.792 127.023 259.792C126.992 259.792 126.929 259.847 126.882 259.903Z" fill="black"/>
<path d="M140.254 259.93C140.207 260 140.175 260.069 140.207 260.083C140.632 260.166 140.821 260.152 140.915 260.027C140.963 259.93 140.963 259.902 140.884 259.958C140.821 260.013 140.663 260 140.553 259.916C140.427 259.819 140.333 259.819 140.254 259.93Z" fill="black"/>
<path d="M150.979 259.903C150.932 259.972 150.995 260.027 151.12 260.027C151.246 260.027 151.309 259.972 151.262 259.903C151.215 259.847 151.152 259.792 151.12 259.792C151.089 259.792 151.026 259.847 150.979 259.903Z" fill="black"/>
<path d="M160.54 259.986C160.54 260.194 160.886 260.194 161.075 259.986C161.138 259.916 161.138 259.902 161.059 259.958C160.981 260.013 160.839 260 160.729 259.93C160.603 259.833 160.54 259.861 160.54 259.986Z" fill="black"/>
<path d="M164.272 259.847C164.272 259.874 164.398 259.986 164.556 260.083C164.792 260.264 164.808 260.25 164.603 260.027C164.398 259.805 164.272 259.735 164.272 259.847Z" fill="black"/>
<path d="M202.23 259.916C202.23 260.013 202.151 260.041 202.041 259.986C201.931 259.916 201.915 259.944 201.994 260.055C202.072 260.18 202.151 260.194 202.277 260.083C202.372 260 202.403 259.888 202.34 259.833C202.277 259.791 202.23 259.819 202.23 259.916Z" fill="black"/>
<path d="M111.51 259.986C111.51 260.013 111.62 260.083 111.762 260.125C111.888 260.166 111.951 260.152 111.904 260.069C111.809 259.93 111.51 259.874 111.51 259.986Z" fill="black"/>
<path d="M113.384 260.305C113.179 260.528 113.195 260.542 113.447 260.361C113.699 260.18 113.778 260.069 113.652 260.069C113.62 260.069 113.494 260.18 113.384 260.305Z" fill="black"/>
<path d="M158.287 260.125C158.287 260.152 158.413 260.264 158.571 260.361C158.807 260.542 158.823 260.528 158.618 260.305C158.413 260.083 158.287 260.013 158.287 260.125Z" fill="black"/>
<path d="M136.631 260.333C136.584 260.403 136.6 260.5 136.678 260.542C136.757 260.583 136.82 260.528 136.82 260.417C136.82 260.18 136.773 260.152 136.631 260.333Z" fill="black"/>
<path d="M155.5 260.417C155.5 260.528 155.563 260.583 155.642 260.542C155.72 260.5 155.736 260.403 155.689 260.333C155.547 260.152 155.5 260.18 155.5 260.417Z" fill="black"/>
<path d="M190.512 260.375C190.559 260.444 190.67 260.458 190.748 260.417C190.953 260.291 190.922 260.25 190.654 260.25C190.528 260.25 190.465 260.305 190.512 260.375Z" fill="black"/>
<path d="M178.227 260.514C178.274 260.583 178.384 260.597 178.463 260.556C178.668 260.43 178.636 260.389 178.369 260.389C178.243 260.389 178.18 260.444 178.227 260.514Z" fill="black"/>
<path d="M180.668 260.542C180.542 260.681 180.526 260.764 180.652 260.834C180.731 260.875 180.81 260.903 180.826 260.875C180.889 260.625 180.936 260.347 180.889 260.347C180.873 260.347 180.763 260.43 180.668 260.542Z" fill="black"/>
<path d="M113.825 260.681C113.778 260.792 113.857 260.959 113.999 261.056C114.219 261.209 114.235 261.209 114.077 261.056C113.983 260.959 113.936 260.778 113.983 260.681C114.03 260.569 114.03 260.486 113.983 260.486C113.936 260.486 113.873 260.569 113.825 260.681Z" fill="black"/>
<path d="M125.181 260.778C125.37 260.973 125.48 261.181 125.417 261.251C125.338 261.306 125.386 261.32 125.496 261.264C125.638 261.181 125.653 261.112 125.543 260.986C125.449 260.889 125.433 260.75 125.496 260.681C125.559 260.611 125.543 260.597 125.464 260.653C125.386 260.708 125.212 260.681 125.071 260.597C124.929 260.5 124.976 260.583 125.181 260.778Z" fill="black"/>
<path d="M128.284 260.625C128.221 260.708 128.126 260.736 128.063 260.708C128 260.667 127.937 260.722 127.937 260.834C127.937 261.014 128 261 128.237 260.806C128.52 260.583 128.583 260.486 128.457 260.486C128.41 260.486 128.331 260.556 128.284 260.625Z" fill="black"/>
<path d="M138.222 260.598C138.175 260.667 138.238 260.722 138.363 260.722C138.489 260.722 138.551 260.667 138.504 260.598C138.457 260.542 138.394 260.487 138.363 260.487C138.332 260.487 138.269 260.542 138.222 260.598Z" fill="black"/>
<path d="M155.752 260.653C155.673 260.903 155.657 261.181 155.736 261.125C155.846 261.014 155.925 260.625 155.83 260.625C155.799 260.625 155.767 260.639 155.752 260.653Z" fill="black"/>
<path d="M194.261 260.778C194.276 260.875 194.418 260.959 194.56 260.986C194.702 261 194.796 260.959 194.733 260.889C194.686 260.82 194.591 260.792 194.513 260.834C194.45 260.875 194.339 260.834 194.308 260.764C194.261 260.681 194.245 260.695 194.261 260.778Z" fill="black"/>
<path d="M118.582 261C118.377 261.223 118.393 261.237 118.645 261.056C118.897 260.875 118.975 260.764 118.849 260.764C118.818 260.764 118.692 260.875 118.582 261Z" fill="black"/>
<path d="M120.566 260.889C120.519 260.959 120.535 261.056 120.613 261.098C120.692 261.139 120.755 261.084 120.755 260.973C120.755 260.736 120.708 260.708 120.566 260.889Z" fill="black"/>
<path d="M150.964 260.889C150.916 260.959 150.932 261.056 151.011 261.098C151.09 261.139 151.153 261.084 151.153 260.973C151.153 260.736 151.105 260.708 150.964 260.889Z" fill="black"/>
<path d="M156.413 260.945C156.287 261.084 156.303 261.139 156.445 261.139C156.571 261.139 156.665 261.056 156.665 260.945C156.665 260.847 156.649 260.764 156.634 260.764C156.602 260.764 156.508 260.847 156.413 260.945Z" fill="black"/>
<path d="M185.22 260.806C185.22 260.834 185.314 260.945 185.44 261.028C185.614 261.153 185.692 261.153 185.787 261.014C185.85 260.917 185.85 260.875 185.771 260.931C185.708 260.986 185.551 260.973 185.425 260.889C185.314 260.806 185.22 260.764 185.22 260.806Z" fill="black"/>
<path d="M110.722 260.959C110.722 260.986 110.833 261.056 110.974 261.098C111.1 261.139 111.163 261.125 111.116 261.042C111.022 260.903 110.722 260.847 110.722 260.959Z" fill="black"/>
<path d="M135.072 261.209C135.119 261.264 135.245 261.278 135.371 261.223C135.702 261.125 135.671 261.056 135.308 261.084C135.135 261.084 135.025 261.153 135.072 261.209Z" fill="black"/>
<path d="M136.332 261.278C136.237 261.473 136.253 261.487 136.411 261.362C136.521 261.264 136.568 261.153 136.521 261.112C136.474 261.07 136.379 261.139 136.332 261.278Z" fill="black"/>
<path d="M173.455 261.278C173.455 261.403 173.518 261.417 173.675 261.306C173.785 261.223 173.88 261.139 173.88 261.112C173.88 261.098 173.785 261.084 173.675 261.084C173.549 261.084 173.455 261.167 173.455 261.278Z" fill="black"/>
<path d="M177.959 261.278C177.754 261.501 177.77 261.515 178.022 261.334C178.274 261.153 178.353 261.042 178.227 261.042C178.195 261.042 178.069 261.153 177.959 261.278Z" fill="black"/>
<path d="M150.617 261.362C150.617 261.473 150.712 261.556 150.838 261.556C150.979 261.556 150.995 261.501 150.869 261.362C150.775 261.264 150.68 261.181 150.649 261.181C150.633 261.181 150.617 261.264 150.617 261.362Z" fill="black"/>
<path d="M155.925 261.306C155.925 261.39 155.988 261.487 156.082 261.529C156.177 261.57 156.193 261.515 156.145 261.403C156.035 261.153 155.925 261.112 155.925 261.306Z" fill="black"/>
<path d="M147.562 261.348C147.483 261.598 147.467 261.876 147.546 261.82C147.656 261.709 147.735 261.32 147.64 261.32C147.609 261.32 147.577 261.334 147.562 261.348Z" fill="black"/>
<path d="M194.276 261.445C194.229 261.515 194.245 261.612 194.323 261.654C194.402 261.695 194.465 261.64 194.465 261.529C194.465 261.292 194.418 261.264 194.276 261.445Z" fill="black"/>
<path d="M160.54 261.668C160.54 261.779 160.634 261.89 160.76 261.932C160.933 261.987 160.933 261.946 160.807 261.737C160.603 261.403 160.54 261.39 160.54 261.668Z" fill="black"/>
<path d="M167.186 261.584C167.139 261.654 167.155 261.751 167.233 261.793C167.312 261.834 167.375 261.779 167.375 261.668C167.375 261.431 167.328 261.403 167.186 261.584Z" fill="black"/>
<path d="M177.912 261.723C177.723 261.904 177.691 262.015 177.817 262.085C177.912 262.14 177.959 262.098 177.943 261.987C177.912 261.89 177.975 261.82 178.069 261.834C178.164 261.848 178.243 261.765 178.243 261.654C178.243 261.403 178.243 261.403 177.912 261.723Z" fill="black"/>
<path d="M198.686 261.584C198.639 261.654 198.655 261.751 198.733 261.793C198.812 261.834 198.875 261.779 198.875 261.668C198.875 261.431 198.828 261.403 198.686 261.584Z" fill="black"/>
<path d="M150.208 261.695C150.05 261.82 150.066 262.015 150.223 262.015C150.302 262.015 150.365 261.918 150.365 261.807C150.365 261.57 150.349 261.556 150.208 261.695Z" fill="black"/>
<path d="M158.681 261.876C158.634 261.946 158.508 261.987 158.398 261.959C158.288 261.946 158.256 261.946 158.335 261.973C158.398 262.015 158.398 262.112 158.335 262.196C158.288 262.293 158.382 262.237 158.571 262.098C158.76 261.946 158.918 261.807 158.918 261.779C158.918 261.695 158.776 261.737 158.681 261.876Z" fill="black"/>
<path d="M190.528 261.89C190.638 261.987 190.764 262.029 190.811 261.987C190.859 261.946 190.78 261.862 190.622 261.82C190.402 261.737 190.386 261.751 190.528 261.89Z" fill="black"/>
<path d="M193.158 262.043L192.859 262.363L193.221 262.098C193.552 261.848 193.646 261.737 193.52 261.737C193.489 261.737 193.331 261.876 193.158 262.043Z" fill="black"/>
<path d="M119.432 262.057C119.432 262.168 119.527 262.251 119.653 262.251C119.794 262.251 119.81 262.196 119.684 262.057C119.59 261.959 119.495 261.876 119.464 261.876C119.448 261.876 119.432 261.959 119.432 262.057Z" fill="black"/>
<path d="M169.832 262.085C169.832 262.196 169.895 262.251 169.974 262.21C170.053 262.168 170.069 262.071 170.021 262.001C169.88 261.82 169.832 261.848 169.832 262.085Z" fill="black"/>
<path d="M155.752 262.182C155.862 262.307 155.893 262.502 155.83 262.599C155.736 262.738 155.767 262.752 155.941 262.599C156.114 262.46 156.098 262.39 155.846 262.182C155.578 261.973 155.563 261.973 155.752 262.182Z" fill="black"/>
<path d="M156.712 262.112C156.712 262.126 156.838 262.21 156.996 262.279C157.201 262.376 157.295 262.363 157.295 262.251C157.295 262.154 157.153 262.071 156.996 262.071C156.838 262.071 156.712 262.085 156.712 262.112Z" fill="black"/>
<path d="M172.084 262.251C171.99 262.446 172.006 262.46 172.163 262.335C172.273 262.237 172.321 262.126 172.273 262.085C172.226 262.043 172.132 262.112 172.084 262.251Z" fill="black"/>
<path d="M182.243 262.112C182.227 262.349 182.495 262.46 182.637 262.279C182.7 262.182 182.684 262.154 182.574 262.21C182.495 262.251 182.369 262.21 182.338 262.126C182.275 262.001 182.243 261.987 182.243 262.112Z" fill="black"/>
<path d="M125.449 262.307C125.386 262.39 125.386 262.488 125.433 262.529C125.48 262.585 125.527 262.543 125.527 262.446C125.527 262.349 125.606 262.321 125.716 262.376C125.827 262.432 125.842 262.418 125.779 262.321C125.638 262.112 125.575 262.112 125.449 262.307Z" fill="black"/>
<path d="M140.333 262.21C140.333 262.237 140.459 262.349 140.616 262.446C140.852 262.627 140.868 262.613 140.663 262.39C140.459 262.168 140.333 262.098 140.333 262.21Z" fill="black"/>
<path d="M128.252 262.39C128.315 262.432 128.268 262.571 128.158 262.696C127.984 262.891 128 262.891 128.236 262.724C128.488 262.557 128.488 262.293 128.252 262.293C128.189 262.293 128.205 262.335 128.252 262.39Z" fill="black"/>
<path d="M112.707 262.544C112.66 262.613 112.722 262.668 112.848 262.668C112.973 262.668 113.036 262.613 112.989 262.544C112.942 262.488 112.879 262.433 112.848 262.433C112.817 262.433 112.754 262.488 112.707 262.544Z" fill="black"/>
<path d="M132.347 262.641C132.347 262.752 132.41 262.807 132.489 262.766C132.568 262.724 132.583 262.627 132.536 262.557C132.394 262.376 132.347 262.404 132.347 262.641Z" fill="black"/>
<path d="M132.82 262.529C132.883 262.571 132.835 262.71 132.725 262.835C132.552 263.03 132.568 263.03 132.804 262.863C133.056 262.696 133.056 262.432 132.82 262.432C132.757 262.432 132.772 262.474 132.82 262.529Z" fill="black"/>
<path d="M144.191 262.557C144.144 262.627 144.16 262.724 144.238 262.766C144.317 262.807 144.38 262.752 144.38 262.641C144.38 262.404 144.333 262.376 144.191 262.557Z" fill="black"/>
<path d="M156.335 262.599C156.382 262.668 156.492 262.682 156.571 262.641C156.776 262.515 156.744 262.474 156.476 262.474C156.35 262.474 156.287 262.529 156.335 262.599Z" fill="black"/>
<path d="M171.612 262.557C171.565 262.627 171.644 262.766 171.801 262.863C172.037 263.03 172.053 263.03 171.88 262.835C171.77 262.71 171.722 262.571 171.785 262.529C171.833 262.474 171.848 262.432 171.785 262.432C171.738 262.432 171.659 262.488 171.612 262.557Z" fill="black"/>
<path d="M184.432 262.502C184.432 262.529 184.527 262.613 184.637 262.696C184.795 262.807 184.858 262.793 184.858 262.668C184.858 262.557 184.763 262.474 184.637 262.474C184.527 262.474 184.432 262.488 184.432 262.502Z" fill="black"/>
<path d="M192.859 262.557C192.811 262.627 192.827 262.724 192.906 262.766C192.985 262.807 193.048 262.752 193.048 262.641C193.048 262.404 193 262.376 192.859 262.557Z" fill="black"/>
<path d="M196.024 262.544C195.977 262.613 196.04 262.668 196.166 262.668C196.291 262.668 196.354 262.613 196.307 262.544C196.26 262.488 196.197 262.433 196.166 262.433C196.134 262.433 196.071 262.488 196.024 262.544Z" fill="black"/>
<path d="M197.127 262.544C197.08 262.613 197.143 262.668 197.268 262.668C197.394 262.668 197.456 262.613 197.409 262.544C197.362 262.488 197.3 262.433 197.268 262.433C197.237 262.433 197.174 262.488 197.127 262.544Z" fill="black"/>
<path d="M198.686 262.557C198.639 262.627 198.655 262.724 198.733 262.766C198.812 262.807 198.875 262.752 198.875 262.641C198.875 262.404 198.828 262.376 198.686 262.557Z" fill="black"/>
<path d="M204.01 262.599C204.026 262.696 203.947 262.766 203.837 262.738C203.711 262.724 203.663 262.766 203.726 262.849C203.805 262.96 203.9 262.96 204.057 262.835C204.167 262.752 204.23 262.627 204.183 262.557C204.057 262.376 203.963 262.404 204.01 262.599Z" fill="black"/>
<path d="M123.637 262.627C123.637 262.654 123.763 262.766 123.921 262.863C124.157 263.044 124.173 263.03 123.968 262.807C123.763 262.585 123.637 262.515 123.637 262.627Z" fill="black"/>
<path d="M135.229 262.738C135.277 262.807 135.387 262.821 135.466 262.78C135.67 262.654 135.639 262.613 135.371 262.613C135.245 262.613 135.182 262.668 135.229 262.738Z" fill="black"/>
<path d="M141.12 262.627C141.12 262.654 141.246 262.766 141.403 262.863C141.64 263.044 141.655 263.03 141.451 262.807C141.246 262.585 141.12 262.515 141.12 262.627Z" fill="black"/>
<path d="M146.522 262.78C146.522 262.891 146.585 262.946 146.664 262.905C146.743 262.863 146.758 262.766 146.711 262.696C146.569 262.515 146.522 262.543 146.522 262.78Z" fill="black"/>
<path d="M175.739 262.668C175.833 262.696 175.88 262.807 175.833 262.877C175.77 262.974 175.802 262.988 175.912 262.932C176.117 262.807 175.991 262.571 175.723 262.585C175.581 262.585 175.597 262.613 175.739 262.668Z" fill="black"/>
<path d="M179.818 262.752C179.865 262.821 179.944 262.835 179.991 262.793C180.038 262.752 180.18 262.793 180.306 262.891C180.479 263.002 180.526 263.002 180.448 262.891C180.385 262.807 180.432 262.71 180.526 262.668C180.637 262.641 180.511 262.613 180.227 262.627C179.959 262.627 179.77 262.682 179.818 262.752Z" fill="black"/>
<path d="M191.756 262.724C191.693 262.807 191.677 262.891 191.725 262.932C191.756 262.974 191.835 262.905 191.882 262.78C191.992 262.543 191.898 262.502 191.756 262.724Z" fill="black"/>
<path d="M192.15 262.627C192.15 262.654 192.26 262.724 192.402 262.766C192.528 262.807 192.591 262.793 192.544 262.71C192.449 262.571 192.15 262.515 192.15 262.627Z" fill="black"/>
<path d="M199.316 262.724C199.253 262.807 199.237 262.891 199.285 262.932C199.316 262.974 199.395 262.905 199.442 262.78C199.552 262.543 199.458 262.502 199.316 262.724Z" fill="black"/>
<path d="M139.797 262.877C139.844 262.946 139.954 262.96 140.033 262.919C140.238 262.793 140.206 262.752 139.939 262.752C139.813 262.752 139.75 262.807 139.797 262.877Z" fill="black"/>
<path d="M156.634 262.835C156.587 262.905 156.602 263.002 156.681 263.044C156.76 263.085 156.823 263.03 156.823 262.919C156.823 262.682 156.776 262.654 156.634 262.835Z" fill="black"/>
<path d="M158.902 262.932C158.791 263.044 158.791 263.127 158.917 263.197C159.012 263.252 159.059 263.21 159.043 263.113C159.012 263.016 159.075 262.932 159.185 262.919C159.453 262.919 159.579 262.752 159.311 262.752C159.185 262.752 158.996 262.835 158.902 262.932Z" fill="black"/>
<path d="M135.607 263.002C135.607 263.071 135.686 263.099 135.765 263.058C135.859 263.016 135.922 262.946 135.922 262.905C135.922 262.877 135.859 262.849 135.765 262.849C135.686 262.849 135.607 262.919 135.607 263.002Z" fill="black"/>
<path d="M156.035 263.002C156.145 263.099 156.271 263.141 156.319 263.099C156.366 263.058 156.287 262.974 156.13 262.932C155.909 262.849 155.893 262.863 156.035 263.002Z" fill="black"/>
<path d="M127.811 263.252C127.764 263.322 127.78 263.419 127.858 263.461C127.937 263.502 128 263.447 128 263.336C128 263.099 127.953 263.071 127.811 263.252Z" fill="black"/>
<path d="M177.991 263.641C178.243 264.017 178.4 264.044 178.4 263.753C178.4 263.641 178.353 263.572 178.321 263.614C178.274 263.655 178.132 263.6 178.006 263.502C177.802 263.349 177.786 263.377 177.991 263.641Z" fill="black"/>
<path d="M177.739 263.947C177.691 264.017 177.707 264.114 177.786 264.156C177.865 264.197 177.928 264.142 177.928 264.031C177.928 263.794 177.88 263.766 177.739 263.947Z" fill="black"/>
</svg>
