<?xml version="1.0" encoding="utf-8"?>
<!-- Generator: Adobe Illustrator 23.0.2, SVG Export Plug-In . SVG Version: 6.00 Build 0)  -->
<svg version="1.1" id="Layer_1" xmlns="http://www.w3.org/2000/svg" xmlns:xlink="http://www.w3.org/1999/xlink" x="0px" y="0px"
	 viewBox="0 0 60 60" style="enable-background:new 0 0 60 60;" xml:space="preserve">
<style type="text/css">
	.st0{fill:#44C2C7;}
</style>
<g>
	<path class="st0" d="M30.2,25.5c0.3,0,0.7,0,1,0.1c-0.1-1.5-0.1-2.9-0.1-4.1C31.1,6.7,41,4,41.4,3.9c1.1-0.3,1.7-1.3,1.5-2.4
		c-0.3-1.1-1.3-1.7-2.4-1.5c-0.1,0-3.5,0.9-6.8,4c-3,2.8-6.5,8.1-6.5,17.5c0,1.1,0,2.4,0.1,3.8C28.3,25.4,29.3,25.4,30.2,25.5"/>
	<path class="st0" d="M29.8,33.4c-0.7,0-1.4-0.1-2.1-0.1c0,0.3,0,0.6,0,0.8c0,8.1-0.7,14.8-9.9,22.5c-0.8,0.7-1,2-0.3,2.8
		c0.4,0.5,1,0.7,1.5,0.7c0.4,0,0.9-0.2,1.3-0.5c10.4-8.7,11.3-17,11.3-25.5c0-0.1,0-0.3,0-0.5C31.1,33.5,30.4,33.5,29.8,33.4"/>
	<path class="st0" d="M2,42.9c-0.2,0-0.3,0-0.5-0.1c-1.1-0.3-1.7-1.3-1.5-2.4c0-0.1,0.9-3.5,4-6.8c2.8-3,8.1-6.5,17.5-6.5
		c2.3,0,5.8,0.2,8.6,0.4c1.8,0.1,3.3,0.2,3.9,0.2c8.1,0,14.8-0.7,22.5-9.9c0.7-0.8,2-1,2.8-0.3c0.8,0.7,1,2,0.3,2.8
		c-8.7,10.4-17,11.3-25.5,11.3c-0.7,0-2.2-0.1-4.2-0.2c-2.8-0.2-6.2-0.4-8.4-0.4C6.7,31.1,4,41,3.9,41.4C3.7,42.3,2.9,42.9,2,42.9"
		/>
	<rect x="12.1" y="31.8" transform="matrix(0.7071 -0.7071 0.7071 0.7071 -27.4889 23.0929)" class="st0" width="4" height="25.9"/>
	<rect x="19.8" y="27" transform="matrix(0.7071 -0.7071 0.7071 0.7071 -19.6366 26.1394)" class="st0" width="4" height="19.6"/>
	<rect x="42.7" y="0.9" transform="matrix(0.7071 -0.7071 0.7071 0.7071 3.2673 35.6263)" class="st0" width="4" height="25.9"/>
	<rect x="35.1" y="12" transform="matrix(0.7071 -0.7071 0.7071 0.7071 -4.5851 32.58)" class="st0" width="4" height="19.6"/>
</g>
</svg>
