<svg width="390" height="303" viewBox="0 0 390 303" fill="none" xmlns="http://www.w3.org/2000/svg">
<path d="M90.63 121.348L89.5488 116.485C89.202 114.979 88.6308 113.956 87.7944 113.455C87.0804 113.049 86.0808 112.972 84.816 113.242L80.9808 114.014L83.8572 126.926L87.6924 126.154C88.9776 125.903 89.8548 125.459 90.324 124.822C90.8748 124.05 90.9768 122.892 90.63 121.348ZM90.63 121.348L89.5488 116.485C89.202 114.979 88.6308 113.956 87.7944 113.455C87.0804 113.049 86.0808 112.972 84.816 113.242L80.9808 114.014L83.8572 126.926L87.6924 126.154C88.9776 125.903 89.8548 125.459 90.324 124.822C90.8748 124.05 90.9768 122.892 90.63 121.348ZM90.63 121.348L89.5488 116.485C89.202 114.979 88.6308 113.956 87.7944 113.455C87.0804 113.049 86.0808 112.972 84.816 113.242L80.9808 114.014L83.8572 126.926L87.6924 126.154C88.9776 125.903 89.8548 125.459 90.324 124.822C90.8748 124.05 90.9768 122.892 90.63 121.348ZM90.63 121.348L89.5488 116.485C89.202 114.979 88.6308 113.956 87.7944 113.455C87.0804 113.049 86.0808 112.972 84.816 113.242L80.9808 114.014L83.8572 126.926L87.6924 126.154C88.9776 125.903 89.8548 125.459 90.324 124.822C90.8748 124.05 90.9768 122.892 90.63 121.348ZM90.63 121.348L89.5488 116.485C89.202 114.979 88.6308 113.956 87.7944 113.455C87.0804 113.049 86.0808 112.972 84.816 113.242L80.9808 114.014L83.8572 126.926L87.6924 126.154C88.9776 125.903 89.8548 125.459 90.324 124.822C90.8748 124.05 90.9768 122.892 90.63 121.348ZM193.201 100.89L192.12 96.0268C191.773 94.5214 191.202 93.4985 190.366 92.9774C189.652 92.5721 188.652 92.5142 187.387 92.7651L183.552 93.5371L186.428 106.449L190.264 105.677C191.549 105.426 192.426 104.982 192.895 104.345C193.446 103.612 193.548 102.454 193.201 100.89ZM193.201 100.89L192.12 96.0268C191.773 94.5214 191.202 93.4985 190.366 92.9774C189.652 92.5721 188.652 92.5142 187.387 92.7651L183.552 93.5371L186.428 106.449L190.264 105.677C191.549 105.426 192.426 104.982 192.895 104.345C193.446 103.612 193.548 102.454 193.201 100.89ZM90.63 121.348L89.5488 116.485C89.202 114.979 88.6308 113.956 87.7944 113.455C87.0804 113.049 86.0808 112.972 84.816 113.242L80.9808 114.014L83.8572 126.926L87.6924 126.154C88.9776 125.903 89.8548 125.459 90.324 124.822C90.8748 124.05 90.9768 122.892 90.63 121.348ZM222.047 137.271L227.473 128.991L219.232 123.645L224.495 115.616L216.886 110.695L222.373 102.319L213.071 96.297L218.783 87.5734L210.378 82.1308L215.968 73.6195L207.706 68.2734L212.663 60.7078L54.3996 92.2247C55.0728 95.2741 52.5228 98.3621 48.6672 99.1341L49.4628 102.743C50.6052 102.512 51.7068 103.071 51.9108 103.978C52.1148 104.885 51.36 105.812 50.1972 106.043L50.8296 108.938C51.972 108.707 53.0736 109.267 53.2776 110.174C53.4816 111.081 52.7064 112.007 51.564 112.239L52.1964 115.134C53.3388 114.902 54.4404 115.462 54.6444 116.369C54.8484 117.276 54.0732 118.222 52.9308 118.434L53.5632 121.31C54.7056 121.078 55.8072 121.638 56.0112 122.545C56.2152 123.452 55.44 124.378 54.2976 124.61L55.3992 129.551C59.2548 128.779 62.9472 130.651 63.6204 133.7C64.2936 136.75 61.7232 139.857 57.8676 140.629L58.7856 144.721C59.928 144.489 61.0296 145.049 61.2336 145.956C61.4376 146.863 60.6624 147.789 59.52 148.021L60.1524 150.916C61.2948 150.684 62.3964 151.244 62.6004 152.151C62.8044 153.058 62.0292 154.004 60.8868 154.216L61.5192 157.111C62.6616 156.88 63.7632 157.439 63.9672 158.346C64.1712 159.254 63.396 160.18 62.2536 160.412L62.886 163.307C64.0284 163.075 65.13 163.635 65.334 164.542C65.538 165.449 64.7628 166.395 63.6204 166.607L64.62 171.065C68.4552 170.293 72.1272 172.146 72.8004 175.195L231.614 143.543L231.635 143.524L222.047 137.271ZM96.8316 150.8L88.8756 133.353L85.428 134.028L89.4876 152.248L81.9396 153.753L71.8416 108.34L83.2248 106.063C86.4684 105.426 89.3244 105.793 91.7928 107.201C94.5264 108.726 96.2808 111.312 97.0968 114.96L98.178 119.824C98.994 123.51 98.484 126.559 96.648 129.01C96.3828 129.396 96.0768 129.744 95.73 130.072L104.522 149.256L96.8316 150.8ZM109.174 148.33L99.0552 102.917L118.945 98.9604L120.536 106.101L108.194 108.552L110.744 119.978L119.251 118.28L120.842 125.421L112.336 127.119L115.13 139.703L127.472 137.252L129.064 144.393L109.174 148.33ZM132.695 143.64L136.673 102.955L124.188 105.445L122.576 98.2463L145.404 93.6915L141.426 134.376L153.911 131.886L155.522 139.085L132.695 143.64ZM159.97 138.217L149.851 92.8037L169.741 88.8472L171.332 95.9882L158.99 98.4393L161.54 109.865L170.047 108.166L171.638 115.307L163.132 117.006L165.926 129.589L178.268 127.138L179.86 134.279L159.97 138.217ZM199.403 130.342L191.447 112.895L188.02 113.57L192.079 131.809L184.531 133.314L174.413 87.9015L185.796 85.6241C189.04 84.9872 191.896 85.3539 194.364 86.7628C197.098 88.2875 198.852 90.8737 199.668 94.5214L200.749 99.385C201.565 103.052 201.055 106.121 199.219 108.572C198.954 108.958 198.648 109.305 198.301 109.633L207.073 128.817L199.403 130.342ZM192.12 96.0268C191.773 94.5214 191.202 93.4985 190.366 92.9774C189.652 92.5721 188.652 92.5142 187.387 92.7651L183.552 93.5371L186.428 106.449L190.264 105.677C191.549 105.426 192.426 104.982 192.895 104.345C193.446 103.612 193.548 102.454 193.201 100.89L192.12 96.0268ZM89.5488 116.485C89.202 114.979 88.6308 113.956 87.7944 113.455C87.0804 113.049 86.0808 112.972 84.816 113.242L80.9808 114.014L83.8572 126.926L87.6924 126.154C88.9776 125.903 89.8548 125.459 90.324 124.822C90.8748 124.089 90.9768 122.931 90.63 121.368L89.5488 116.485ZM90.63 121.348L89.5488 116.485C89.202 114.979 88.6308 113.956 87.7944 113.455C87.0804 113.049 86.0808 112.972 84.816 113.242L80.9808 114.014L83.8572 126.926L87.6924 126.154C88.9776 125.903 89.8548 125.459 90.324 124.822C90.8748 124.05 90.9768 122.892 90.63 121.348ZM193.201 100.89L192.12 96.0268C191.773 94.5214 191.202 93.4985 190.366 92.9774C189.652 92.5721 188.652 92.5142 187.387 92.7651L183.552 93.5371L186.428 106.449L190.264 105.677C191.549 105.426 192.426 104.982 192.895 104.345C193.446 103.612 193.548 102.454 193.201 100.89ZM193.201 100.89L192.12 96.0268C191.773 94.5214 191.202 93.4985 190.366 92.9774C189.652 92.5721 188.652 92.5142 187.387 92.7651L183.552 93.5371L186.428 106.449L190.264 105.677C191.549 105.426 192.426 104.982 192.895 104.345C193.446 103.612 193.548 102.454 193.201 100.89ZM90.63 121.348L89.5488 116.485C89.202 114.979 88.6308 113.956 87.7944 113.455C87.0804 113.049 86.0808 112.972 84.816 113.242L80.9808 114.014L83.8572 126.926L87.6924 126.154C88.9776 125.903 89.8548 125.459 90.324 124.822C90.8748 124.05 90.9768 122.892 90.63 121.348ZM90.63 121.348L89.5488 116.485C89.202 114.979 88.6308 113.956 87.7944 113.455C87.0804 113.049 86.0808 112.972 84.816 113.242L80.9808 114.014L83.8572 126.926L87.6924 126.154C88.9776 125.903 89.8548 125.459 90.324 124.822C90.8748 124.05 90.9768 122.892 90.63 121.348ZM90.63 121.348L89.5488 116.485C89.202 114.979 88.6308 113.956 87.7944 113.455C87.0804 113.049 86.0808 112.972 84.816 113.242L80.9808 114.014L83.8572 126.926L87.6924 126.154C88.9776 125.903 89.8548 125.459 90.324 124.822C90.8748 124.05 90.9768 122.892 90.63 121.348Z" fill="#FC9C09"/>
<path d="M323.251 73.137L317.927 49.205C317.539 47.468 315.193 46.4644 313.439 46.8311L299.71 49.5717C296.18 49.9577 292.855 47.661 292.223 44.8432L220.7 59.0866L215.743 66.6522L224.005 71.9983L218.416 80.5289L226.82 85.9715L221.108 94.6951L230.411 100.717L224.923 109.093L232.532 114.014L227.269 122.043L235.511 127.389L230.084 135.669L239.713 141.903L239.693 141.922C239.693 141.922 285.715 132.793 307.156 128.547C312.949 127.409 316.662 122.024 315.458 116.543C315.458 116.504 315.438 116.465 315.438 116.427C315.275 116.465 315.091 116.485 314.908 116.485C313.969 116.485 313.153 115.964 312.97 115.192C312.766 114.285 313.541 113.358 314.683 113.127L314.03 110.232C312.868 110.463 311.786 109.903 311.582 108.996C311.378 108.089 312.154 107.163 313.296 106.931L312.643 104.036C311.48 104.268 310.399 103.708 310.195 102.801C309.991 101.894 310.766 100.968 311.909 100.736L311.256 97.8603C310.093 98.0919 309.012 97.5322 308.808 96.6251C308.604 95.718 309.379 94.7916 310.522 94.56L310.216 93.1897C309.889 91.8001 308.665 90.7772 307.176 90.6421C301.933 90.1403 300.75 83.4239 298.69 74.1213C296.915 66.1697 295.058 57.504 301.954 56.0179L308.584 54.7248C310.318 54.3967 311.909 54.9178 312.296 56.6548L316.274 74.5459C316.397 75.1249 316.703 75.6653 317.131 76.1092C319.436 78.4445 323.965 76.3022 323.251 73.137ZM264.438 115.153C262.826 117.334 260.358 118.743 257.074 119.399C253.871 120.036 251.015 119.689 248.526 118.318C245.752 116.62 243.977 114.014 243.202 110.502L237.836 86.3768C237.061 82.8642 237.571 79.8148 239.366 77.19C241.08 75.0091 243.528 73.5809 246.731 72.944C250.015 72.2878 252.871 72.6545 255.278 74.0248C258.032 75.646 259.807 78.2515 260.603 81.8413L261.5 85.8557L253.952 87.3611L253.055 83.3467C252.708 81.7448 252.137 80.7219 251.382 80.2973C250.668 79.892 249.648 79.8341 248.322 80.085C247.037 80.3359 246.16 80.7798 245.69 81.4167C245.14 82.1694 245.038 83.3081 245.384 84.8714L250.75 108.996C251.096 110.56 251.688 111.563 252.504 112.026C253.218 112.432 254.218 112.509 255.482 112.239C256.808 111.988 257.706 111.525 258.196 110.888C258.706 110.193 258.787 109.054 258.44 107.452L256.543 98.9604L252.769 99.7131L251.178 92.5721L262.5 90.314L265.988 105.947C266.784 109.575 266.274 112.625 264.438 115.153ZM291.652 109.73C290.04 111.911 287.572 113.32 284.287 113.976C281.003 114.632 278.147 114.265 275.74 112.895C272.986 111.274 271.211 108.668 270.415 105.078L265.05 80.9535C264.254 77.3637 264.764 74.3143 266.58 71.7667C268.192 69.5858 270.66 68.1769 273.944 67.5207C277.229 66.8645 280.085 67.2312 282.492 68.6015C285.246 70.2227 287.021 72.8282 287.816 76.418L293.182 100.543C293.998 104.152 293.488 107.201 291.652 109.73ZM280.289 77.9234C279.942 76.3215 279.35 75.3179 278.534 74.874C277.882 74.4687 276.882 74.3915 275.556 74.6617C274.271 74.9126 273.394 75.3565 272.924 75.9934C272.374 76.7268 272.272 77.8848 272.618 79.4481L277.984 103.573C278.33 105.136 278.922 106.14 279.738 106.622C280.452 107.028 281.452 107.086 282.716 106.835C284.042 106.565 284.92 106.121 285.348 105.503C285.919 104.808 286.021 103.65 285.654 102.048L280.289 77.9234Z" fill="#2F2E41"/>
</svg>
