<?xml version="1.0" encoding="utf-8"?>
<!-- Generator: Adobe Illustrator 23.0.2, SVG Export Plug-In . SVG Version: 6.00 Build 0)  -->
<svg version="1.1" id="Layer_1" xmlns="http://www.w3.org/2000/svg" xmlns:xlink="http://www.w3.org/1999/xlink" x="0px" y="0px"
	 viewBox="0 0 60 60" style="enable-background:new 0 0 60 60;" xml:space="preserve">
<style type="text/css">
	.st0{fill:#44C2C7;}
</style>
<ellipse transform="matrix(1 -4.117651e-03 4.117651e-03 1 -0.1274 0.1737)" class="st0" cx="42.1" cy="31" rx="11.2" ry="11.2"/>
<path class="st0" d="M16.5,16.4c0,2.8-2.3,5.1-5.1,5.1c-2.8,0-5.1-2.3-5.1-5.1c0-2.8,2.3-5.1,5.1-5.1C14.2,11.2,16.5,13.5,16.5,16.4
	z"/>
<path class="st0" d="M10.5,23.3c0,0,1.7,0.2,3.3-0.6c1.7-0.8,2.9-1.8,2.9-1.8s1.5,5.5,4.2,9.2c2.7,3.7,5.6,8,9,9.5
	c0,0,2,2.8,4.8,4.5c5.3,3.7,13,2.3,13,2.3c3.5,2.3,8.2,11.8,8.2,11.8S51.2,60,39.6,60S25,58.3,25,58.3l0-6.5
	c-6.2-5.4-8.3-8.9-10.6-13.4C12.1,34,10.5,23.3,10.5,23.3z"/>
<path class="st0" d="M11.5,18.4c-4.1,0-7.4-3.3-7.4-7.4s3.3-7.4,7.4-7.4c4.1,0,7.4,3.3,7.4,7.4S15.6,18.4,11.5,18.4z M11.5,5
	c-3.3,0-5.9,2.6-5.9,5.9s2.6,5.9,5.9,5.9c3.3,0,5.9-2.6,5.9-5.9S14.7,5,11.5,5z"/>
<rect x="10.6" y="0" class="st0" width="1.7" height="4.2"/>
</svg>
