<?xml version="1.0" encoding="utf-8"?>
<!-- Generator: Adobe Illustrator 23.0.2, SVG Export Plug-In . SVG Version: 6.00 Build 0)  -->
<svg version="1.1" id="Layer_1" xmlns="http://www.w3.org/2000/svg" xmlns:xlink="http://www.w3.org/1999/xlink" x="0px" y="0px"
	 viewBox="0 0 60 60" style="enable-background:new 0 0 60 60;" xml:space="preserve">
<style type="text/css">
	.st0{fill:#42C1C7;}
</style>
<g>
	<path class="st0" d="M0,24.3c0-1.2,0-2.4,0-3.6c0.3-0.1,0.7-0.5,1,0c0,0,0.3,0,0.4-0.1C1.7,20.4,2,20.3,2.2,20c1.1-1.2,2.4-1.9,4-2
		c1.9-0.1,3.6-0.8,5.3-1.7c1.1-0.6,1.9-1.4,1.7-2.8c0-0.3,0-0.5,0.1-0.8c0.2-0.5,0.5-0.6,0.9-0.1c0.2,0.2,0.3,0.5,0.6,0.4
		c0.3-0.1,0.2-0.4,0.3-0.7c0-0.1,0-0.2,0-0.3c0-0.4,0.2-0.6,0.6-0.4c0.4,0.2,0.6,0.2,0.7-0.3c0.1-0.9,0.9-1.4,1.1-2.2
		c0,0,0.1-0.1,0.1-0.1c0.7-0.2,1.3-0.6,1.9-0.9c0.9-0.4,1.7,0,2.1,1.2c0.1,0.4,0.3,0.6,0.7,0.3c0.3-0.2,0.6-0.2,0.9-0.1
		c0.2,0.1,0.3,0.3,0.5,0.1C24,9.5,24,9.3,24,9c-0.1-0.5,0.1-0.9,0.3-1.3c0.2-0.3,0.4-0.5,0.4-0.9c0.1-0.5,0.4-0.7,0.8-0.9
		c0.6-0.2,1.2-0.4,1.8-0.4c0.3,0,0.7-0.1,1-0.2c0.3-0.1,0.3-0.3,0.1-0.5c-0.2-0.2-0.5-0.3-0.5-0.7c0.1,0,0.2,0,0.2,0
		c0.1,0,0.2,0.1,0.4,0.2c1.7,0.7,3.3,1.7,5.3,0.8c0.3-0.2,1,0.3,1.2,0.7c0.2,0.5-0.2,0.8-0.6,0.9c-0.5,0.2-0.7,0.5-0.7,1
		c-0.1,0.5-0.2,1-0.3,1.4c-0.2,0.5,0,0.9,0.6,0.9c0.3,0,0.5,0.2,0.6,0.5c0.1,0.6,0.5,0.8,1,0.9c0.5,0.2,1,0.4,1.5,0.6
		c0.9,0.3,1.7,0.7,2.4,1.4c0.6,0.7,1.4,0.6,2-0.1c0.5-0.6,0.6-1.3,0.8-2c0.5-1.7,0.4-3.5,0.3-5.3c-0.1-1.1,0.6-1.7,1-2.5
		c0.2-0.3,0.4-0.4,0.5,0.1c0.2,0.8,0.5,1.5,0.8,2.2c0.2,0.4,0.3,0.8,0.3,1.2c0.1,1.4,0.1,1.5,1.4,1.8c0.8,0.2,1.2,0.7,1.3,1.5
		c0.2,1.1,0.6,2.2,0.9,3.3c0.6,1.9,1.6,3.2,3.5,3.9c0.9,0.3,1.4,1.2,1.6,2.2c0.2,1.1,0.3,1.2,1.4,1.4c0.4,0.1,0.5,0.2,0.6,0.5
		c0.2,1,0.8,1.7,1.5,2.3c0.5,0.4,1,0.7,1.3,1.2c0.6,1.1,0.9,2.2,1.2,3.4c0,0.1,0,0.3,0.2,0.3c0,1.2,0,2.3,0,3.5
		c-0.4,0.6-0.8,1.3-0.8,2.1c0,1.2-0.3,2.2-1.1,3c-1.6,1.8-2.3,4.1-3,6.3c0,0.1-0.1,0.2-0.1,0.3c0,1.1-0.7,1.7-1.6,2.1
		c-0.7,0.2-1.4,0.4-2.1,0.7c-0.6,0.2-1.2,0.6-1.5,1.3c-0.1,0.3-0.3,0.3-0.5,0.2c-0.6-0.3-1.2-0.6-1.7-1c-0.7-0.5-0.8-0.5-1.4,0.2
		c-0.3,0.4-0.7,0.5-1.2,0.5c-1.6-0.1-3-0.5-4.2-1.5c-0.7-0.5-1.1-1.2-1.2-2.1c0-0.4-0.2-0.7-0.3-1.1c-0.3-0.7-0.5-1.4-1.5-0.9
		c-0.3,0.2-0.5-0.1-0.4-0.5c0.2-0.4,0.2-0.8,0-1.2c-0.1-0.2-0.3-0.4-0.5,0c-0.2,0.4-0.5,0.8-0.9,1.1c-0.3,0.2-0.6,0.2-0.8-0.1
		c-0.2-0.3,0.1-0.4,0.3-0.5c0.7-0.6,1.3-2.5,0.9-3.3c-0.2,0.1-0.4,0.4-0.5,0.6c-0.4,0.6-0.9,1.2-1.3,1.8c-0.2,0.3-0.5,0.6-0.9,0.8
		c-0.5,0.2-0.8,0.1-0.9-0.4c0-0.2,0-0.3-0.1-0.4c-0.6-0.7-1-1.6-1.4-2.4c-0.4-0.7-0.9-1.2-1.6-1.4c-1.1-0.4-2.2-0.6-3.3-0.7
		c-1.4-0.2-2.6,0-3.8,0.8c-0.5,0.4-1.2,0.5-1.8,0.6c-1.1,0.2-2.3,0.2-3.4,0.5c-0.7,0.2-1.4,0.5-1.7,1.2c-0.2,0.6-0.6,0.7-1.1,0.8
		c-0.9,0.1-1.9,0.2-2.8,0.1c-1.2-0.1-2.3,0.4-3.3,1c-2,1.2-3.4,1.1-5.5-0.4c-0.6-0.4-0.7-0.8-0.2-1.4c1.1-1.1,1-2.2,0.4-3.4
		c-0.5-1-0.8-2.1-1.1-3.2c-0.3-1.1-0.6-2.1-1-3.2c-0.2-0.6-0.6-1-1.1-1.3c0-0.4,0-0.8,0-1.2c0.3-0.1,0.5,0.1,0.8,0.3
		C0.8,26.1,0.4,25.2,0,24.3z"/>
	<path class="st0" d="M47.6,51.4c0.2,0,0.6,0,0.9,0.1c0.9,0.3,1.8,0.2,2.6-0.1c0.4-0.2,0.6-0.1,0.9,0.3c0.4,0.7,0.4,1.3,0.1,2
		c-0.3,0.9-0.7,1.8-1.4,2.5c-0.6,0.6-1.1,0.7-1.7,0.1c-1.3-1.1-2-2.7-2.4-4.3C46.5,51.6,46.8,51.4,47.6,51.4z"/>
</g>
</svg>
