<svg width="216" height="215" viewBox="0 0 216 215" fill="none" xmlns="http://www.w3.org/2000/svg">
<g filter="url(#filter0_d_360_1412)">
<ellipse cx="108" cy="103.244" rx="104" ry="103.244" fill="white"/>
<path d="M211.5 103.244C211.5 159.984 165.165 205.987 108 205.987C50.8351 205.987 4.5 159.984 4.5 103.244C4.5 46.5033 50.8351 0.5 108 0.5C165.165 0.5 211.5 46.5033 211.5 103.244Z" stroke="url(#paint0_linear_360_1412)"/>
</g>
<g clip-path="url(#clip0_360_1412)">
<path d="M79.6141 38.5801C77.6992 39.6635 77.5732 40.0919 77.4977 46.8694L77.4221 52.8407L71.3248 52.9163C65.4795 52.9919 65.2023 53.017 64.4465 53.5462C62.7332 54.7807 62.834 52.4879 62.834 87.2071V118.6L58.702 118.676C54.1668 118.752 53.8645 118.852 52.6551 120.49C52.126 121.17 52.126 121.448 52.126 134.751C52.126 148.054 52.126 148.331 52.6551 149.011C52.9322 149.389 53.4865 149.943 53.8645 150.221C54.5447 150.75 54.7463 150.75 79.4881 150.825C93.1943 150.85 104.406 150.85 104.406 150.8C104.406 150.75 104.104 149.994 103.751 149.087C103.373 148.205 102.769 146.441 102.391 145.207L101.71 142.939L80.8738 142.864L60.0625 142.813V134.751V126.688H80.3447C96.3689 126.688 100.652 126.613 100.728 126.361C100.778 126.209 101.055 124.748 101.358 123.161C102.214 118.626 103.524 115.098 106.371 109.48C106.422 109.379 104.658 109.303 102.466 109.303C98.8129 109.303 98.3594 109.253 97.3516 108.724C95.6887 107.892 95.0084 106.759 95.1344 104.995C95.2604 103.357 95.9406 102.249 97.2004 101.644C97.9311 101.291 99.1404 101.241 105.263 101.241H112.469V97.2096V93.1784H105.464C98.7121 93.1784 98.435 93.1532 97.3516 92.5989C95.6887 91.7674 95.0084 90.6337 95.1344 88.87C95.2604 87.2323 95.9406 86.1237 97.2004 85.519C97.9311 85.1663 99.1404 85.1159 105.263 85.1159H112.469V81.0846V77.0534H105.464C98.7121 77.0534 98.435 77.0282 97.3516 76.4739C95.6887 75.6424 95.0084 74.5087 95.1344 72.745C95.2604 71.1073 95.9406 69.9987 97.2004 69.394C97.9311 69.0413 99.1404 68.9909 105.263 68.9909H112.469V64.9596V60.9284H105.464C98.7121 60.9284 98.435 60.9032 97.3516 60.3489C95.6887 59.5174 95.0084 58.3837 95.1344 56.62C95.2604 54.9823 95.9406 53.8737 97.2004 53.269C97.9311 52.9163 99.1404 52.8659 105.288 52.8659H112.494L112.418 46.7182C112.343 39.9407 112.343 39.9407 110.604 38.6557C109.924 38.1266 109.622 38.1266 95.2604 38.0762L80.5967 38.0006L79.6141 38.5801ZM77.4473 64.9596V68.9909H74.1719H70.8965V64.9596V60.9284H74.1719H77.4473V64.9596ZM77.4473 81.0846V85.1159H74.1719H70.8965V81.0846V77.0534H74.1719H77.4473V81.0846ZM77.4473 97.2096V101.241H74.1719H70.8965V97.2096V93.1784H74.1719H77.4473V97.2096ZM77.4473 113.965V118.626H74.1719H70.8965V113.965V109.303H74.1719H77.4473V113.965Z" fill="#2F2E41"/>
<path d="M140.436 97.5619C125.142 100.283 113.603 112.175 111.436 127.418C111.058 130.089 111.259 136.514 111.814 139.033C113.275 145.71 116.324 151.429 121.06 156.292C126.125 161.508 131.92 164.707 139.125 166.295C142.779 167.101 149.38 167.101 153.008 166.295C160.189 164.682 165.656 161.709 170.695 156.695C175.709 151.656 178.682 146.189 180.295 139.008C181.101 135.38 181.101 128.779 180.295 125.126C179.211 120.137 177.17 115.526 174.273 111.545C172.484 109.051 168.125 104.793 165.681 103.18C161.952 100.686 157.594 98.8217 153.159 97.8391C150.715 97.2848 142.955 97.1084 140.436 97.5619ZM148.196 113.712C149.38 114.216 150.161 114.972 150.841 116.232C151.345 117.139 151.396 117.693 151.471 121.951L151.572 126.688H155.855C160.894 126.688 161.826 126.889 163.263 128.325C165.732 130.795 165.203 134.901 162.154 136.69C160.995 137.371 160.894 137.396 156.258 137.471L151.572 137.572L151.471 142.258C151.396 146.894 151.37 146.995 150.69 148.154C148.901 151.203 144.794 151.732 142.325 149.263C140.889 147.827 140.688 146.894 140.688 141.855V137.572L135.976 137.471C131.693 137.396 131.139 137.345 130.231 136.841C128.291 135.808 127.334 134.196 127.334 131.979C127.334 129.862 128.669 127.922 130.66 127.091C131.39 126.763 132.6 126.688 136.152 126.688H140.688V122.077C140.688 118.146 140.763 117.34 141.166 116.484C141.67 115.375 142.653 114.367 143.837 113.762C144.82 113.233 146.986 113.233 148.196 113.712Z" fill="#2F2E41"/>
<path d="M131.38 100.008C124.844 102.932 115.9 112.392 113.492 118.756C110.912 125.636 111.084 139.74 114.008 146.276C116.932 152.984 126.22 162.1 132.756 164.508C139.636 167.088 153.74 166.916 160.276 163.992C166.984 161.068 176.1 151.78 178.508 145.244C179.54 142.492 180.4 136.644 180.4 132C180.4 127.356 179.54 121.508 178.508 118.756C176.1 112.22 166.984 102.932 160.276 100.008C153.224 96.9122 138.088 97.0842 131.38 100.008ZM149.44 120.82V128.56H157.18C163.716 128.56 164.92 129.076 164.92 132C164.92 134.924 163.716 135.44 157.18 135.44H149.44V143.18C149.44 149.716 148.924 150.92 146 150.92C143.076 150.92 142.56 149.716 142.56 143.18V135.44H134.82C128.284 135.44 127.08 134.924 127.08 132C127.08 129.076 128.284 128.56 134.82 128.56H142.56V120.82C142.56 114.284 143.076 113.08 146 113.08C148.924 113.08 149.44 114.284 149.44 120.82Z" fill="#FC9C09"/>
</g>
<defs>
<filter id="filter0_d_360_1412" x="0" y="0" width="216" height="214.487" filterUnits="userSpaceOnUse" color-interpolation-filters="sRGB">
<feFlood flood-opacity="0" result="BackgroundImageFix"/>
<feColorMatrix in="SourceAlpha" type="matrix" values="0 0 0 0 0 0 0 0 0 0 0 0 0 0 0 0 0 0 127 0" result="hardAlpha"/>
<feOffset dy="4"/>
<feGaussianBlur stdDeviation="2"/>
<feComposite in2="hardAlpha" operator="out"/>
<feColorMatrix type="matrix" values="0 0 0 0 0 0 0 0 0 0 0 0 0 0 0 0 0 0 0.25 0"/>
<feBlend mode="normal" in2="BackgroundImageFix" result="effect1_dropShadow_360_1412"/>
<feBlend mode="normal" in="SourceGraphic" in2="effect1_dropShadow_360_1412" result="shape"/>
</filter>
<linearGradient id="paint0_linear_360_1412" x1="108" y1="0" x2="108" y2="206.487" gradientUnits="userSpaceOnUse">
<stop offset="1" stop-color="#FFE600"/>
<stop offset="1" stop-color="#2F2E41"/>
</linearGradient>
<clipPath id="clip0_360_1412">
<rect width="129" height="129" fill="white" transform="translate(52 38)"/>
</clipPath>
</defs>
</svg>
