<svg width="216" height="215" viewBox="0 0 216 215" fill="none" xmlns="http://www.w3.org/2000/svg">
<g filter="url(#filter0_d_345_1386)">
<ellipse cx="108" cy="103.244" rx="104" ry="103.244" fill="white"/>
<path d="M211.5 103.244C211.5 159.984 165.165 205.987 108 205.987C50.8351 205.987 4.5 159.984 4.5 103.244C4.5 46.5033 50.8351 0.5 108 0.5C165.165 0.5 211.5 46.5033 211.5 103.244Z" stroke="url(#paint0_linear_345_1386)"/>
</g>
<path d="M47.707 106V173H55.0898H62.4727V106V39H55.0898H47.707V106Z" fill="#2F2E41"/>
<path d="M69.8555 106V173H85.8516H101.848V106V39H85.8516H69.8555V106ZM89.543 64.125V70.668H85.8516H82.1602V64.125V57.582H85.8516H89.543V64.125ZM89.543 85.0625V91.6055H85.8516H82.1602V85.0625V78.5195H85.8516H89.543V85.0625ZM89.543 106V112.543H85.8516H82.1602V106V99.457H85.8516H89.543V106ZM89.543 126.938V133.48H85.8516H82.1602V126.938V120.395H85.8516H89.543V126.938ZM89.543 147.875V154.418H85.8516H82.1602V147.875V141.332H85.8516H89.543V147.875Z" fill="#2F2E41"/>
<path d="M109.23 106V173H138.762H168.293V106V39H138.762H109.23V106ZM142.65 64.1773L142.699 70.668H139.008H135.316V64.125V57.5559L138.959 57.6344L142.576 57.7129L142.65 64.1773ZM147.375 82.8379C151.682 84.2512 155.078 88.0984 156.111 92.6785C156.407 94.0656 156.48 96.7613 156.48 108.146V121.965H153.158H149.836V125.891V129.816H146.145H142.453V125.891V121.965H138.762H135.07V125.891V129.816H131.379H127.688V125.891V121.965H124.365H121.043V108.146C121.043 92.9926 121.092 92.3906 122.52 89.5379C124.488 85.6383 127.958 83.0473 131.994 82.4453C132.806 82.3145 136.301 82.2621 139.746 82.2883C144.84 82.3668 146.268 82.4715 147.375 82.8379ZM142.207 147.875V154.444L138.589 154.366L134.947 154.287L134.873 147.796L134.824 141.332H138.516H142.207V147.875Z" fill="#2F2E41"/>
<path d="M132.289 90.4016C129.878 91.1082 128.45 93.359 128.426 96.4996V98.4102H138.762H149.098V96.4996C149.098 94.1965 148.581 92.8879 147.203 91.5793C146.514 90.925 145.8 90.5324 144.939 90.323C143.142 89.9043 133.791 89.9828 132.289 90.4016Z" fill="#2F2E41"/>
<path d="M128.426 110.188V114.113H138.762H149.098V110.188V106.262H138.762H128.426V110.188Z" fill="#2F2E41"/>
<defs>
<filter id="filter0_d_345_1386" x="0" y="0" width="216" height="214.487" filterUnits="userSpaceOnUse" color-interpolation-filters="sRGB">
<feFlood flood-opacity="0" result="BackgroundImageFix"/>
<feColorMatrix in="SourceAlpha" type="matrix" values="0 0 0 0 0 0 0 0 0 0 0 0 0 0 0 0 0 0 127 0" result="hardAlpha"/>
<feOffset dy="4"/>
<feGaussianBlur stdDeviation="2"/>
<feComposite in2="hardAlpha" operator="out"/>
<feColorMatrix type="matrix" values="0 0 0 0 0 0 0 0 0 0 0 0 0 0 0 0 0 0 0.25 0"/>
<feBlend mode="normal" in2="BackgroundImageFix" result="effect1_dropShadow_345_1386"/>
<feBlend mode="normal" in="SourceGraphic" in2="effect1_dropShadow_345_1386" result="shape"/>
</filter>
<linearGradient id="paint0_linear_345_1386" x1="108" y1="0" x2="108" y2="206.487" gradientUnits="userSpaceOnUse">
<stop offset="1" stop-color="#2F2E41" stop-opacity="0.29"/>
<stop offset="1" stop-color="#2F2E41"/>
</linearGradient>
</defs>
</svg>
