<svg width="216" height="215" viewBox="0 0 216 215" fill="none" xmlns="http://www.w3.org/2000/svg">
<g filter="url(#filter0_d_345_1388)">
<ellipse cx="108" cy="103.244" rx="104" ry="103.244" fill="white"/>
<path d="M211.5 103.244C211.5 159.984 165.165 205.987 108 205.987C50.8351 205.987 4.5 159.984 4.5 103.244C4.5 46.5033 50.8351 0.5 108 0.5C165.165 0.5 211.5 46.5033 211.5 103.244Z" stroke="url(#paint0_linear_345_1388)"/>
</g>
<path d="M59.8008 49.4066C58.3535 49.9398 57.2109 50.8792 56.4238 52.2503L55.7129 53.4437L55.6367 79.7991L55.5859 106.129L56.1191 107.399C56.7031 108.795 58.2012 110.293 59.5469 110.852C60.2324 111.157 63.3301 111.207 77.0918 111.207H93.7988L82.5762 122.43C70.2871 134.744 70.2617 134.77 70.2617 137.614C70.2617 140.559 69.6777 139.873 89.5586 159.729C101.746 171.891 108.094 178.061 108.779 178.391C110.227 179.076 112.994 179.051 114.365 178.315C115.889 177.502 167.686 125.553 168.193 124.36C168.955 122.481 168.727 121.338 165.02 107.907L161.49 95.0843L167.559 88.9905C171.52 85.0296 173.779 82.5667 174.033 81.9573C175.1 79.3675 173.729 76.1175 171.139 75.1019C170.732 74.9495 166.924 74.8733 161.287 74.8987L152.121 74.9241L145.596 63.4222C141.99 57.0999 138.689 51.5394 138.258 51.0823C137.826 50.5999 137.014 49.9905 136.455 49.6859C135.516 49.1526 135.033 49.1273 129.32 49.0511C123.607 48.9749 123.176 49.0003 122.617 49.4573C121.779 50.1429 121.779 51.6663 122.592 52.3265C123.125 52.7581 123.684 52.8089 128.863 52.8089H134.551L135.262 53.4944C135.871 54.0784 146.865 73.096 147.398 74.4671C147.551 74.848 147.195 74.8987 143.895 74.8987H140.238L139.4 74.0355C138.943 73.553 137.877 72.8675 137.039 72.4866C132.545 70.4554 127.111 72.9183 125.664 77.6155C125.385 78.5296 125.156 79.6468 125.156 80.0784C125.156 80.764 125.004 80.9671 124.268 81.3226C123.785 81.5511 122.414 82.6683 121.246 83.7855C120.104 84.9026 119.062 85.7405 118.986 85.639C118.885 85.5628 118.809 84.5726 118.809 83.4808C118.809 81.6526 118.758 81.4495 118.072 80.6878C117.361 79.8753 117.26 79.8499 115.381 79.8499C113.502 79.8499 113.4 79.8753 112.689 80.6878C111.979 81.5003 111.953 81.5511 111.953 84.4202C111.953 88.2542 112.334 89.0159 114.467 89.4983L115.33 89.6761L106.469 98.5374L97.6074 107.399H79.25H60.8672L60.1309 106.662L59.3945 105.926V80.3577C59.3945 52.6058 59.3438 53.7737 60.791 53.1136C61.2988 52.8851 68.2051 52.8089 89.0762 52.8089C116.65 52.8089 116.701 52.8089 117.387 52.2757C118.301 51.5648 118.301 50.2444 117.387 49.5335C116.701 49.0003 116.676 49.0003 88.7461 49.0257C65.1582 49.0257 60.6387 49.1019 59.8008 49.4066ZM134.627 75.6605C135.135 75.6605 135.135 75.6858 134.5 76.346C133.408 77.514 132.951 78.7073 132.951 80.3069C132.951 81.9827 133.18 81.9066 130.311 81.0941C129.117 80.764 128.965 80.6624 128.965 80.0276C128.99 78.3519 130.691 76.0921 132.215 75.762C132.596 75.6858 133.027 75.5843 133.154 75.5335C133.307 75.4827 133.561 75.4827 133.738 75.5589C133.941 75.6097 134.322 75.6605 134.627 75.6605ZM170.098 78.9612C170.377 79.2405 170.605 79.723 170.605 80.053C170.605 80.4593 167.609 83.6077 159.611 91.6058C150.623 100.594 148.516 102.575 147.957 102.575C147.145 102.575 146.484 101.965 146.484 101.229C146.484 100.543 168.473 78.4534 169.158 78.4534C169.387 78.4534 169.818 78.6819 170.098 78.9612ZM161.541 80.2308L159.967 81.7796L148.77 81.7034L137.547 81.6273L137.064 81.0179C136.531 80.3577 136.607 79.5452 137.293 79.012C137.598 78.7835 140.619 78.7073 150.395 78.7073H163.115L161.541 80.2308ZM116.295 81.7542C116.727 82.0081 116.777 82.3128 116.777 84.5218C116.777 87.264 116.6 87.6448 115.33 87.6448C114.264 87.6448 113.984 87.0101 113.984 84.5218C113.984 82.846 114.086 82.2112 114.391 81.9066C114.848 81.4495 115.584 81.3987 116.295 81.7542ZM139.096 87.4925C145.443 89.2444 150.725 90.7171 150.775 90.7933C150.852 90.8694 149.785 92.0374 148.414 93.4085L145.926 95.8968L144.174 96.0237C141.076 96.2523 138.309 98.1566 137.014 101C136.176 102.828 136.227 106.028 137.141 107.957C138.512 110.877 140.949 112.477 144.326 112.68C146.002 112.756 146.637 112.68 147.881 112.198C150.877 111.08 153.086 107.932 153.086 104.784V103.463L155.727 100.823L158.367 98.2073L158.621 99.0452C159.764 102.6 164.766 121.465 164.766 122.151C164.766 122.963 163.064 124.69 138.664 149.09C112.791 174.989 112.588 175.192 111.572 175.192C110.582 175.192 110.354 174.989 92.3008 156.936C74.1719 138.807 74.0449 138.68 74.0195 137.639L73.9941 136.598L100.146 110.446C120.129 90.4632 126.451 84.2933 126.908 84.2933C127.238 84.2933 132.723 85.7405 139.096 87.4925ZM155.193 86.6292L154.152 87.6702L152.908 87.3401C151.283 86.9085 151.283 86.9085 151.613 86.1976C151.893 85.5882 152.02 85.5628 154.076 85.5628H156.26L155.193 86.6292ZM143.463 104.022C144.301 105.367 146.053 106.383 147.551 106.383C148.871 106.383 148.973 106.485 148.363 107.348C147.398 108.719 144.326 109.405 142.727 108.567C141.812 108.084 140.746 106.916 140.416 106.053C139.756 104.352 140.416 101.914 141.812 100.823L142.549 100.239L142.727 101.686C142.828 102.473 143.158 103.539 143.463 104.022Z" fill="#2F2E41"/>
<path d="M123.861 113.137C123.557 113.493 123.963 114.889 126.781 123.243C128.584 128.549 130.184 133.069 130.311 133.247C130.666 133.678 131.758 133.526 132.088 133.018C132.291 132.688 131.58 130.301 129.092 122.989C127.315 117.682 125.74 113.214 125.588 113.036C125.258 112.604 124.268 112.655 123.861 113.137Z" fill="#2F2E41"/>
<path d="M132.773 117.58C131.326 118.164 129.98 119.967 129.98 121.313C129.98 122.201 130.641 123.09 132.951 125.248C134.398 126.594 134.957 126.949 135.566 126.949C137.039 126.949 138.512 125.807 139.223 124.156C139.73 122.887 139.502 122.1 138.08 120.525C135.668 117.834 134.17 116.996 132.773 117.58ZM135.744 121.16C136.938 122.328 137.344 122.938 137.344 123.445C137.344 124.131 136.557 124.918 135.896 124.918C135.465 124.918 132.316 121.947 132.139 121.338C131.885 120.576 132.646 119.586 133.459 119.586C133.967 119.586 134.576 120.018 135.744 121.16Z" fill="#2F2E41"/>
<path d="M117.92 120.627C116.574 121.871 116.092 123.09 116.523 124.156C116.676 124.537 117.768 125.781 118.936 126.924C120.84 128.803 121.119 128.98 122.033 128.98C123.861 128.98 125.918 126.924 125.918 125.096C125.918 124.385 124.877 122.912 123.353 121.465C121.728 119.941 121.094 119.586 120.027 119.586C119.24 119.586 118.834 119.789 117.92 120.627ZM122.186 123.369C123.125 124.334 123.887 125.273 123.887 125.451C123.887 125.934 122.846 126.949 122.363 126.949C122.16 126.949 121.195 126.238 120.256 125.35C118.453 123.674 118.174 122.963 118.986 122.074C119.723 121.236 120.408 121.516 122.186 123.369Z" fill="#2F2E41"/>
<path d="M108.982 130.124C107.84 130.606 105.91 132.46 105.275 133.678C104.59 134.999 104.59 136.675 105.275 137.995C106.012 139.366 112.359 145.612 113.553 146.12C115 146.729 116.473 146.602 117.945 145.739C119.9 144.647 121.551 142.26 121.602 140.559C121.627 138.96 120.967 137.969 117.438 134.389C115.33 132.231 113.477 130.555 112.842 130.251C111.623 129.667 110.15 129.616 108.982 130.124ZM111.268 133.145C111.725 133.323 113.477 134.923 115.203 136.649C118.021 139.544 118.301 139.899 118.301 140.737C118.301 142.159 117.158 143.327 115.787 143.327C114.746 143.327 114.594 143.2 111.293 139.874C108.246 136.801 107.891 136.344 107.891 135.557C107.891 134.542 108.475 133.729 109.541 133.196C110.455 132.714 110.277 132.714 111.268 133.145Z" fill="#2F2E41"/>
<path d="M97.2773 141.244C95.7285 142.818 94.4336 144.266 94.4336 144.469C94.4336 144.697 95.5762 146.246 96.998 147.973C98.7754 150.131 99.6895 151.07 100.07 151.07C100.375 151.07 101.416 150.283 102.584 149.166C104.006 147.82 104.768 147.262 105.225 147.262C106.799 147.262 108.652 148.988 108.652 150.435C108.652 151.451 107.738 152.644 106.646 153.102C105.986 153.355 105.758 153.33 104.869 152.822C103.904 152.289 103.828 152.289 103.193 152.695C102.838 152.924 102.406 153.432 102.229 153.787C101.975 154.371 102.025 154.498 102.863 155.285C104.057 156.377 105.275 156.605 107.002 156.047C109.338 155.31 111.471 152.949 111.852 150.664C112.258 147.998 108.881 144.215 106.088 144.215C104.844 144.24 103.27 145.027 101.771 146.398L100.502 147.617L99.2578 146.246C98.5723 145.484 98.0137 144.773 97.9883 144.672C97.9883 144.57 98.9023 143.529 100.045 142.336C102.279 139.975 102.432 139.467 101.035 138.756C100.629 138.553 100.273 138.375 100.223 138.375C100.172 138.375 98.8516 139.67 97.2773 141.244Z" fill="#2F2E41"/>
<path d="M111.699 74.1881C110.76 76.1939 108.703 80.4342 107.154 83.6588C104.615 88.8892 104.387 89.524 104.691 90.0064C105.098 90.6158 105.936 90.7935 106.316 90.3111C106.824 89.7017 115.254 72.0807 115.254 71.6236C115.254 71.0143 114.746 70.5826 114.035 70.5826C113.527 70.5826 113.223 71.0396 111.699 74.1881Z" fill="#2F2E41"/>
<path d="M102.406 71.9532C101.01 72.5626 100.781 73.172 100.781 76.3458C100.781 79.6212 100.959 80.2814 102.102 81.0177C102.787 81.4239 103.27 81.5001 104.564 81.4239C106.012 81.3478 106.266 81.2462 106.9 80.5353C107.637 79.7228 107.637 79.672 107.637 76.5997C107.637 74.1368 107.561 73.3751 107.23 72.8927C106.393 71.6993 104.031 71.2423 102.406 71.9532ZM105.047 73.7814C105.555 74.1368 105.605 74.3653 105.605 76.6759C105.605 78.9103 105.555 79.2149 105.123 79.4689C103.523 80.3067 102.812 79.3673 102.812 76.3712C102.812 74.3907 102.863 74.1368 103.371 73.7814C103.676 73.5528 104.057 73.3751 104.209 73.3751C104.361 73.3751 104.742 73.5528 105.047 73.7814Z" fill="#2F2E41"/>
<path d="M72.75 72.2077C70.5918 72.8171 68.9668 75.2038 69.5762 76.8796C69.8301 77.5651 70.8965 77.8444 71.7344 77.4635C72.3692 77.1842 72.4453 77.0573 72.6992 75.8639C72.8516 75.1784 73.8672 74.6452 75.0606 74.6452C76.0762 74.6452 76.9141 75.7116 76.9141 77.0573C76.9141 78.4284 76.2793 79.2155 75.1621 79.2155C74.2227 79.2155 73.8164 79.7233 73.918 80.7897C73.9688 81.4753 74.1211 81.653 74.6289 81.7038C76.8379 81.9577 77.4219 82.5163 77.4219 84.3952C77.4219 86.3503 76.711 87.1628 74.9844 87.1881C73.4864 87.2135 72.3438 86.6042 72.3438 85.7409C72.3438 84.8776 72.0137 84.5475 71.0489 84.3952C69.7285 84.1667 68.916 84.9284 69.1446 86.1217C69.6016 88.5592 71.7344 90.0065 74.8828 89.9811C78.8184 89.9557 81.0274 87.5944 80.6465 83.8366C80.4942 82.3639 79.6055 80.8913 78.666 80.612C78.1582 80.4342 78.1582 80.4342 78.793 79.7995C79.6817 78.9362 80.0371 77.6413 79.9102 75.8893C79.7832 74.1374 79.2246 73.1979 77.9043 72.5631C76.6602 71.9538 74.2735 71.776 72.75 72.2077Z" fill="#2F2E41"/>
<path d="M85.9278 72.3086C84.6329 72.918 83.6173 74.1113 83.2364 75.457C83.0587 76.1172 83.0079 78.3008 83.0587 81.3477C83.1349 85.7656 83.1857 86.2988 83.6935 87.2637C84.6583 89.0664 86.3087 89.8789 88.9747 89.8789C91.1837 89.8789 93.0626 88.9141 93.9259 87.3398C94.4591 86.375 94.5607 85.791 94.6368 83.2773C94.6876 81.6777 94.6114 79.1387 94.4845 77.6406C94.2306 74.4922 93.6212 73.2734 91.9708 72.4609C90.5489 71.7754 87.2735 71.6738 85.9278 72.3086ZM90.1681 74.9238C91.1583 75.457 91.3868 76.625 91.3868 81.2461V85.6133L90.6505 86.3496C90.0665 86.9336 89.6857 87.0859 88.8478 87.0859C88.0099 87.0859 87.629 86.9336 87.045 86.3496L86.3087 85.6133V80.7383C86.3087 75.9395 86.3087 75.8887 86.9435 75.2793C87.6036 74.5937 89.2032 74.416 90.1681 74.9238Z" fill="#2F2E41"/>
<defs>
<filter id="filter0_d_345_1388" x="0" y="0" width="216" height="214.487" filterUnits="userSpaceOnUse" color-interpolation-filters="sRGB">
<feFlood flood-opacity="0" result="BackgroundImageFix"/>
<feColorMatrix in="SourceAlpha" type="matrix" values="0 0 0 0 0 0 0 0 0 0 0 0 0 0 0 0 0 0 127 0" result="hardAlpha"/>
<feOffset dy="4"/>
<feGaussianBlur stdDeviation="2"/>
<feComposite in2="hardAlpha" operator="out"/>
<feColorMatrix type="matrix" values="0 0 0 0 0 0 0 0 0 0 0 0 0 0 0 0 0 0 0.25 0"/>
<feBlend mode="normal" in2="BackgroundImageFix" result="effect1_dropShadow_345_1388"/>
<feBlend mode="normal" in="SourceGraphic" in2="effect1_dropShadow_345_1388" result="shape"/>
</filter>
<linearGradient id="paint0_linear_345_1388" x1="108" y1="0" x2="108" y2="206.487" gradientUnits="userSpaceOnUse">
<stop offset="1" stop-color="#2F2E41" stop-opacity="0.29"/>
<stop offset="1" stop-color="#2F2E41"/>
</linearGradient>
</defs>
</svg>
