<svg width="216" height="215" viewBox="0 0 216 215" fill="none" xmlns="http://www.w3.org/2000/svg">
<g filter="url(#filter0_d_346_1394)">
<ellipse cx="108" cy="103.244" rx="104" ry="103.244" fill="white"/>
<path d="M211.5 103.244C211.5 159.984 165.165 205.987 108 205.987C50.8351 205.987 4.5 159.984 4.5 103.244C4.5 46.5033 50.8351 0.5 108 0.5C165.165 0.5 211.5 46.5033 211.5 103.244Z" stroke="url(#paint0_linear_346_1394)"/>
</g>
<path d="M137.793 56.5828C133.53 57.6 129.486 60.143 126.895 63.4367L125.732 64.9141H88.8469C61.843 64.9141 51.7922 64.9867 51.3562 65.1805C51.0172 65.35 50.7023 65.6164 50.6297 65.8102C50.5328 66.0039 50.4844 83.8773 50.4844 105.553C50.4844 143.213 50.5086 144.957 50.9203 145.369C51.332 145.805 53.8508 145.805 112 145.805C170.149 145.805 172.668 145.805 173.08 145.369C173.491 144.957 173.516 143.213 173.516 105.553C173.516 83.9016 173.467 66.0039 173.37 65.8102C173.08 65.0352 172.087 64.9141 165.281 64.9141H158.548L157.313 63.3641C154.625 59.9977 150.702 57.5516 146.391 56.5586C144.405 56.0984 139.755 56.1227 137.793 56.5828ZM146.923 60.1914C153.39 62.2984 157.773 67.9656 158.185 74.7227C158.548 80.632 155.618 87.7039 149.781 95.0664C147.941 97.3672 142.564 102.938 142.152 102.938C141.741 102.938 136.364 97.3672 134.523 95.0664C128.687 87.7039 125.756 80.632 126.12 74.7227C126.531 67.9656 130.915 62.2984 137.381 60.1914C139.997 59.3438 144.308 59.3438 146.923 60.1914ZM78.0453 92.4508L78.0937 116.5H65.9844H53.875V92.4023V68.3047L65.9359 68.3531L77.9727 68.4258L78.0453 92.4508ZM123.867 68.4258C123.867 68.4984 123.649 69.3461 123.383 70.3148C122.729 72.6398 122.511 76.1758 122.874 78.743C123.286 81.5039 124.57 85.4031 126.047 88.2852C126.701 89.593 127.258 90.707 127.258 90.7555C127.258 90.7797 122.995 90.8281 117.788 90.8281C111.273 90.8281 108.173 90.9008 107.834 91.0945C107.374 91.3367 84.7539 111.317 82.4047 113.545L81.4844 114.417V91.3609V68.3047H102.676C114.325 68.3047 123.867 68.3531 123.867 68.4258ZM170.125 79.5664V90.8281H163.586C160.002 90.8281 157.047 90.8039 157.047 90.7555C157.047 90.707 157.58 89.593 158.258 88.2609C160.389 84.0469 161.648 79.3 161.648 75.5703C161.648 73.7539 161.067 70.3391 160.559 69.1039L160.22 68.3047H165.184H170.125V79.5664ZM130.939 95.9625C132.683 98.2875 136.412 102.38 138.713 104.536L140.578 106.28V115.386C140.578 120.399 140.53 124.492 140.457 124.492C140.287 124.492 110.959 113.327 110.498 113.085C110.087 112.867 110.062 112.165 110.062 103.688C110.062 98.6508 110.135 94.4609 110.232 94.3883C110.305 94.2914 114.712 94.2188 119.992 94.2188H129.631L130.939 95.9625ZM170.125 109.719V125.219H156.926H143.727V115.798V106.377L147.19 102.889C149.079 101 151.549 98.2633 152.687 96.8102L154.722 94.2188H162.423H170.125V109.719ZM106.672 119.648V142.656H94.0781H81.4844V130.716L81.5086 118.801L94.0297 107.709C100.908 101.63 106.575 96.6406 106.599 96.6406C106.648 96.6406 106.672 106.982 106.672 119.648ZM125.441 122.434C133.434 125.461 140.118 128.077 140.287 128.198C140.505 128.367 140.578 130.014 140.53 135.488L140.457 142.535H125.32H110.184L110.111 129.602C110.062 117.372 110.087 116.694 110.474 116.791C110.716 116.863 117.449 119.406 125.441 122.434ZM78.0453 131.201L77.9727 142.535L65.9359 142.608L53.875 142.656V131.273V119.891H65.9844H78.0937L78.0453 131.201ZM170.125 135.633V142.656L156.998 142.608L143.848 142.535L143.775 135.875C143.751 132.218 143.775 129.094 143.848 128.924C143.92 128.682 146.705 128.609 157.047 128.609H170.125V135.633Z" fill="#2F2E41"/>
<path d="M138.955 66.3431C134.693 67.9173 132.126 71.7923 132.392 76.2728C132.877 84.7009 143.121 88.5517 149.103 82.5697C153.898 77.7744 152.373 69.4915 146.197 66.6579C144.308 65.8103 140.82 65.6408 138.955 66.3431ZM144.816 69.8548C147.311 70.9931 148.74 73.4392 148.522 76.1275C148.255 79.397 145.955 81.7462 142.782 82.0369C139.125 82.3759 136.098 79.8087 135.807 76.2001C135.492 72.3978 138.35 69.2736 142.152 69.2736C143.17 69.2736 143.969 69.4431 144.816 69.8548Z" fill="#2F2E41"/>
<defs>
<filter id="filter0_d_346_1394" x="0" y="0" width="216" height="214.487" filterUnits="userSpaceOnUse" color-interpolation-filters="sRGB">
<feFlood flood-opacity="0" result="BackgroundImageFix"/>
<feColorMatrix in="SourceAlpha" type="matrix" values="0 0 0 0 0 0 0 0 0 0 0 0 0 0 0 0 0 0 127 0" result="hardAlpha"/>
<feOffset dy="4"/>
<feGaussianBlur stdDeviation="2"/>
<feComposite in2="hardAlpha" operator="out"/>
<feColorMatrix type="matrix" values="0 0 0 0 0 0 0 0 0 0 0 0 0 0 0 0 0 0 0.25 0"/>
<feBlend mode="normal" in2="BackgroundImageFix" result="effect1_dropShadow_346_1394"/>
<feBlend mode="normal" in="SourceGraphic" in2="effect1_dropShadow_346_1394" result="shape"/>
</filter>
<linearGradient id="paint0_linear_346_1394" x1="108" y1="0" x2="108" y2="206.487" gradientUnits="userSpaceOnUse">
<stop offset="1" stop-color="#2F2E41" stop-opacity="0.29"/>
<stop offset="1" stop-color="#2F2E41"/>
</linearGradient>
</defs>
</svg>
