<svg width="216" height="215" viewBox="0 0 216 215" fill="none" xmlns="http://www.w3.org/2000/svg">
<g filter="url(#filter0_d_345_1384)">
<ellipse cx="108" cy="103.244" rx="104" ry="103.244" fill="white"/>
<path d="M211.5 103.244C211.5 159.984 165.165 205.987 108 205.987C50.8351 205.987 4.5 159.984 4.5 103.244C4.5 46.5033 50.8351 0.5 108 0.5C165.165 0.5 211.5 46.5033 211.5 103.244Z" stroke="url(#paint0_linear_345_1384)"/>
</g>
<path d="M75.2306 52.6339C71.9774 53.2465 68.5974 55.9083 67.0975 59.0137C66.0201 61.274 65.83 62.4782 65.83 67.1045V70.9704H86.11H106.39V91.2504V111.53H99.6934H93.0179L93.4193 111.066C93.6305 110.812 95.1304 109.143 96.7148 107.369L99.63 104.137V106.144V108.15H101.32H103.01V99.7004V91.2504H101.32H99.63V95.1585V99.0455L94.0108 105.299L88.3915 111.53H78.8008H69.21V92.9404V74.3504H67.52H65.83V78.5543V82.7793L62.6824 82.8427C59.239 82.906 58.9221 83.0117 57.9293 84.3637C57.5068 84.934 57.4856 85.2298 57.4223 94.3135C57.3589 104.77 57.3378 104.665 58.7743 105.742C59.5559 106.355 59.6193 106.355 62.7035 106.418L65.83 106.482V121.185C65.83 132.106 65.8934 136.099 66.0835 136.754C66.3581 137.704 68.3016 139.838 68.872 139.838C69.1678 139.838 69.21 140.493 69.21 145.436C69.21 151.731 69.2734 152.048 70.6043 153.062L71.3859 153.675H77.6811C83.7018 153.675 83.9975 153.654 84.5468 153.231C84.8636 152.999 85.3284 152.534 85.5608 152.217C85.9833 151.668 86.0044 151.309 86.0678 145.943L86.1311 140.26H114.84H143.57V145.33V150.4H138.5H133.43V147.02V143.64H131.74H130.05V147.337C130.05 151.562 130.177 152.112 131.444 153.062L132.226 153.675H138.521C144.542 153.675 144.838 153.654 145.387 153.231C145.704 152.999 146.168 152.534 146.401 152.217C146.823 151.668 146.844 151.309 146.908 145.732C146.95 140.62 147.013 139.838 147.288 139.838C147.858 139.838 149.802 137.683 150.077 136.754C150.267 136.099 150.33 132.106 150.33 121.185V106.482L153.478 106.418C156.921 106.355 157.238 106.249 158.231 104.897C158.674 104.327 158.674 104.094 158.674 94.6515V84.9763L158.062 84.1947C157.153 82.9905 156.477 82.8004 153.203 82.8004H150.351L150.288 72.2802L150.224 61.781L149.675 60.3868C148.915 58.401 148.196 57.2603 146.866 55.9083C145.556 54.5774 144.352 53.8169 142.324 53.0353L140.929 52.486L108.608 52.4649C88.9619 52.4438 75.8644 52.5072 75.2306 52.6339ZM142.134 56.6477C144.056 57.5983 145.26 58.8235 146.168 60.7882C146.781 62.0979 146.844 62.4148 146.908 64.8864L146.992 67.5904H108.08H69.1678L69.2523 64.8864C69.3156 62.4148 69.379 62.0979 69.9916 60.7882C70.3508 60.0065 71.0479 58.9503 71.5126 58.4433C72.4421 57.4293 74.3645 56.3097 75.6743 55.9928C76.1601 55.8872 89.6379 55.8027 108.524 55.8238L140.528 55.866L142.134 56.6477ZM146.95 91.2504V111.53H137.359H127.769L122.149 105.299L116.53 99.0455V95.1585V91.2504H114.84H113.15V99.7004V108.15H114.84H116.53V106.144V104.137L119.445 107.369C121.03 109.143 122.53 110.812 122.741 111.066L123.142 111.53H116.467H109.77V91.2504V70.9704H128.36H146.95V91.2504ZM65.83 94.6304V103.08H63.295H60.76V94.6304V86.1804H63.295H65.83V94.6304ZM155.4 94.6304V103.08H152.865H150.33V94.6304V86.1804H152.865H155.4V94.6304ZM85.0749 115.206C84.8848 115.439 85.096 115.713 86.11 116.6L87.3775 117.699L88.6661 116.305L89.9548 114.91H108.08H126.205L127.494 116.326L128.783 117.72L129.374 117.213C131.149 115.65 131.318 115.481 131.085 115.185C130.874 114.953 132.226 114.91 138.901 114.91H146.95V125.367V135.845L146.422 136.352L145.915 136.88H108.08H70.2451L69.7381 136.352L69.21 135.845V125.367V114.91H77.2586C84.082 114.91 85.2861 114.953 85.0749 115.206ZM82.73 145.33V150.4H77.66H72.59V145.33V140.26H77.66H82.73V145.33Z" fill="#2F2E41"/>
<path d="M75.97 60.8305V62.5205H77.66H79.35V60.8305V59.1405H77.66H75.97V60.8305Z" fill="#2F2E41"/>
<path d="M99.6301 60.8305V62.5205H101.32H103.01V60.8305V59.1405H101.32H99.6301V60.8305Z" fill="#2F2E41"/>
<path d="M106.39 60.8305V62.5205H108.08H109.77V60.8305V59.1405H108.08H106.39V60.8305Z" fill="#2F2E41"/>
<path d="M113.15 60.8305V62.5205H114.84H116.53V60.8305V59.1405H114.84H113.15V60.8305Z" fill="#2F2E41"/>
<path d="M136.81 60.8305V62.5205H138.5H140.19V60.8305V59.1405H138.5H136.81V60.8305Z" fill="#2F2E41"/>
<path d="M77.2375 120.318C74.2378 121.417 72.3999 124.184 72.6323 127.226C73.1815 133.944 81.9907 135.824 85.2439 129.909C85.941 128.641 86.0044 128.409 86.0044 126.74C85.9833 125.219 85.8988 124.775 85.434 123.867C84.6102 122.283 83.9553 121.607 82.5188 120.846C80.9133 119.98 78.7374 119.769 77.2375 120.318ZM80.6809 123.656C82.8568 124.564 83.3849 127.395 81.6949 129.085C80.3218 130.458 78.3783 130.458 77.0051 129.085C74.3856 126.487 77.2798 122.219 80.6809 123.656Z" fill="#2F2E41"/>
<path d="M134.697 120.318C131.698 121.417 129.86 124.184 130.092 127.226C130.641 133.944 139.451 135.824 142.704 129.909C143.401 128.641 143.464 128.409 143.464 126.74C143.443 125.219 143.359 124.775 142.894 123.867C142.07 122.283 141.415 121.607 139.979 120.846C138.373 119.98 136.197 119.769 134.697 120.318ZM138.141 123.656C140.317 124.564 140.845 127.395 139.155 129.085C137.782 130.458 135.838 130.458 134.465 129.085C131.846 126.487 134.74 122.219 138.141 123.656Z" fill="#2F2E41"/>
<path d="M89.49 123.361V125.051H108.08H126.67V123.361V121.671H108.08H89.49V123.361Z" fill="#2F2E41"/>
<path d="M89.49 130.121V131.811H108.08H126.67V130.121V128.431H108.08H89.49V130.121Z" fill="#2F2E41"/>
<defs>
<filter id="filter0_d_345_1384" x="0" y="0" width="216" height="214.487" filterUnits="userSpaceOnUse" color-interpolation-filters="sRGB">
<feFlood flood-opacity="0" result="BackgroundImageFix"/>
<feColorMatrix in="SourceAlpha" type="matrix" values="0 0 0 0 0 0 0 0 0 0 0 0 0 0 0 0 0 0 127 0" result="hardAlpha"/>
<feOffset dy="4"/>
<feGaussianBlur stdDeviation="2"/>
<feComposite in2="hardAlpha" operator="out"/>
<feColorMatrix type="matrix" values="0 0 0 0 0 0 0 0 0 0 0 0 0 0 0 0 0 0 0.25 0"/>
<feBlend mode="normal" in2="BackgroundImageFix" result="effect1_dropShadow_345_1384"/>
<feBlend mode="normal" in="SourceGraphic" in2="effect1_dropShadow_345_1384" result="shape"/>
</filter>
<linearGradient id="paint0_linear_345_1384" x1="108" y1="0" x2="108" y2="206.487" gradientUnits="userSpaceOnUse">
<stop offset="1" stop-color="#2F2E41" stop-opacity="0.29"/>
<stop offset="1" stop-color="#2F2E41"/>
</linearGradient>
</defs>
</svg>
