<svg width="216" height="215" viewBox="0 0 216 215" fill="none" xmlns="http://www.w3.org/2000/svg">
<g filter="url(#filter0_d_345_1382)">
<ellipse cx="108" cy="103.244" rx="104" ry="103.244" fill="white"/>
<path d="M211.5 103.244C211.5 159.984 165.165 205.987 108 205.987C50.8351 205.987 4.5 159.984 4.5 103.244C4.5 46.5033 50.8351 0.5 108 0.5C165.165 0.5 211.5 46.5033 211.5 103.244Z" stroke="url(#paint0_linear_345_1382)"/>
</g>
<g clip-path="url(#clip0_345_1382)">
<path d="M173.519 67.0267L156.813 50.3205L150.44 56.6929L158.133 64.3858V76.04C158.133 78.4305 159.083 80.7231 160.773 82.4134C162.464 84.1037 164.756 85.0533 167.147 85.0533V130.12C167.147 131.315 166.672 132.462 165.827 133.307C164.982 134.152 163.835 134.627 162.64 134.627C161.445 134.627 160.298 134.152 159.453 133.307C158.608 132.462 158.133 131.315 158.133 130.12V125.613C158.133 122.028 156.709 118.589 154.173 116.053C151.638 113.518 148.199 112.093 144.613 112.093H140.107V62.52C140.107 58.9343 138.682 55.4954 136.147 52.9599C133.611 50.4244 130.172 49 126.587 49H81.52C77.9343 49 74.4954 50.4244 71.9599 52.9599C69.4244 55.4954 68 58.9343 68 62.52V157.16H140.107V121.107H144.613C145.809 121.107 146.955 121.581 147.8 122.427C148.645 123.272 149.12 124.418 149.12 125.613V130.12C149.12 133.706 150.544 137.145 153.08 139.68C155.615 142.216 159.054 143.64 162.64 143.64C166.226 143.64 169.665 142.216 172.2 139.68C174.736 137.145 176.16 133.706 176.16 130.12V73.3991C176.154 71.0099 175.205 68.7197 173.519 67.0267V67.0267ZM81.52 58.0133H126.587C127.782 58.0133 128.928 58.4881 129.773 59.3333C130.619 60.1785 131.093 61.3248 131.093 62.52V89.56H77.0133V62.52C77.0133 61.3248 77.4881 60.1785 78.3333 59.3333C79.1785 58.4881 80.3248 58.0133 81.52 58.0133V58.0133ZM77.0133 148.147V98.5733H131.093V148.147H77.0133Z" fill="#2F2E41"/>
</g>
<defs>
<filter id="filter0_d_345_1382" x="0" y="0" width="216" height="214.487" filterUnits="userSpaceOnUse" color-interpolation-filters="sRGB">
<feFlood flood-opacity="0" result="BackgroundImageFix"/>
<feColorMatrix in="SourceAlpha" type="matrix" values="0 0 0 0 0 0 0 0 0 0 0 0 0 0 0 0 0 0 127 0" result="hardAlpha"/>
<feOffset dy="4"/>
<feGaussianBlur stdDeviation="2"/>
<feComposite in2="hardAlpha" operator="out"/>
<feColorMatrix type="matrix" values="0 0 0 0 0 0 0 0 0 0 0 0 0 0 0 0 0 0 0.25 0"/>
<feBlend mode="normal" in2="BackgroundImageFix" result="effect1_dropShadow_345_1382"/>
<feBlend mode="normal" in="SourceGraphic" in2="effect1_dropShadow_345_1382" result="shape"/>
</filter>
<linearGradient id="paint0_linear_345_1382" x1="108" y1="0" x2="108" y2="206.487" gradientUnits="userSpaceOnUse">
<stop offset="1" stop-color="#2F2E41" stop-opacity="0.29"/>
<stop offset="1" stop-color="#2F2E41"/>
</linearGradient>
<clipPath id="clip0_345_1382">
<rect width="108.16" height="108.16" fill="white" transform="translate(68 49)"/>
</clipPath>
</defs>
</svg>
