<svg width="216" height="215" viewBox="0 0 216 215" fill="none" xmlns="http://www.w3.org/2000/svg">
<g filter="url(#filter0_d_345_1387)">
<ellipse cx="108" cy="103.244" rx="104" ry="103.244" fill="white"/>
<path d="M211.5 103.244C211.5 159.984 165.165 205.987 108 205.987C50.8351 205.987 4.5 159.984 4.5 103.244C4.5 46.5033 50.8351 0.5 108 0.5C165.165 0.5 211.5 46.5033 211.5 103.244Z" stroke="url(#paint0_linear_345_1387)"/>
</g>
<path d="M115.965 26.4781C113.575 27.1056 111.632 28.271 109.81 30.2134C107.479 32.6638 106.343 35.174 106.164 38.3714C105.895 42.6148 107.001 45.7226 109.839 48.7109C117.489 56.7195 130.847 52.4761 132.7 41.4494C134.254 32.1558 125.169 23.9978 115.965 26.4781Z" fill="#2F2E41"/>
<path d="M104.849 56.8987C102.1 57.8848 100.068 59.887 99.1713 62.5764C98.8725 63.4131 98.6932 64.1303 98.753 64.1901C98.8127 64.2499 99.3506 64.1602 99.9782 63.9809C100.606 63.8016 101.144 63.712 101.203 63.7717C101.263 63.8315 98.5737 65.3256 95.2567 67.0887C86.4114 71.7803 85.993 72.0493 85.0965 73.7227C84.6782 74.4997 82.168 80.3567 79.5085 86.6918C74.1594 99.5116 74.0399 99.9897 75.3846 102.53C77.2672 106.086 81.8393 106.833 84.8575 104.114C85.8137 103.247 86.5608 101.693 90.5651 92.0708L95.167 81.044L98.6036 79.2211C107.539 74.4698 107.748 74.3801 106.821 75.2168C106.313 75.695 104.222 77.4879 102.16 79.2211C97.1094 83.4944 97.3784 82.6577 96.3624 98.5852L95.5854 110.688L96.2428 124.135L96.9301 137.612L89.5192 153.57C84.3196 164.776 82.0784 169.915 81.9588 170.931C81.6301 173.621 83.1243 176.52 85.5747 177.954C88.3836 179.598 91.7305 179.209 94.1211 176.938C95.5256 175.653 96.0635 174.607 103.415 158.68C107.718 149.386 111.364 141.377 111.513 140.899C111.692 140.302 111.543 135.251 111.124 126.346C110.736 118.816 110.527 112.6 110.616 112.511C110.706 112.421 111.483 112.421 112.29 112.54L113.814 112.72L117.848 124.882L121.912 137.015L123.406 154.347C124.213 163.879 125.02 172.366 125.199 173.232C126.036 177.267 130.309 179.837 134.314 178.701C135.987 178.223 138.258 176.281 138.975 174.667C139.304 173.95 139.543 172.754 139.543 171.679C139.543 170.692 138.856 161.877 138.019 152.105L136.495 134.325L133.148 124.165L129.801 114.005L130.698 100.707C131.176 93.3856 131.594 87.3493 131.654 87.2895C131.684 87.2297 132.162 87.678 132.7 88.3055C133.238 88.9032 134.164 89.6502 134.792 89.9491C135.389 90.2778 140.768 91.742 146.715 93.2362C154.992 95.2981 157.772 95.8958 158.608 95.7463C161.387 95.2682 163.419 93.1465 163.688 90.5467C163.927 88.1262 163.569 87.0504 162.015 85.4965L160.61 84.092L150.898 81.6118C145.549 80.267 140.977 78.9522 140.738 78.743C140.499 78.5338 138.617 76.4122 136.585 74.0514L132.909 69.7782L132.849 66.9393C132.819 64.5188 132.7 63.8913 132.013 62.5764C131.564 61.7696 130.668 60.5743 129.981 59.9467C127.68 57.8848 126.932 57.7055 117.938 57.0481C108.465 56.3907 106.313 56.3608 104.849 56.8987Z" fill="#2F2E41"/>
<path d="M70.5138 117.86C68.153 122.97 66.2107 127.213 66.1509 127.273C66.121 127.303 64.4476 126.616 62.4454 125.689C58.1722 123.717 56.8275 123.568 54.7954 124.763C53.2714 125.659 54.4667 123.299 43.3204 147.474C35.3118 164.866 35.1923 165.105 35.3118 166.778C35.4612 168.9 36.298 170.095 38.33 171.111C39.1966 171.559 39.9138 171.948 39.9735 171.978C40.0333 172.038 39.854 172.486 39.615 172.994C39.346 173.472 39.1368 174.398 39.1368 175.026C39.1368 179.239 44.9341 180.435 46.5776 176.58C47.1155 175.235 47.2948 175.205 49.028 176.012C49.7452 176.341 50.7911 176.61 51.3589 176.61C53.0025 176.61 54.8851 175.534 55.6919 174.129C57.0964 171.649 73.4722 135.79 73.6515 134.744C73.8607 133.549 73.263 131.756 72.2769 130.68C71.8585 130.261 71.7091 129.843 71.8585 129.425C71.9482 129.066 73.9204 124.763 76.2214 119.802C78.4925 114.842 80.3153 110.688 80.2257 110.569C80.1659 110.449 79.5683 110.27 78.9109 110.18C78.2833 110.12 77.088 109.702 76.2513 109.284L74.787 108.537L70.5138 117.86Z" fill="#2F2E41"/>
<defs>
<filter id="filter0_d_345_1387" x="0" y="0" width="216" height="214.487" filterUnits="userSpaceOnUse" color-interpolation-filters="sRGB">
<feFlood flood-opacity="0" result="BackgroundImageFix"/>
<feColorMatrix in="SourceAlpha" type="matrix" values="0 0 0 0 0 0 0 0 0 0 0 0 0 0 0 0 0 0 127 0" result="hardAlpha"/>
<feOffset dy="4"/>
<feGaussianBlur stdDeviation="2"/>
<feComposite in2="hardAlpha" operator="out"/>
<feColorMatrix type="matrix" values="0 0 0 0 0 0 0 0 0 0 0 0 0 0 0 0 0 0 0.25 0"/>
<feBlend mode="normal" in2="BackgroundImageFix" result="effect1_dropShadow_345_1387"/>
<feBlend mode="normal" in="SourceGraphic" in2="effect1_dropShadow_345_1387" result="shape"/>
</filter>
<linearGradient id="paint0_linear_345_1387" x1="108" y1="0" x2="108" y2="206.487" gradientUnits="userSpaceOnUse">
<stop offset="1" stop-color="#2F2E41" stop-opacity="0.29"/>
<stop offset="1" stop-color="#2F2E41"/>
</linearGradient>
</defs>
</svg>
