<svg width="216" height="215" viewBox="0 0 216 215" fill="none" xmlns="http://www.w3.org/2000/svg">
<g filter="url(#filter0_d_346_1396)">
<ellipse cx="108" cy="103.244" rx="104" ry="103.244" fill="white"/>
<path d="M211.5 103.244C211.5 159.984 165.165 205.987 108 205.987C50.8351 205.987 4.5 159.984 4.5 103.244C4.5 46.5033 50.8351 0.5 108 0.5C165.165 0.5 211.5 46.5033 211.5 103.244Z" stroke="url(#paint0_linear_346_1396)"/>
</g>
<path d="M71.7165 53.1384C66.719 54.7797 63.0359 57.7815 60.6015 62.0872L58.4303 65.883L58.2135 113.879L57.9966 161.933L61.6784 161.934L65.2945 161.936L65.4457 113.826L65.6626 65.7159L67.636 63.2234C68.7543 61.9205 70.9904 60.1648 72.5686 59.3721L75.5278 57.9567L116.817 57.8035L158.041 57.6504L158.042 54.8737L158.043 52.0404L116.491 52.0234C77.3712 52.0641 74.6755 52.1196 71.7165 53.1384Z" fill="#2F2E41"/>
<path d="M91.6338 63.0628L91.6323 66.7461L94.9197 66.7474L98.207 66.7488L98.2086 63.0655L98.2101 59.3821L94.9227 59.3808L91.6353 59.3794L91.6338 63.0628Z" fill="#2F2E41"/>
<path d="M129.767 63.0794L129.766 66.7627L133.053 66.764L136.34 66.7654L136.342 63.0821L136.343 59.3987L133.056 59.3974L129.769 59.396L129.767 63.0794Z" fill="#2F2E41"/>
<path d="M77.6268 69.4604C76.6402 70.4233 76.5075 73.4266 76.4963 100.91C76.4841 130.603 76.4838 131.34 77.7983 132.474C79.0471 133.551 79.9675 133.608 113.959 133.622C147.95 133.636 148.871 133.579 150.12 132.503C151.37 131.427 151.436 130.634 151.448 101.167C151.459 74.7605 151.329 70.8505 150.409 69.7168L149.423 68.4697L114.051 68.4553C80.6516 68.4416 78.6134 68.4974 77.6268 69.4604ZM147.121 71.0754C148.041 71.3591 148.172 74.5892 148.161 101.109L148.149 130.802L114.026 130.788C83.519 130.776 79.8372 130.661 79.5088 129.868C79.3118 129.358 79.1199 116.268 79.1262 100.741C79.1364 75.8076 79.2693 72.4077 80.1901 71.6147C81.1109 70.8218 85.0558 70.7101 113.656 70.7218C131.473 70.729 146.529 70.9052 147.121 71.0754Z" fill="#2F2E41"/>
<path d="M83.0708 101.027L83.0598 127.943L113.961 127.956L144.862 127.969L144.873 101.052L144.884 74.1354L113.983 74.1228L83.0818 74.1101L83.0708 101.027ZM122.068 78.6027C125.618 78.8875 128.905 79.4555 129.431 79.7957C130.22 80.3627 130.416 82.7995 130.412 93.3394C130.408 102.576 130.209 106.373 129.617 106.882C128.499 107.845 99.4391 107.833 98.3218 106.87C97.7303 106.359 97.5346 102.506 97.5385 93.0427C97.5447 77.9127 96.8209 79.3291 105.105 78.6525C112.601 78.0889 114.836 78.0898 122.068 78.6027ZM96.0953 85.1088C95.2403 85.6751 94.977 86.5816 95.1074 89.1884C95.2377 92.1917 95.106 92.5317 93.9226 92.5312C92.4761 92.5306 91.7539 90.1503 92.6751 88.394C93.2015 87.3176 93.3332 86.751 93.4653 85.2777C93.5971 84.5978 94.1232 84.3146 95.4381 84.3152C97.016 84.3725 97.0818 84.4292 96.0953 85.1088ZM134.228 85.7477C134.36 86.3711 134.754 87.3912 135.082 88.0714C136.199 89.9985 135.606 92.5482 134.028 92.5476C132.845 92.5471 132.714 92.2071 132.846 88.9771C132.913 86.2571 132.716 85.4637 131.993 85.4634C131.467 85.4632 131.073 85.1797 131.073 84.8397C131.073 83.7631 134.032 84.5576 134.228 85.7477ZM105.75 109.819C105.75 111.066 105.421 111.236 103.317 111.405C100.95 111.574 100.818 111.517 100.819 109.817C100.82 108.117 100.951 108.061 103.318 108.232C105.422 108.403 105.751 108.573 105.75 109.819ZM127.118 109.828C127.117 111.415 126.986 111.528 124.487 111.527C121.989 111.526 121.857 111.413 121.858 109.826C121.859 108.239 121.99 108.126 124.489 108.127C126.987 108.128 127.119 108.241 127.118 109.828ZM92.9262 117.464C93.3862 117.918 93.5831 118.824 93.3856 119.448C93.1881 120.071 93.3193 120.751 93.648 120.921C93.9767 121.091 94.24 120.185 94.2405 118.938C94.2414 116.841 94.373 116.615 95.8852 116.615C97.3973 116.616 97.5287 116.843 97.6592 119.279L97.7896 121.999L97.988 119.279C98.2519 116.9 98.4493 116.616 99.8957 116.617C101.342 116.618 101.474 116.844 101.473 119.224C101.471 122.851 100.616 123.984 97.8546 123.983C96.5396 123.982 95.4221 123.642 95.0278 123.075C94.5022 122.281 94.3707 122.281 93.6471 123.074C93.1209 123.641 91.7401 123.98 90.2279 123.98L87.6637 123.979L87.6652 120.295L87.6668 116.612L89.9022 116.613C91.0856 116.613 92.4661 117.011 92.9262 117.464ZM108.048 117.81C108.047 118.83 107.784 118.943 106.404 118.66C104.366 118.205 104.234 118.999 106.272 119.736C107.324 120.133 107.718 120.757 107.717 122.003C107.717 123.59 107.52 123.703 104.955 123.872C102.457 124.041 102.128 123.928 102.129 122.851C102.129 121.888 102.392 121.775 103.773 122.059C104.693 122.229 105.416 122.229 105.416 122.059C105.416 121.833 104.693 121.436 103.773 121.152C102.524 120.755 102.13 120.188 102.13 118.998C102.131 116.901 102.526 116.618 105.55 116.619C107.654 116.62 108.048 116.79 108.048 117.81ZM125.8 117.761C125.799 118.441 125.339 118.894 124.747 118.894C124.09 118.893 123.827 119.177 124.089 119.743C124.746 121.33 123.759 123.993 122.444 123.993C121.392 123.992 121.195 123.539 121.196 121.442C121.197 119.799 120.934 118.892 120.408 118.835C119.948 118.835 118.764 118.721 117.778 118.608C115.543 118.38 115.411 119.003 117.449 119.741C118.501 120.138 118.895 120.761 118.894 122.008C118.894 123.651 118.762 123.708 115.804 123.877C113.042 124.046 112.779 123.932 113.108 122.912C113.372 121.949 113.832 121.836 115.147 122.12C116.264 122.347 116.659 122.234 116.33 121.78C116.068 121.44 115.41 121.157 114.884 121.156C113.635 121.156 112.65 118.889 113.374 117.642C113.834 116.849 115.018 116.68 119.883 116.682C125.34 116.684 125.8 116.741 125.8 117.761ZM131.98 117.537C133.163 118.557 133.359 121.277 132.372 122.92C131.912 123.657 130.991 123.996 129.413 123.996C127.835 123.995 126.915 123.655 126.455 122.918C124.09 119.063 128.694 114.645 131.98 117.537ZM139.541 117.426C140.79 118.73 140.131 121.393 138.487 122.016C137.632 122.299 136.975 122.865 136.974 123.262C136.974 123.659 136.251 123.998 135.33 123.998C133.753 123.997 133.687 123.884 133.688 120.314L133.69 116.631L136.254 116.632C137.635 116.632 139.147 116.973 139.541 117.426Z" fill="#2F2E41"/>
<path d="M107.406 80.9194C107.406 81.9961 107.866 82.0529 113.98 82.0554C120.095 82.0579 120.555 82.0014 120.555 80.9248C120.556 79.8481 120.096 79.7913 113.981 79.7888C107.867 79.7863 107.406 79.8427 107.406 80.9194Z" fill="#2F2E41"/>
<path d="M99.9747 84.1466C99.7117 84.3165 99.5131 87.6597 99.5115 91.4564L99.5086 98.483L101.349 98.8804C103.65 99.448 124.295 99.4565 126.662 98.8908L128.437 98.4948L128.44 91.4682C128.443 85.5749 128.246 84.3848 127.391 84.1011C126.011 83.6472 100.501 83.6368 99.9747 84.1466Z" fill="#2F2E41"/>
<path d="M100.164 104.717C100.164 105.793 100.492 105.907 103.911 105.738C106.936 105.626 107.79 105.343 107.922 104.55C108.12 103.7 107.594 103.586 104.175 103.585C100.559 103.584 100.164 103.697 100.164 104.717Z" fill="#2F2E41"/>
<path d="M119.888 104.725C119.887 105.745 120.347 105.859 123.832 105.86C127.317 105.861 127.777 105.748 127.777 104.728C127.778 103.708 127.318 103.595 123.833 103.593C120.348 103.592 119.888 103.705 119.888 104.725Z" fill="#2F2E41"/>
<path d="M129.218 120.312C129.217 121.218 129.349 121.558 129.546 120.992C129.678 120.482 129.678 119.688 129.547 119.292C129.35 118.952 129.218 119.348 129.218 120.312Z" fill="#2F2E41"/>
<path d="M136.319 119.465C136.319 119.748 136.647 120.031 136.976 120.032C137.371 120.032 137.634 119.748 137.634 119.465C137.634 119.125 137.371 118.898 136.977 118.898C136.648 118.898 136.319 119.125 136.319 119.465Z" fill="#2F2E41"/>
<defs>
<filter id="filter0_d_346_1396" x="0" y="0" width="216" height="214.487" filterUnits="userSpaceOnUse" color-interpolation-filters="sRGB">
<feFlood flood-opacity="0" result="BackgroundImageFix"/>
<feColorMatrix in="SourceAlpha" type="matrix" values="0 0 0 0 0 0 0 0 0 0 0 0 0 0 0 0 0 0 127 0" result="hardAlpha"/>
<feOffset dy="4"/>
<feGaussianBlur stdDeviation="2"/>
<feComposite in2="hardAlpha" operator="out"/>
<feColorMatrix type="matrix" values="0 0 0 0 0 0 0 0 0 0 0 0 0 0 0 0 0 0 0.25 0"/>
<feBlend mode="normal" in2="BackgroundImageFix" result="effect1_dropShadow_346_1396"/>
<feBlend mode="normal" in="SourceGraphic" in2="effect1_dropShadow_346_1396" result="shape"/>
</filter>
<linearGradient id="paint0_linear_346_1396" x1="108" y1="0" x2="108" y2="206.487" gradientUnits="userSpaceOnUse">
<stop offset="1" stop-color="#2F2E41" stop-opacity="0.29"/>
<stop offset="1" stop-color="#2F2E41"/>
</linearGradient>
</defs>
</svg>
