<svg width="130" height="61" viewBox="0 0 130 61" fill="none" xmlns="http://www.w3.org/2000/svg">
<path d="M19.7237 36.0725L19.2155 33.821C19.0525 33.1241 18.784 32.6505 18.3909 32.4182C18.0553 32.2306 17.5855 32.1949 16.991 32.32L15.1883 32.6773L16.5403 38.6546L18.343 38.2972C18.947 38.181 19.3594 37.9756 19.5799 37.6807C19.8388 37.3233 19.8867 36.7873 19.7237 36.0725ZM19.7237 36.0725L19.2155 33.821C19.0525 33.1241 18.784 32.6505 18.3909 32.4182C18.0553 32.2306 17.5855 32.1949 16.991 32.32L15.1883 32.6773L16.5403 38.6546L18.343 38.2972C18.947 38.181 19.3594 37.9756 19.5799 37.6807C19.8388 37.3233 19.8867 36.7873 19.7237 36.0725ZM19.7237 36.0725L19.2155 33.821C19.0525 33.1241 18.784 32.6505 18.3909 32.4182C18.0553 32.2306 17.5855 32.1949 16.991 32.32L15.1883 32.6773L16.5403 38.6546L18.343 38.2972C18.947 38.181 19.3594 37.9756 19.5799 37.6807C19.8388 37.3233 19.8867 36.7873 19.7237 36.0725ZM19.7237 36.0725L19.2155 33.821C19.0525 33.1241 18.784 32.6505 18.3909 32.4182C18.0553 32.2306 17.5855 32.1949 16.991 32.32L15.1883 32.6773L16.5403 38.6546L18.343 38.2972C18.947 38.181 19.3594 37.9756 19.5799 37.6807C19.8388 37.3233 19.8867 36.7873 19.7237 36.0725ZM19.7237 36.0725L19.2155 33.821C19.0525 33.1241 18.784 32.6505 18.3909 32.4182C18.0553 32.2306 17.5855 32.1949 16.991 32.32L15.1883 32.6773L16.5403 38.6546L18.343 38.2972C18.947 38.181 19.3594 37.9756 19.5799 37.6807C19.8388 37.3233 19.8867 36.7873 19.7237 36.0725ZM67.9351 26.6018L67.4269 24.3503C67.2639 23.6534 66.9954 23.1799 66.6023 22.9386C66.2667 22.751 65.7969 22.7242 65.2024 22.8404L63.3997 23.1977L64.7517 29.175L66.5544 28.8176C67.1584 28.7014 67.5708 28.496 67.7913 28.2011C68.0502 27.8616 68.0981 27.3255 67.9351 26.6018ZM67.9351 26.6018L67.4269 24.3503C67.2639 23.6534 66.9954 23.1799 66.6023 22.9386C66.2667 22.751 65.7969 22.7242 65.2024 22.8404L63.3997 23.1977L64.7517 29.175L66.5544 28.8176C67.1584 28.7014 67.5708 28.496 67.7913 28.2011C68.0502 27.8616 68.0981 27.3255 67.9351 26.6018ZM19.7237 36.0725L19.2155 33.821C19.0525 33.1241 18.784 32.6505 18.3909 32.4182C18.0553 32.2306 17.5855 32.1949 16.991 32.32L15.1883 32.6773L16.5403 38.6546L18.343 38.2972C18.947 38.181 19.3594 37.9756 19.5799 37.6807C19.8388 37.3233 19.8867 36.7873 19.7237 36.0725ZM81.4934 43.4435L84.0439 39.6106L80.1702 37.1357L82.644 33.4189L79.0675 31.1406L81.6468 27.263L77.2744 24.4754L79.9592 20.437L76.0087 17.9174L78.636 13.9772L74.7526 11.5024L77.0826 8L2.69439 22.5902C3.01082 24.0019 1.81224 25.4314 0 25.7888L0.373957 27.4595C0.910918 27.3523 1.4287 27.6114 1.52459 28.0314C1.62047 28.4513 1.26569 28.8801 0.719144 28.9874L1.01639 30.3275C1.55335 30.2203 2.07113 30.4794 2.16702 30.8994C2.26291 31.3193 1.89854 31.7481 1.36158 31.8554L1.65883 33.1955C2.19579 33.0883 2.71357 33.3474 2.80946 33.7674C2.90534 34.1873 2.54098 34.6251 2.00402 34.7234L2.30126 36.0546C2.83822 35.9474 3.356 36.2065 3.45189 36.6264C3.54778 37.0464 3.18341 37.4752 2.64645 37.5824L3.16423 39.8697C4.97647 39.5123 6.71201 40.379 7.02843 41.7906C7.34486 43.2023 6.13669 44.6408 4.32445 44.9981L4.75594 46.8923C5.2929 46.7851 5.81068 47.0442 5.90657 47.4641C6.00245 47.884 5.63809 48.3129 5.10113 48.4201L5.39837 49.7603C5.93534 49.6531 6.45312 49.9122 6.549 50.3321C6.64489 50.752 6.28052 51.1898 5.74356 51.2881L6.04081 52.6283C6.57777 52.5211 7.09555 52.7802 7.19144 53.2001C7.28732 53.62 6.92296 54.0489 6.386 54.1561L6.68324 55.4963C7.2202 55.3891 7.73799 55.6482 7.83387 56.0681C7.92976 56.488 7.56539 56.9258 7.02843 57.0241L7.49827 59.088C9.30093 58.7306 11.0269 59.5883 11.3433 61L85.9904 46.3473L86 46.3383L81.4934 43.4435ZM22.6386 49.7067L18.8991 41.6298L17.2786 41.9425L19.1868 50.3768L15.639 51.0737L10.8926 30.0506L16.2431 28.9963C17.7676 28.7014 19.11 28.8712 20.2703 29.5234C21.5551 30.2293 22.3798 31.4265 22.7633 33.1151L23.2715 35.3667C23.655 37.0732 23.4153 38.4848 22.5523 39.6195C22.4277 39.7982 22.2839 39.959 22.1209 40.1109L26.2535 48.9919L22.6386 49.7067ZM28.4397 48.563L23.6838 27.54L33.0327 25.7084L33.7806 29.0142L27.9795 30.1489L29.1781 35.4381L33.1765 34.6519L33.9244 37.9577L29.926 38.7439L31.2396 44.5693L37.0407 43.4346L37.7886 46.7404L28.4397 48.563ZM39.4954 46.3919L41.3652 27.5578L35.4969 28.7104L34.7394 25.3778L45.4691 23.2692L43.5993 42.1033L49.4675 40.9508L50.225 44.2834L39.4954 46.3919ZM52.3153 43.8813L47.5594 22.8582L56.9082 21.0266L57.6561 24.3324L51.8551 25.4671L53.0536 30.7564L57.0521 29.9702L57.8 33.276L53.8015 34.0622L55.1152 39.8876L60.9163 38.7529L61.6642 42.0587L52.3153 43.8813ZM70.85 40.236L67.1105 32.1591L65.4996 32.4718L67.4077 40.915L63.86 41.6119L59.104 20.5888L64.4545 19.5346C65.979 19.2397 67.3214 19.4095 68.4817 20.0617C69.7665 20.7675 70.5911 21.9648 70.9747 23.6534L71.4829 25.9049C71.8664 27.6025 71.6267 29.0231 70.7638 30.1578C70.6391 30.3365 70.4953 30.4973 70.3323 30.6492L74.4554 39.5302L70.85 40.236ZM67.4269 24.3503C67.2639 23.6534 66.9954 23.1799 66.6023 22.9386C66.2667 22.751 65.7969 22.7242 65.2024 22.8404L63.3997 23.1977L64.7517 29.175L66.5544 28.8176C67.1584 28.7014 67.5708 28.496 67.7913 28.2011C68.0502 27.8616 68.0981 27.3255 67.9351 26.6018L67.4269 24.3503ZM19.2155 33.821C19.0525 33.1241 18.784 32.6505 18.3909 32.4182C18.0553 32.2306 17.5855 32.1949 16.991 32.32L15.1883 32.6773L16.5403 38.6546L18.343 38.2972C18.947 38.181 19.3594 37.9756 19.5799 37.6807C19.8388 37.3412 19.8867 36.8051 19.7237 36.0814L19.2155 33.821ZM19.7237 36.0725L19.2155 33.821C19.0525 33.1241 18.784 32.6505 18.3909 32.4182C18.0553 32.2306 17.5855 32.1949 16.991 32.32L15.1883 32.6773L16.5403 38.6546L18.343 38.2972C18.947 38.181 19.3594 37.9756 19.5799 37.6807C19.8388 37.3233 19.8867 36.7873 19.7237 36.0725ZM67.9351 26.6018L67.4269 24.3503C67.2639 23.6534 66.9954 23.1799 66.6023 22.9386C66.2667 22.751 65.7969 22.7242 65.2024 22.8404L63.3997 23.1977L64.7517 29.175L66.5544 28.8176C67.1584 28.7014 67.5708 28.496 67.7913 28.2011C68.0502 27.8616 68.0981 27.3255 67.9351 26.6018ZM67.9351 26.6018L67.4269 24.3503C67.2639 23.6534 66.9954 23.1799 66.6023 22.9386C66.2667 22.751 65.7969 22.7242 65.2024 22.8404L63.3997 23.1977L64.7517 29.175L66.5544 28.8176C67.1584 28.7014 67.5708 28.496 67.7913 28.2011C68.0502 27.8616 68.0981 27.3255 67.9351 26.6018ZM19.7237 36.0725L19.2155 33.821C19.0525 33.1241 18.784 32.6505 18.3909 32.4182C18.0553 32.2306 17.5855 32.1949 16.991 32.32L15.1883 32.6773L16.5403 38.6546L18.343 38.2972C18.947 38.181 19.3594 37.9756 19.5799 37.6807C19.8388 37.3233 19.8867 36.7873 19.7237 36.0725ZM19.7237 36.0725L19.2155 33.821C19.0525 33.1241 18.784 32.6505 18.3909 32.4182C18.0553 32.2306 17.5855 32.1949 16.991 32.32L15.1883 32.6773L16.5403 38.6546L18.343 38.2972C18.947 38.181 19.3594 37.9756 19.5799 37.6807C19.8388 37.3233 19.8867 36.7873 19.7237 36.0725ZM19.7237 36.0725L19.2155 33.821C19.0525 33.1241 18.784 32.6505 18.3909 32.4182C18.0553 32.2306 17.5855 32.1949 16.991 32.32L15.1883 32.6773L16.5403 38.6546L18.343 38.2972C18.947 38.181 19.3594 37.9756 19.5799 37.6807C19.8388 37.3233 19.8867 36.7873 19.7237 36.0725Z" fill="white"/>
<path d="M129.964 13.1153L127.44 2.02187C127.256 1.2167 126.144 0.75149 125.313 0.92147L118.804 2.19185C117.131 2.37078 115.555 1.30616 115.255 0L81.35 6.60238L79 10.1093L82.9166 12.5875L80.2669 16.5417L84.2511 19.0646L81.5434 23.1083L85.9532 25.8996L83.3518 29.7823L86.9589 32.0636L84.4639 35.7853L88.3708 38.2634L85.7984 42.1014L90.363 44.9911L90.3533 45C90.3533 45 112.17 40.7684 122.334 38.8002C125.081 38.2724 126.841 35.7763 126.27 33.2356C126.27 33.2177 126.26 33.1998 126.26 33.1819C126.183 33.1998 126.096 33.2087 126.009 33.2087C125.564 33.2087 125.177 32.9672 125.09 32.6093C124.994 32.1889 125.361 31.7594 125.903 31.6521L125.593 30.3101C125.042 30.4175 124.529 30.158 124.433 29.7376C124.336 29.3171 124.703 28.8877 125.245 28.7803L124.935 27.4384C124.384 27.5457 123.872 27.2863 123.775 26.8658C123.678 26.4453 124.046 26.0159 124.587 25.9085L124.278 24.5755C123.727 24.6829 123.214 24.4235 123.117 24.003C123.021 23.5825 123.388 23.1531 123.93 23.0457L123.785 22.4105C123.63 21.7664 123.05 21.2922 122.344 21.2296C119.858 20.997 119.298 17.8837 118.321 13.5716C117.479 9.88568 116.599 5.86878 119.868 5.17992L123.011 4.58051C123.833 4.42843 124.587 4.66998 124.771 5.47514L126.657 13.7684C126.715 14.0368 126.86 14.2873 127.063 14.493C128.156 15.5755 130.303 14.5825 129.964 13.1153ZM102.084 32.5914C101.32 33.6024 100.15 34.2555 98.5927 34.5596C97.0744 34.8549 95.7205 34.6938 94.5407 34.0586C93.2255 33.2714 92.3841 32.0636 92.0167 30.4354L89.4733 19.2525C89.1058 17.6242 89.3476 16.2107 90.1986 14.994C91.0109 13.9831 92.1714 13.3211 93.6897 13.0258C95.2466 12.7217 96.6005 12.8916 97.7417 13.5268C99.0472 14.2783 99.8886 15.4861 100.266 17.1501L100.691 19.0109L97.1131 19.7087L96.6876 17.8479C96.5232 17.1054 96.2524 16.6312 95.8946 16.4344C95.5561 16.2465 95.0726 16.2197 94.444 16.336C93.8347 16.4523 93.4189 16.6581 93.1965 16.9533C92.9354 17.3022 92.887 17.83 93.0514 18.5547L95.5948 29.7376C95.7592 30.4622 96.0396 30.9274 96.4265 31.1421C96.7649 31.33 97.2388 31.3658 97.8384 31.2406C98.467 31.1243 98.8925 30.9095 99.1246 30.6143C99.3663 30.2922 99.405 29.7644 99.2406 29.0219L98.3413 25.0855L96.5522 25.4344L95.7979 22.1243L101.165 21.0775L102.819 28.3241C103.196 30.006 102.954 31.4195 102.084 32.5914ZM114.984 30.0775C114.22 31.0885 113.05 31.7415 111.493 32.0457C109.936 32.3499 108.582 32.1799 107.441 31.5447C106.136 30.7932 105.294 29.5855 104.917 27.9215L102.374 16.7386C101.997 15.0746 102.239 13.661 103.099 12.4801C103.863 11.4692 105.033 10.8161 106.59 10.5119C108.147 10.2078 109.501 10.3777 110.642 11.0129C111.948 11.7644 112.789 12.9722 113.166 14.6362L115.71 25.8191C116.097 27.492 115.855 28.9056 114.984 30.0775ZM109.598 15.334C109.433 14.5914 109.153 14.1262 108.766 13.9205C108.457 13.7326 107.983 13.6968 107.354 13.8221C106.745 13.9384 106.329 14.1441 106.107 14.4394C105.846 14.7793 105.797 15.3161 105.962 16.0408L108.505 27.2237C108.669 27.9483 108.95 28.4135 109.337 28.6372C109.675 28.825 110.149 28.8519 110.749 28.7356C111.377 28.6103 111.793 28.4046 111.996 28.1183C112.267 27.7962 112.315 27.2594 112.141 26.5169L109.598 15.334Z" fill="white"/>
</svg>
