<svg width="367" height="225" viewBox="0 0 367 225" fill="none" xmlns="http://www.w3.org/2000/svg">
<g clip-path="url(#clip0_30_114)">
<path d="M234.162 118.088C235.654 118.503 237.247 118.355 238.638 117.674C240.028 116.992 241.121 115.824 241.709 114.39C242.296 112.957 242.338 111.357 241.825 109.895C241.313 108.433 240.282 107.209 238.928 106.457L225.5 91.2145L214.143 93.6695L230.117 109.324C229.724 110.156 229.519 111.065 229.515 111.985C229.511 112.905 229.709 113.815 230.094 114.651C230.48 115.486 231.044 116.227 231.747 116.821C232.45 117.415 233.274 117.847 234.162 118.088L234.162 118.088Z" fill="#A0616A"/>
<path d="M189.983 63.5199L223.452 105.553L233.653 100.866L194.315 39.5906L189.983 63.5199Z" fill="#3F3D56"/>
<path d="M342.136 208.79C344.233 204.719 343.094 199.583 340.483 195.82C337.872 192.057 334.017 189.376 330.246 186.779L325.003 183.167L327.508 195.743C328.353 199.995 329.395 204.586 332.714 207.374C334.017 208.443 335.574 209.158 337.233 209.45C338.893 209.743 340.6 209.603 342.19 209.044" fill="#E6E6E6"/>
<path d="M341.74 224.269C341.713 224.365 341.649 224.447 341.562 224.496C341.475 224.546 341.373 224.559 341.276 224.533C341.181 224.504 341.101 224.439 341.052 224.353C341.003 224.267 340.989 224.165 341.013 224.069C341.305 221.939 341.595 219.808 341.732 217.662C341.96 214.114 341.749 210.473 340.436 207.133C339.248 204.129 337.137 201.581 334.408 199.855C333.998 199.597 334.376 198.945 334.788 199.204C336.365 200.199 337.757 201.461 338.901 202.934C341.057 205.714 342.115 209.105 342.446 212.576C342.818 216.485 342.272 220.402 341.742 224.27L341.74 224.269Z" fill="#F2F2F2"/>
<path d="M288.377 200.384C304.895 210.554 299.389 224.115 299.389 224.115L288.377 200.384Z" fill="#E6E6E6"/>
<path d="M320.841 214.286C307.84 214.203 306.161 223.868 306.161 223.868L320.841 214.286Z" fill="#E6E6E6"/>
<path d="M111.107 224.917C113.135 224.917 114.778 223.272 114.778 221.244C114.778 219.215 113.135 217.571 111.107 217.571C109.08 217.571 107.437 219.215 107.437 221.244C107.437 223.272 109.08 224.917 111.107 224.917Z" fill="#3F3D56"/>
<path d="M113.777 147.288C113.777 147.288 122.453 120.911 123.121 119.075C123.788 117.239 130.796 120.243 132.632 120.744C134.467 121.245 133.966 123.082 133.966 123.082L124.623 150.126L127.459 151.462L136.136 124.25C141.141 119.075 137.47 118.741 137.47 118.741C137.47 118.741 126.792 115.068 122.787 114.734C118.783 114.4 120.284 119.242 120.284 119.242L110.607 144.951L113.777 147.288Z" fill="#3F3D56"/>
<path d="M134.634 153.632L134.632 153.63C133.401 151.864 131.653 150.523 129.628 149.792C129.556 149.766 129.473 149.736 129.378 149.702C124.781 148.094 92.7532 139.442 92.7532 139.442C92.7532 139.442 86.4127 137.105 83.5761 143.449C80.7396 149.792 63.8872 202.379 63.8872 202.379C63.8872 202.379 96.8478 220.015 106.457 221.935C107.05 222.078 107.662 222.126 108.271 222.078C109.904 221.852 111.512 221.468 113.071 220.932C114.796 220.369 116.437 219.576 117.948 218.573L136.636 162.647C136.636 162.647 139.306 156.47 134.634 153.632Z" fill="#FC9C09"/>
<path d="M134.634 153.632L134.632 153.63C133.401 151.864 131.653 150.523 129.628 149.792C129.556 149.766 129.473 149.736 129.378 149.702C130.89 152.353 131.464 156.47 131.464 156.47C131.464 156.47 113.11 211.06 111.441 216.236C110.17 220.18 107.605 221.521 106.457 221.935C107.05 222.078 107.662 222.126 108.271 222.079C109.904 221.852 111.512 221.468 113.071 220.932C113.527 220.408 113.931 219.842 114.278 219.24C114.278 219.24 132.965 163.315 134.634 160.644C136.302 157.972 134.634 153.632 134.634 153.632Z" fill="#3F3D56"/>
<path d="M99.8444 225C101.872 225 103.515 223.356 103.515 221.327C103.515 219.299 101.872 217.655 99.8444 217.655C97.8171 217.655 96.1736 219.299 96.1736 221.327C96.1736 223.356 97.8171 225 99.8444 225Z" fill="#3F3D56"/>
<path d="M64.2209 209.558C66.2482 209.558 67.8917 207.913 67.8917 205.885C67.8917 203.857 66.2482 202.212 64.2209 202.212C62.1935 202.212 60.55 203.857 60.55 205.885C60.55 207.913 62.1935 209.558 64.2209 209.558Z" fill="#3F3D56"/>
<path d="M128.925 121.311C127.448 121.778 125.851 121.688 124.437 121.056C123.023 120.425 121.889 119.296 121.251 117.884C120.613 116.473 120.514 114.875 120.975 113.396C121.435 111.916 122.421 110.657 123.747 109.857L136.624 94.1454L148.062 96.1941L132.655 112.408C133.077 113.226 133.315 114.126 133.352 115.046C133.388 115.965 133.223 116.882 132.867 117.731C132.512 118.579 131.974 119.34 131.293 119.958C130.612 120.577 129.803 121.038 128.925 121.311L128.925 121.311Z" fill="#A0616A"/>
<path d="M216.688 190.441L224.664 190.316L223.705 217.517H216.689L216.688 190.441Z" fill="#A0616A"/>
<path d="M214.9 215.225L228.717 215.224H228.717C231.052 215.225 233.292 216.153 234.943 217.805C236.595 219.457 237.522 221.698 237.522 224.034V224.32L214.9 224.321L214.9 215.225Z" fill="#2F2E41"/>
<path d="M163.876 183.227L172.589 188.824L155.16 209.803L149.256 206.011L163.876 183.227Z" fill="#A0616A"/>
<path d="M148.988 203.115L160.615 210.584L160.615 210.584C162.58 211.846 163.963 213.838 164.461 216.121C164.958 218.404 164.529 220.791 163.267 222.757L163.113 222.998L144.076 210.77L148.988 203.115Z" fill="#2F2E41"/>
<path d="M160.772 100.168C160.772 100.168 180.132 35.8326 186.354 34.9632C192.576 34.0938 202.6 51.4709 202.6 51.4709C215.598 68.0629 229 121.808 229 121.808C229 121.808 206.658 123.207 190.325 131.901C173.993 140.595 154.719 131.461 154.719 131.461L160.772 100.168Z" fill="#3F3D56"/>
<path opacity="0.1" d="M160.772 100.168C160.772 100.168 180.132 35.8326 186.354 34.9632C192.576 34.0938 200.054 51.6472 200.054 51.6472C206.531 78.4306 229 121.808 229 121.808C229 121.808 206.658 123.207 190.325 131.901C173.993 140.595 154.719 131.461 154.719 131.461L160.772 100.168Z" fill="black"/>
<path d="M176.655 80.9191V113.247L172.853 160.077L153.855 195.5L162.922 201.98L188.828 168.284L199.074 134.827L215.166 208.892L227.255 208.028L218.859 105.339L202.926 76.4342L176.655 80.9191Z" fill="#2F2E41"/>
<path d="M196.175 49.6507C202.22 55.6986 196.607 62.1784 196.607 62.1784L203.515 77.7301L176.314 85.0739L166.808 42.5754L173.285 35.6636C186.238 35.2316 186.245 34.963 186.245 34.963C188.514 37.1851 196.175 49.6507 196.175 49.6507Z" fill="#CCCCCC"/>
<path d="M165.562 38.2834C163.314 39.9381 161.736 42.3481 161.12 45.0719C160.503 47.7956 160.888 50.6505 162.204 53.1132C165.321 59.0651 168.673 68.2848 166.944 78.4062C163.816 96.7236 153.79 110.64 148.205 115.11C146.26 116.666 146.193 118.931 146.478 120.558C147.275 125.103 151.68 130.26 154.726 131.294C154.931 131.362 155.146 131.396 155.362 131.394C160.311 131.396 172.484 115.626 186.473 84.8211C195.185 65.6361 188.862 50.2534 182.024 40.7271C181.126 39.4806 179.99 38.4247 178.681 37.6206C177.373 36.8165 175.918 36.2801 174.401 36.0425C172.884 35.8049 171.335 35.8709 169.844 36.2365C168.352 36.6022 166.948 37.2603 165.713 38.1727L165.562 38.2834Z" fill="#3F3D56"/>
<path d="M178.466 56.8309L139.182 108.402L128.82 104.082L165.951 41.443L178.466 56.8309Z" fill="#3F3D56"/>
<path d="M190.118 29.364H163.099C162.543 29.3634 162.01 29.1422 161.617 28.749C161.224 28.3558 161.003 27.8227 161.002 27.2666V15.6142C161.001 13.563 161.404 11.5317 162.188 9.63639C162.972 7.74104 164.121 6.01877 165.57 4.56799C167.02 3.11721 168.74 1.96634 170.634 1.18114C172.528 0.395934 174.558 -0.00820923 176.608 -0.00820923C178.659 -0.00820923 180.689 0.395934 182.583 1.18114C184.477 1.96634 186.197 3.11721 187.647 4.56799C189.096 6.01877 190.245 7.74104 191.029 9.63639C191.813 11.5317 192.216 13.563 192.215 15.6142V27.2666C192.214 27.8227 191.993 28.3558 191.6 28.749C191.207 29.1422 190.674 29.3634 190.118 29.364Z" fill="#2F2E41"/>
<path d="M189.855 23.136C192.886 17.5884 190.848 10.6327 185.303 7.60006C179.759 4.56744 172.807 6.60628 169.776 12.1539C166.744 17.7016 168.782 24.6573 174.327 27.6899C179.872 30.7225 186.824 28.6837 189.855 23.136Z" fill="#A0616A"/>
<path d="M195.906 16.7794H179.385L179.215 14.4062L178.368 16.7794H175.824L175.488 12.0757L173.809 16.7794H168.887V16.5464C168.891 13.2717 170.192 10.1322 172.507 7.81662C174.821 5.50106 177.959 4.19855 181.232 4.19485H183.561C186.834 4.19855 189.972 5.50106 192.287 7.81662C194.601 10.1322 195.903 13.2717 195.906 16.5464V16.7794Z" fill="#2F2E41"/>
<path d="M179.249 31.5392C179.125 31.5391 179.001 31.5281 178.878 31.5064L166.781 29.3708V9.36597H180.098L179.768 9.75058C175.181 15.1034 178.637 23.7831 181.105 28.4804C181.287 28.8245 181.368 29.2129 181.339 29.6011C181.31 29.9892 181.172 30.3613 180.941 30.6744C180.748 30.9421 180.493 31.1601 180.199 31.3104C179.905 31.4608 179.58 31.5392 179.249 31.5392Z" fill="#2F2E41"/>
<path d="M0 224.568C0 224.453 0.045489 224.344 0.126461 224.263C0.207432 224.182 0.317254 224.136 0.431765 224.136H366.568C366.683 224.136 366.793 224.182 366.874 224.263C366.955 224.344 367 224.453 367 224.568C367 224.683 366.955 224.792 366.874 224.873C366.793 224.955 366.683 225 366.568 225H0.431765C0.317254 225 0.207432 224.955 0.126461 224.873C0.045489 224.792 0 224.683 0 224.568Z" fill="#CBCBCB"/>
</g>
<defs>
<clipPath id="clip0_30_114">
<rect width="367" height="225" fill="white"/>
</clipPath>
</defs>
</svg>
